M48
;Layer_Color=9474304
;FILE_FORMAT=4:4
METRIC,LZ
;TYPE=PLATED
T01F00S00C0.3000
T02F00S00C1.0200
T03F00S00C1.1000
T04F00S00C1.4000
%
T01
X0056134Y00030988
X00548894Y00083058
X00524256Y00057404
X00505206Y00056388
X00449834Y00057658
X0043942Y00051308
X00440182Y00077216
X00373634Y0006096
X00141732Y00201422
X00122936Y00186944
X00154178Y0021463
X0016637Y002286
X00199644Y00281432
X00237998Y00270764
X00272542Y00229506
X00271272Y00216506
Y00203708
X00271018Y00190754
X00293116Y00141986
X00334518Y00102004
X00344678Y00095504
X00442976Y00149606
X0049026Y00165902
X0047625Y00193548
X00493981Y00283464
Y00293624
Y00303784
X00509221
Y00293624
Y00283464
X00530352Y00392684
X00514858Y00419862
Y00427736
X00506349
Y00419862
X0049784
Y00427736
X00254262Y004088
X0015875Y00404114
Y00394208
X00147066
Y00404114
Y00415036
Y0042545
X0015875
Y00415036
X00196262Y0034946
X00564388Y00404368
X00587502Y0039497
X00611378Y00394716
X0070866Y00377444
X00702056Y00448564
X00696214Y00292354
Y0028194
Y00271018
Y00261112
X00707898
Y00271018
Y0028194
Y00292354
X00699262Y00167386
X0065024Y00165608
X00593852Y0017907
X00571754Y00134366
X00574802Y00119888
X00548132Y00140208
X0075057Y00200914
X0080137Y00115062
X00807212Y00119634
X00827446Y00089662
X0067437Y00522986
X00653542Y00522478
X0063119Y00520446
X00529844Y00497078
X00479552Y00513842
X00466598Y00514096
X00342646Y0053975
X00330962Y00540004
T02
X00044922Y00165652
X00070322
Y00191052
Y00216452
Y00241852
Y00267252
Y00292652
Y00318052
Y00343452
Y00368852
Y00394252
X00044922
Y00368852
Y00343452
Y00318052
Y00292652
Y00267252
Y00241852
Y00216452
Y00191052
T03
X00293624Y0001905
X00319024
X00344424
X00369824
X00395224
X0091313Y0011049
Y0013589
T04
X009144Y0018216
Y0022026
Y0025836
Y0029646
Y0033456
Y0037266
Y0041076
Y0044886
M30
