G04*
G04 #@! TF.GenerationSoftware,Altium Limited,Altium Designer,23.8.1 (32)*
G04*
G04 Layer_Color=2752767*
%FSLAX44Y44*%
%MOMM*%
G71*
G04*
G04 #@! TF.SameCoordinates,5CA60E89-82B3-479B-9089-D34F769FB2F0*
G04*
G04*
G04 #@! TF.FilePolarity,Positive*
G04*
G01*
G75*
%ADD16C,0.1270*%
%ADD78C,0.1693*%
D16*
X65242Y389172D02*
Y399332D01*
X75402D01*
Y389172D01*
X65242D01*
Y363772D02*
Y373932D01*
X75402D01*
Y363772D01*
X65242D01*
Y338372D02*
Y348532D01*
X75402D01*
Y338372D01*
X65242D01*
Y312972D02*
Y323132D01*
X75402D01*
Y312972D01*
X65242D01*
Y287572D02*
Y297732D01*
X75402D01*
Y287572D01*
X65242D01*
Y262172D02*
Y272332D01*
X75402D01*
Y262172D01*
X65242D01*
Y236772D02*
Y246932D01*
X75402D01*
Y236772D01*
X65242D01*
Y211372D02*
Y221532D01*
X75402D01*
Y211372D01*
X65242D01*
Y185972D02*
Y196132D01*
X75402D01*
Y185972D01*
X65242D01*
Y160572D02*
Y170732D01*
X75402D01*
Y160572D01*
X65242D01*
X39842Y389172D02*
Y399332D01*
X50002D01*
Y389172D01*
X39842D01*
Y363772D02*
Y373932D01*
X50002D01*
Y363772D01*
X39842D01*
Y338372D02*
Y348532D01*
X50002D01*
Y338372D01*
X39842D01*
Y312972D02*
Y323132D01*
X50002D01*
Y312972D01*
X39842D01*
Y287572D02*
Y297732D01*
X50002D01*
Y287572D01*
X39842D01*
Y262172D02*
Y272332D01*
X50002D01*
Y262172D01*
X39842D01*
Y236772D02*
Y246932D01*
X50002D01*
Y236772D01*
X39842D01*
Y211372D02*
Y221532D01*
X50002D01*
Y211372D01*
X39842D01*
Y185972D02*
Y196132D01*
X50002D01*
Y185972D01*
X39842D01*
Y160572D02*
Y170732D01*
X50002D01*
Y160572D01*
X39842D01*
X914400Y177080D02*
X909320Y187240D01*
X919480D01*
X914400Y177080D01*
Y215180D02*
X909320Y225340D01*
X919480D01*
X914400Y215180D01*
Y253280D02*
X909320Y263440D01*
X919480D01*
X914400Y253280D01*
Y291380D02*
X909320Y301540D01*
X919480D01*
X914400Y291380D01*
Y329480D02*
X909320Y339640D01*
X919480D01*
X914400Y329480D01*
Y367580D02*
X909320Y377740D01*
X919480D01*
X914400Y367580D01*
Y405680D02*
X909320Y415840D01*
X919480D01*
X914400Y405680D01*
Y443780D02*
X909320Y453940D01*
X919480D01*
X914400Y443780D01*
X493981Y278384D02*
X496521Y280924D01*
X499061D01*
X496521Y283464D01*
X499061Y286004D01*
X496521D01*
X493981Y288544D01*
X491441Y286004D01*
X488901D01*
X491441Y283464D01*
X488901Y280924D01*
X491441D01*
X493981Y278384D01*
Y288544D02*
X496521Y291084D01*
X499061D01*
X496521Y293624D01*
X499061Y296164D01*
X496521D01*
X493981Y298704D01*
X491441Y296164D01*
X488901D01*
X491441Y293624D01*
X488901Y291084D01*
X491441D01*
X493981Y288544D01*
Y298704D02*
X496521Y301244D01*
X499061D01*
X496521Y303784D01*
X499061Y306324D01*
X496521D01*
X493981Y308864D01*
X491441Y306324D01*
X488901D01*
X491441Y303784D01*
X488901Y301244D01*
X491441D01*
X493981Y298704D01*
X509221D02*
X511761Y301244D01*
X514301D01*
X511761Y303784D01*
X514301Y306324D01*
X511761D01*
X509221Y308864D01*
X506681Y306324D01*
X504141D01*
X506681Y303784D01*
X504141Y301244D01*
X506681D01*
X509221Y298704D01*
Y288544D02*
X511761Y291084D01*
X514301D01*
X511761Y293624D01*
X514301Y296164D01*
X511761D01*
X509221Y298704D01*
X506681Y296164D01*
X504141D01*
X506681Y293624D01*
X504141Y291084D01*
X506681D01*
X509221Y288544D01*
Y278384D02*
X511761Y280924D01*
X514301D01*
X511761Y283464D01*
X514301Y286004D01*
X511761D01*
X509221Y288544D01*
X506681Y286004D01*
X504141D01*
X506681Y283464D01*
X504141Y280924D01*
X506681D01*
X509221Y278384D01*
X199644Y276352D02*
X202184Y278892D01*
X204724D01*
X202184Y281432D01*
X204724Y283972D01*
X202184D01*
X199644Y286512D01*
X197104Y283972D01*
X194564D01*
X197104Y281432D01*
X194564Y278892D01*
X197104D01*
X199644Y276352D01*
X237998Y265684D02*
X240538Y268224D01*
X243078D01*
X240538Y270764D01*
X243078Y273304D01*
X240538D01*
X237998Y275844D01*
X235458Y273304D01*
X232918D01*
X235458Y270764D01*
X232918Y268224D01*
X235458D01*
X237998Y265684D01*
X827446Y84582D02*
X829986Y87122D01*
X832526D01*
X829986Y89662D01*
X832526Y92202D01*
X829986D01*
X827446Y94742D01*
X824906Y92202D01*
X822366D01*
X824906Y89662D01*
X822366Y87122D01*
X824906D01*
X827446Y84582D01*
X530352Y387604D02*
X532892Y390144D01*
X535432D01*
X532892Y392684D01*
X535432Y395224D01*
X532892D01*
X530352Y397764D01*
X527812Y395224D01*
X525272D01*
X527812Y392684D01*
X525272Y390144D01*
X527812D01*
X530352Y387604D01*
X514858Y414782D02*
X517398Y417322D01*
X519938D01*
X517398Y419862D01*
X519938Y422402D01*
X517398D01*
X514858Y424942D01*
X512318Y422402D01*
X509778D01*
X512318Y419862D01*
X509778Y417322D01*
X512318D01*
X514858Y414782D01*
X506349D02*
X508889Y417322D01*
X511429D01*
X508889Y419862D01*
X511429Y422402D01*
X508889D01*
X506349Y424942D01*
X503809Y422402D01*
X501269D01*
X503809Y419862D01*
X501269Y417322D01*
X503809D01*
X506349Y414782D01*
X497840D02*
X500380Y417322D01*
X502920D01*
X500380Y419862D01*
X502920Y422402D01*
X500380D01*
X497840Y424942D01*
X495300Y422402D01*
X492760D01*
X495300Y419862D01*
X492760Y417322D01*
X495300D01*
X497840Y414782D01*
X514858Y422656D02*
X517398Y425196D01*
X519938D01*
X517398Y427736D01*
X519938Y430276D01*
X517398D01*
X514858Y432816D01*
X512318Y430276D01*
X509778D01*
X512318Y427736D01*
X509778Y425196D01*
X512318D01*
X514858Y422656D01*
X506349D02*
X508889Y425196D01*
X511429D01*
X508889Y427736D01*
X511429Y430276D01*
X508889D01*
X506349Y432816D01*
X503809Y430276D01*
X501269D01*
X503809Y427736D01*
X501269Y425196D01*
X503809D01*
X506349Y422656D01*
X497840D02*
X500380Y425196D01*
X502920D01*
X500380Y427736D01*
X502920Y430276D01*
X500380D01*
X497840Y432816D01*
X495300Y430276D01*
X492760D01*
X495300Y427736D01*
X492760Y425196D01*
X495300D01*
X497840Y422656D01*
X631190Y515366D02*
X633730Y517906D01*
X636270D01*
X633730Y520446D01*
X636270Y522986D01*
X633730D01*
X631190Y525526D01*
X628650Y522986D01*
X626110D01*
X628650Y520446D01*
X626110Y517906D01*
X628650D01*
X631190Y515366D01*
X529844Y491998D02*
X532384Y494538D01*
X534924D01*
X532384Y497078D01*
X534924Y499618D01*
X532384D01*
X529844Y502158D01*
X527304Y499618D01*
X524764D01*
X527304Y497078D01*
X524764Y494538D01*
X527304D01*
X529844Y491998D01*
X702056Y443484D02*
X704596Y446024D01*
X707136D01*
X704596Y448564D01*
X707136Y451104D01*
X704596D01*
X702056Y453644D01*
X699516Y451104D01*
X696976D01*
X699516Y448564D01*
X696976Y446024D01*
X699516D01*
X702056Y443484D01*
X158750Y389128D02*
X161290Y391668D01*
X163830D01*
X161290Y394208D01*
X163830Y396748D01*
X161290D01*
X158750Y399288D01*
X156210Y396748D01*
X153670D01*
X156210Y394208D01*
X153670Y391668D01*
X156210D01*
X158750Y389128D01*
Y399034D02*
X161290Y401574D01*
X163830D01*
X161290Y404114D01*
X163830Y406654D01*
X161290D01*
X158750Y409194D01*
X156210Y406654D01*
X153670D01*
X156210Y404114D01*
X153670Y401574D01*
X156210D01*
X158750Y399034D01*
Y409956D02*
X161290Y412496D01*
X163830D01*
X161290Y415036D01*
X163830Y417576D01*
X161290D01*
X158750Y420116D01*
X156210Y417576D01*
X153670D01*
X156210Y415036D01*
X153670Y412496D01*
X156210D01*
X158750Y409956D01*
Y420370D02*
X161290Y422910D01*
X163830D01*
X161290Y425450D01*
X163830Y427990D01*
X161290D01*
X158750Y430530D01*
X156210Y427990D01*
X153670D01*
X156210Y425450D01*
X153670Y422910D01*
X156210D01*
X158750Y420370D01*
X147066D02*
X149606Y422910D01*
X152146D01*
X149606Y425450D01*
X152146Y427990D01*
X149606D01*
X147066Y430530D01*
X144526Y427990D01*
X141986D01*
X144526Y425450D01*
X141986Y422910D01*
X144526D01*
X147066Y420370D01*
Y409956D02*
X149606Y412496D01*
X152146D01*
X149606Y415036D01*
X152146Y417576D01*
X149606D01*
X147066Y420116D01*
X144526Y417576D01*
X141986D01*
X144526Y415036D01*
X141986Y412496D01*
X144526D01*
X147066Y409956D01*
Y399034D02*
X149606Y401574D01*
X152146D01*
X149606Y404114D01*
X152146Y406654D01*
X149606D01*
X147066Y409194D01*
X144526Y406654D01*
X141986D01*
X144526Y404114D01*
X141986Y401574D01*
X144526D01*
X147066Y399034D01*
Y389128D02*
X149606Y391668D01*
X152146D01*
X149606Y394208D01*
X152146Y396748D01*
X149606D01*
X147066Y399288D01*
X144526Y396748D01*
X141986D01*
X144526Y394208D01*
X141986Y391668D01*
X144526D01*
X147066Y389128D01*
X696214Y256032D02*
X698754Y258572D01*
X701294D01*
X698754Y261112D01*
X701294Y263652D01*
X698754D01*
X696214Y266192D01*
X693674Y263652D01*
X691134D01*
X693674Y261112D01*
X691134Y258572D01*
X693674D01*
X696214Y256032D01*
Y265938D02*
X698754Y268478D01*
X701294D01*
X698754Y271018D01*
X701294Y273558D01*
X698754D01*
X696214Y276098D01*
X693674Y273558D01*
X691134D01*
X693674Y271018D01*
X691134Y268478D01*
X693674D01*
X696214Y265938D01*
Y276860D02*
X698754Y279400D01*
X701294D01*
X698754Y281940D01*
X701294Y284480D01*
X698754D01*
X696214Y287020D01*
X693674Y284480D01*
X691134D01*
X693674Y281940D01*
X691134Y279400D01*
X693674D01*
X696214Y276860D01*
Y287274D02*
X698754Y289814D01*
X701294D01*
X698754Y292354D01*
X701294Y294894D01*
X698754D01*
X696214Y297434D01*
X693674Y294894D01*
X691134D01*
X693674Y292354D01*
X691134Y289814D01*
X693674D01*
X696214Y287274D01*
X707898D02*
X710438Y289814D01*
X712978D01*
X710438Y292354D01*
X712978Y294894D01*
X710438D01*
X707898Y297434D01*
X705358Y294894D01*
X702818D01*
X705358Y292354D01*
X702818Y289814D01*
X705358D01*
X707898Y287274D01*
Y276860D02*
X710438Y279400D01*
X712978D01*
X710438Y281940D01*
X712978Y284480D01*
X710438D01*
X707898Y287020D01*
X705358Y284480D01*
X702818D01*
X705358Y281940D01*
X702818Y279400D01*
X705358D01*
X707898Y276860D01*
Y265938D02*
X710438Y268478D01*
X712978D01*
X710438Y271018D01*
X712978Y273558D01*
X710438D01*
X707898Y276098D01*
X705358Y273558D01*
X702818D01*
X705358Y271018D01*
X702818Y268478D01*
X705358D01*
X707898Y265938D01*
Y256032D02*
X710438Y258572D01*
X712978D01*
X710438Y261112D01*
X712978Y263652D01*
X710438D01*
X707898Y266192D01*
X705358Y263652D01*
X702818D01*
X705358Y261112D01*
X702818Y258572D01*
X705358D01*
X707898Y256032D01*
X650240Y160528D02*
X652780Y163068D01*
X655320D01*
X652780Y165608D01*
X655320Y168148D01*
X652780D01*
X650240Y170688D01*
X647700Y168148D01*
X645160D01*
X647700Y165608D01*
X645160Y163068D01*
X647700D01*
X650240Y160528D01*
X807212Y114554D02*
X809752Y117094D01*
X812292D01*
X809752Y119634D01*
X812292Y122174D01*
X809752D01*
X807212Y124714D01*
X804672Y122174D01*
X802132D01*
X804672Y119634D01*
X802132Y117094D01*
X804672D01*
X807212Y114554D01*
X564388Y399288D02*
X566928Y401828D01*
X569468D01*
X566928Y404368D01*
X569468Y406908D01*
X566928D01*
X564388Y409448D01*
X561848Y406908D01*
X559308D01*
X561848Y404368D01*
X559308Y401828D01*
X561848D01*
X564388Y399288D01*
X593852Y173990D02*
X596392Y176530D01*
X598932D01*
X596392Y179070D01*
X598932Y181610D01*
X596392D01*
X593852Y184150D01*
X591312Y181610D01*
X588772D01*
X591312Y179070D01*
X588772Y176530D01*
X591312D01*
X593852Y173990D01*
X699262Y162306D02*
X701802Y164846D01*
X704342D01*
X701802Y167386D01*
X704342Y169926D01*
X701802D01*
X699262Y172466D01*
X696722Y169926D01*
X694182D01*
X696722Y167386D01*
X694182Y164846D01*
X696722D01*
X699262Y162306D01*
X750570Y195834D02*
X753110Y198374D01*
X755650D01*
X753110Y200914D01*
X755650Y203454D01*
X753110D01*
X750570Y205994D01*
X748030Y203454D01*
X745490D01*
X748030Y200914D01*
X745490Y198374D01*
X748030D01*
X750570Y195834D01*
X801370Y109982D02*
X803910Y112522D01*
X806450D01*
X803910Y115062D01*
X806450Y117602D01*
X803910D01*
X801370Y120142D01*
X798830Y117602D01*
X796290D01*
X798830Y115062D01*
X796290Y112522D01*
X798830D01*
X801370Y109982D01*
X254262Y403720D02*
X256802Y406260D01*
X259342D01*
X256802Y408800D01*
X259342Y411340D01*
X256802D01*
X254262Y413880D01*
X251722Y411340D01*
X249182D01*
X251722Y408800D01*
X249182Y406260D01*
X251722D01*
X254262Y403720D01*
X342646Y534670D02*
X345186Y537210D01*
X347726D01*
X345186Y539750D01*
X347726Y542290D01*
X345186D01*
X342646Y544830D01*
X340106Y542290D01*
X337566D01*
X340106Y539750D01*
X337566Y537210D01*
X340106D01*
X342646Y534670D01*
X330962Y534924D02*
X333502Y537464D01*
X336042D01*
X333502Y540004D01*
X336042Y542544D01*
X333502D01*
X330962Y545084D01*
X328422Y542544D01*
X325882D01*
X328422Y540004D01*
X325882Y537464D01*
X328422D01*
X330962Y534924D01*
X479552Y508762D02*
X482092Y511302D01*
X484632D01*
X482092Y513842D01*
X484632Y516382D01*
X482092D01*
X479552Y518922D01*
X477012Y516382D01*
X474472D01*
X477012Y513842D01*
X474472Y511302D01*
X477012D01*
X479552Y508762D01*
X466598Y509016D02*
X469138Y511556D01*
X471678D01*
X469138Y514096D01*
X471678Y516636D01*
X469138D01*
X466598Y519176D01*
X464058Y516636D01*
X461518D01*
X464058Y514096D01*
X461518Y511556D01*
X464058D01*
X466598Y509016D01*
X653542Y517398D02*
X656082Y519938D01*
X658622D01*
X656082Y522478D01*
X658622Y525018D01*
X656082D01*
X653542Y527558D01*
X651002Y525018D01*
X648462D01*
X651002Y522478D01*
X648462Y519938D01*
X651002D01*
X653542Y517398D01*
X611378Y389636D02*
X613918Y392176D01*
X616458D01*
X613918Y394716D01*
X616458Y397256D01*
X613918D01*
X611378Y399796D01*
X608838Y397256D01*
X606298D01*
X608838Y394716D01*
X606298Y392176D01*
X608838D01*
X611378Y389636D01*
X587502Y389890D02*
X590042Y392430D01*
X592582D01*
X590042Y394970D01*
X592582Y397510D01*
X590042D01*
X587502Y400050D01*
X584962Y397510D01*
X582422D01*
X584962Y394970D01*
X582422Y392430D01*
X584962D01*
X587502Y389890D01*
X574802Y114808D02*
X577342Y117348D01*
X579882D01*
X577342Y119888D01*
X579882Y122428D01*
X577342D01*
X574802Y124968D01*
X572262Y122428D01*
X569722D01*
X572262Y119888D01*
X569722Y117348D01*
X572262D01*
X574802Y114808D01*
X571754Y129286D02*
X574294Y131826D01*
X576834D01*
X574294Y134366D01*
X576834Y136906D01*
X574294D01*
X571754Y139446D01*
X569214Y136906D01*
X566674D01*
X569214Y134366D01*
X566674Y131826D01*
X569214D01*
X571754Y129286D01*
X439420Y46228D02*
X441960Y48768D01*
X444500D01*
X441960Y51308D01*
X444500Y53848D01*
X441960D01*
X439420Y56388D01*
X436880Y53848D01*
X434340D01*
X436880Y51308D01*
X434340Y48768D01*
X436880D01*
X439420Y46228D01*
X440182Y72136D02*
X442722Y74676D01*
X445262D01*
X442722Y77216D01*
X445262Y79756D01*
X442722D01*
X440182Y82296D01*
X437642Y79756D01*
X435102D01*
X437642Y77216D01*
X435102Y74676D01*
X437642D01*
X440182Y72136D01*
X449834Y52578D02*
X452374Y55118D01*
X454914D01*
X452374Y57658D01*
X454914Y60198D01*
X452374D01*
X449834Y62738D01*
X447294Y60198D01*
X444754D01*
X447294Y57658D01*
X444754Y55118D01*
X447294D01*
X449834Y52578D01*
X490260Y160822D02*
X492800Y163362D01*
X495340D01*
X492800Y165902D01*
X495340Y168442D01*
X492800D01*
X490260Y170982D01*
X487720Y168442D01*
X485180D01*
X487720Y165902D01*
X485180Y163362D01*
X487720D01*
X490260Y160822D01*
X505206Y51308D02*
X507746Y53848D01*
X510286D01*
X507746Y56388D01*
X510286Y58928D01*
X507746D01*
X505206Y61468D01*
X502666Y58928D01*
X500126D01*
X502666Y56388D01*
X500126Y53848D01*
X502666D01*
X505206Y51308D01*
X708660Y372364D02*
X711200Y374904D01*
X713740D01*
X711200Y377444D01*
X713740Y379984D01*
X711200D01*
X708660Y382524D01*
X706120Y379984D01*
X703580D01*
X706120Y377444D01*
X703580Y374904D01*
X706120D01*
X708660Y372364D01*
X524256Y52324D02*
X526796Y54864D01*
X529336D01*
X526796Y57404D01*
X529336Y59944D01*
X526796D01*
X524256Y62484D01*
X521716Y59944D01*
X519176D01*
X521716Y57404D01*
X519176Y54864D01*
X521716D01*
X524256Y52324D01*
X561340Y25908D02*
X563880Y28448D01*
X566420D01*
X563880Y30988D01*
X566420Y33528D01*
X563880D01*
X561340Y36068D01*
X558800Y33528D01*
X556260D01*
X558800Y30988D01*
X556260Y28448D01*
X558800D01*
X561340Y25908D01*
X373634Y55880D02*
X376174Y58420D01*
X378714D01*
X376174Y60960D01*
X378714Y63500D01*
X376174D01*
X373634Y66040D01*
X371094Y63500D01*
X368554D01*
X371094Y60960D01*
X368554Y58420D01*
X371094D01*
X373634Y55880D01*
X476250Y188468D02*
X478790Y191008D01*
X481330D01*
X478790Y193548D01*
X481330Y196088D01*
X478790D01*
X476250Y198628D01*
X473710Y196088D01*
X471170D01*
X473710Y193548D01*
X471170Y191008D01*
X473710D01*
X476250Y188468D01*
X548132Y135128D02*
X550672Y137668D01*
X553212D01*
X550672Y140208D01*
X553212Y142748D01*
X550672D01*
X548132Y145288D01*
X545592Y142748D01*
X543052D01*
X545592Y140208D01*
X543052Y137668D01*
X545592D01*
X548132Y135128D01*
X548894Y77978D02*
X551434Y80518D01*
X553974D01*
X551434Y83058D01*
X553974Y85598D01*
X551434D01*
X548894Y88138D01*
X546354Y85598D01*
X543814D01*
X546354Y83058D01*
X543814Y80518D01*
X546354D01*
X548894Y77978D01*
X122936Y181864D02*
X125476Y184404D01*
X128016D01*
X125476Y186944D01*
X128016Y189484D01*
X125476D01*
X122936Y192024D01*
X120396Y189484D01*
X117856D01*
X120396Y186944D01*
X117856Y184404D01*
X120396D01*
X122936Y181864D01*
X442976Y144526D02*
X445516Y147066D01*
X448056D01*
X445516Y149606D01*
X448056Y152146D01*
X445516D01*
X442976Y154686D01*
X440436Y152146D01*
X437896D01*
X440436Y149606D01*
X437896Y147066D01*
X440436D01*
X442976Y144526D01*
X293116Y136906D02*
X295656Y139446D01*
X298196D01*
X295656Y141986D01*
X298196Y144526D01*
X295656D01*
X293116Y147066D01*
X290576Y144526D01*
X288036D01*
X290576Y141986D01*
X288036Y139446D01*
X290576D01*
X293116Y136906D01*
X272542Y224426D02*
X275082Y226966D01*
X277622D01*
X275082Y229506D01*
X277622Y232046D01*
X275082D01*
X272542Y234586D01*
X270002Y232046D01*
X267462D01*
X270002Y229506D01*
X267462Y226966D01*
X270002D01*
X272542Y224426D01*
X271272Y211426D02*
X273812Y213966D01*
X276352D01*
X273812Y216506D01*
X276352Y219046D01*
X273812D01*
X271272Y221586D01*
X268732Y219046D01*
X266192D01*
X268732Y216506D01*
X266192Y213966D01*
X268732D01*
X271272Y211426D01*
X271018Y185674D02*
X273558Y188214D01*
X276098D01*
X273558Y190754D01*
X276098Y193294D01*
X273558D01*
X271018Y195834D01*
X268478Y193294D01*
X265938D01*
X268478Y190754D01*
X265938Y188214D01*
X268478D01*
X271018Y185674D01*
X271272Y198628D02*
X273812Y201168D01*
X276352D01*
X273812Y203708D01*
X276352Y206248D01*
X273812D01*
X271272Y208788D01*
X268732Y206248D01*
X266192D01*
X268732Y203708D01*
X266192Y201168D01*
X268732D01*
X271272Y198628D01*
X334518Y96924D02*
X337058Y99464D01*
X339598D01*
X337058Y102004D01*
X339598Y104544D01*
X337058D01*
X334518Y107084D01*
X331978Y104544D01*
X329438D01*
X331978Y102004D01*
X329438Y99464D01*
X331978D01*
X334518Y96924D01*
X344678Y90424D02*
X347218Y92964D01*
X349758D01*
X347218Y95504D01*
X349758Y98044D01*
X347218D01*
X344678Y100584D01*
X342138Y98044D01*
X339598D01*
X342138Y95504D01*
X339598Y92964D01*
X342138D01*
X344678Y90424D01*
X141732Y196342D02*
X144272Y198882D01*
X146812D01*
X144272Y201422D01*
X146812Y203962D01*
X144272D01*
X141732Y206502D01*
X139192Y203962D01*
X136652D01*
X139192Y201422D01*
X136652Y198882D01*
X139192D01*
X141732Y196342D01*
X154178Y209550D02*
X156718Y212090D01*
X159258D01*
X156718Y214630D01*
X159258Y217170D01*
X156718D01*
X154178Y219710D01*
X151638Y217170D01*
X149098D01*
X151638Y214630D01*
X149098Y212090D01*
X151638D01*
X154178Y209550D01*
X166370Y223520D02*
X168910Y226060D01*
X171450D01*
X168910Y228600D01*
X171450Y231140D01*
X168910D01*
X166370Y233680D01*
X163830Y231140D01*
X161290D01*
X163830Y228600D01*
X161290Y226060D01*
X163830D01*
X166370Y223520D01*
X196262Y344380D02*
X198802Y346920D01*
X201342D01*
X198802Y349460D01*
X201342Y352000D01*
X198802D01*
X196262Y354540D01*
X193722Y352000D01*
X191182D01*
X193722Y349460D01*
X191182Y346920D01*
X193722D01*
X196262Y344380D01*
X674370Y517906D02*
X676910Y520446D01*
X679450D01*
X676910Y522986D01*
X679450Y525526D01*
X676910D01*
X674370Y528066D01*
X671830Y525526D01*
X669290D01*
X671830Y522986D01*
X669290Y520446D01*
X671830D01*
X674370Y517906D01*
D78*
X298704Y19050D02*
G03*
X298704Y19050I-5080J0D01*
G01*
X324104D02*
G03*
X324104Y19050I-5080J0D01*
G01*
X349504D02*
G03*
X349504Y19050I-5080J0D01*
G01*
X374904D02*
G03*
X374904Y19050I-5080J0D01*
G01*
X400304D02*
G03*
X400304Y19050I-5080J0D01*
G01*
X918210Y110490D02*
G03*
X918210Y110490I-5080J0D01*
G01*
Y135890D02*
G03*
X918210Y135890I-5080J0D01*
G01*
M02*
