G04*
G04 #@! TF.GenerationSoftware,Altium Limited,Altium Designer,23.8.1 (32)*
G04*
G04 Layer_Physical_Order=1*
G04 Layer_Color=255*
%FSLAX44Y44*%
%MOMM*%
G71*
G04*
G04 #@! TF.SameCoordinates,5CA60E89-82B3-479B-9089-D34F769FB2F0*
G04*
G04*
G04 #@! TF.FilePolarity,Positive*
G04*
G01*
G75*
%ADD14C,0.2000*%
G04:AMPARAMS|DCode=20|XSize=2.07mm|YSize=2.06mm|CornerRadius=0.103mm|HoleSize=0mm|Usage=FLASHONLY|Rotation=270.000|XOffset=0mm|YOffset=0mm|HoleType=Round|Shape=RoundedRectangle|*
%AMROUNDEDRECTD20*
21,1,2.0700,1.8540,0,0,270.0*
21,1,1.8640,2.0600,0,0,270.0*
1,1,0.2060,-0.9270,-0.9320*
1,1,0.2060,-0.9270,0.9320*
1,1,0.2060,0.9270,0.9320*
1,1,0.2060,0.9270,-0.9320*
%
%ADD20ROUNDEDRECTD20*%
G04:AMPARAMS|DCode=21|XSize=1.56mm|YSize=1.22mm|CornerRadius=0.061mm|HoleSize=0mm|Usage=FLASHONLY|Rotation=270.000|XOffset=0mm|YOffset=0mm|HoleType=Round|Shape=RoundedRectangle|*
%AMROUNDEDRECTD21*
21,1,1.5600,1.0980,0,0,270.0*
21,1,1.4380,1.2200,0,0,270.0*
1,1,0.1220,-0.5490,-0.7190*
1,1,0.1220,-0.5490,0.7190*
1,1,0.1220,0.5490,0.7190*
1,1,0.1220,0.5490,-0.7190*
%
%ADD21ROUNDEDRECTD21*%
G04:AMPARAMS|DCode=22|XSize=1.56mm|YSize=1.22mm|CornerRadius=0.061mm|HoleSize=0mm|Usage=FLASHONLY|Rotation=0.000|XOffset=0mm|YOffset=0mm|HoleType=Round|Shape=RoundedRectangle|*
%AMROUNDEDRECTD22*
21,1,1.5600,1.0980,0,0,0.0*
21,1,1.4380,1.2200,0,0,0.0*
1,1,0.1220,0.7190,-0.5490*
1,1,0.1220,-0.7190,-0.5490*
1,1,0.1220,-0.7190,0.5490*
1,1,0.1220,0.7190,0.5490*
%
%ADD22ROUNDEDRECTD22*%
%ADD23R,5.7000X2.0000*%
G04:AMPARAMS|DCode=24|XSize=0.45mm|YSize=2.15mm|CornerRadius=0.0113mm|HoleSize=0mm|Usage=FLASHONLY|Rotation=270.000|XOffset=0mm|YOffset=0mm|HoleType=Round|Shape=RoundedRectangle|*
%AMROUNDEDRECTD24*
21,1,0.4500,2.1275,0,0,270.0*
21,1,0.4275,2.1500,0,0,270.0*
1,1,0.0225,-1.0638,-0.2138*
1,1,0.0225,-1.0638,0.2138*
1,1,0.0225,1.0638,0.2138*
1,1,0.0225,1.0638,-0.2138*
%
%ADD24ROUNDEDRECTD24*%
%ADD25R,2.4000X3.1000*%
%ADD26R,1.0000X0.5500*%
G04:AMPARAMS|DCode=27|XSize=1mm|YSize=0.22mm|CornerRadius=0.0055mm|HoleSize=0mm|Usage=FLASHONLY|Rotation=180.000|XOffset=0mm|YOffset=0mm|HoleType=Round|Shape=RoundedRectangle|*
%AMROUNDEDRECTD27*
21,1,1.0000,0.2090,0,0,180.0*
21,1,0.9890,0.2200,0,0,180.0*
1,1,0.0110,-0.4945,0.1045*
1,1,0.0110,0.4945,0.1045*
1,1,0.0110,0.4945,-0.1045*
1,1,0.0110,-0.4945,-0.1045*
%
%ADD27ROUNDEDRECTD27*%
G04:AMPARAMS|DCode=28|XSize=1mm|YSize=0.22mm|CornerRadius=0.0055mm|HoleSize=0mm|Usage=FLASHONLY|Rotation=270.000|XOffset=0mm|YOffset=0mm|HoleType=Round|Shape=RoundedRectangle|*
%AMROUNDEDRECTD28*
21,1,1.0000,0.2090,0,0,270.0*
21,1,0.9890,0.2200,0,0,270.0*
1,1,0.0110,-0.1045,-0.4945*
1,1,0.0110,-0.1045,0.4945*
1,1,0.0110,0.1045,0.4945*
1,1,0.0110,0.1045,-0.4945*
%
%ADD28ROUNDEDRECTD28*%
G04:AMPARAMS|DCode=29|XSize=0.95mm|YSize=2.15mm|CornerRadius=0.0475mm|HoleSize=0mm|Usage=FLASHONLY|Rotation=90.000|XOffset=0mm|YOffset=0mm|HoleType=Round|Shape=RoundedRectangle|*
%AMROUNDEDRECTD29*
21,1,0.9500,2.0550,0,0,90.0*
21,1,0.8550,2.1500,0,0,90.0*
1,1,0.0950,1.0275,0.4275*
1,1,0.0950,1.0275,-0.4275*
1,1,0.0950,-1.0275,-0.4275*
1,1,0.0950,-1.0275,0.4275*
%
%ADD29ROUNDEDRECTD29*%
G04:AMPARAMS|DCode=30|XSize=3.25mm|YSize=2.15mm|CornerRadius=0.1075mm|HoleSize=0mm|Usage=FLASHONLY|Rotation=270.000|XOffset=0mm|YOffset=0mm|HoleType=Round|Shape=RoundedRectangle|*
%AMROUNDEDRECTD30*
21,1,3.2500,1.9350,0,0,270.0*
21,1,3.0350,2.1500,0,0,270.0*
1,1,0.2150,-0.9675,-1.5175*
1,1,0.2150,-0.9675,1.5175*
1,1,0.2150,0.9675,1.5175*
1,1,0.2150,0.9675,-1.5175*
%
%ADD30ROUNDEDRECTD30*%
G04:AMPARAMS|DCode=31|XSize=0.6mm|YSize=1.55mm|CornerRadius=0.03mm|HoleSize=0mm|Usage=FLASHONLY|Rotation=270.000|XOffset=0mm|YOffset=0mm|HoleType=Round|Shape=RoundedRectangle|*
%AMROUNDEDRECTD31*
21,1,0.6000,1.4900,0,0,270.0*
21,1,0.5400,1.5500,0,0,270.0*
1,1,0.0600,-0.7450,-0.2700*
1,1,0.0600,-0.7450,0.2700*
1,1,0.0600,0.7450,0.2700*
1,1,0.0600,0.7450,-0.2700*
%
%ADD31ROUNDEDRECTD31*%
G04:AMPARAMS|DCode=32|XSize=2.95mm|YSize=0.75mm|CornerRadius=0.0188mm|HoleSize=0mm|Usage=FLASHONLY|Rotation=90.000|XOffset=0mm|YOffset=0mm|HoleType=Round|Shape=RoundedRectangle|*
%AMROUNDEDRECTD32*
21,1,2.9500,0.7125,0,0,90.0*
21,1,2.9125,0.7500,0,0,90.0*
1,1,0.0375,0.3563,1.4563*
1,1,0.0375,0.3563,-1.4563*
1,1,0.0375,-0.3563,-1.4563*
1,1,0.0375,-0.3563,1.4563*
%
%ADD32ROUNDEDRECTD32*%
G04:AMPARAMS|DCode=33|XSize=0.7mm|YSize=0.7mm|CornerRadius=0.0525mm|HoleSize=0mm|Usage=FLASHONLY|Rotation=90.000|XOffset=0mm|YOffset=0mm|HoleType=Round|Shape=RoundedRectangle|*
%AMROUNDEDRECTD33*
21,1,0.7000,0.5950,0,0,90.0*
21,1,0.5950,0.7000,0,0,90.0*
1,1,0.1050,0.2975,0.2975*
1,1,0.1050,0.2975,-0.2975*
1,1,0.1050,-0.2975,-0.2975*
1,1,0.1050,-0.2975,0.2975*
%
%ADD33ROUNDEDRECTD33*%
G04:AMPARAMS|DCode=34|XSize=2.6mm|YSize=3.2mm|CornerRadius=0.13mm|HoleSize=0mm|Usage=FLASHONLY|Rotation=180.000|XOffset=0mm|YOffset=0mm|HoleType=Round|Shape=RoundedRectangle|*
%AMROUNDEDRECTD34*
21,1,2.6000,2.9400,0,0,180.0*
21,1,2.3400,3.2000,0,0,180.0*
1,1,0.2600,-1.1700,1.4700*
1,1,0.2600,1.1700,1.4700*
1,1,0.2600,1.1700,-1.4700*
1,1,0.2600,-1.1700,-1.4700*
%
%ADD34ROUNDEDRECTD34*%
G04:AMPARAMS|DCode=35|XSize=2.6mm|YSize=3.2mm|CornerRadius=0.13mm|HoleSize=0mm|Usage=FLASHONLY|Rotation=90.000|XOffset=0mm|YOffset=0mm|HoleType=Round|Shape=RoundedRectangle|*
%AMROUNDEDRECTD35*
21,1,2.6000,2.9400,0,0,90.0*
21,1,2.3400,3.2000,0,0,90.0*
1,1,0.2600,1.4700,1.1700*
1,1,0.2600,1.4700,-1.1700*
1,1,0.2600,-1.4700,-1.1700*
1,1,0.2600,-1.4700,1.1700*
%
%ADD35ROUNDEDRECTD35*%
%ADD36R,2.7500X2.0000*%
%ADD37C,1.0000*%
%ADD38R,1.5500X0.2500*%
G04:AMPARAMS|DCode=39|XSize=1.27mm|YSize=2.54mm|CornerRadius=0.0318mm|HoleSize=0mm|Usage=FLASHONLY|Rotation=90.000|XOffset=0mm|YOffset=0mm|HoleType=Round|Shape=RoundedRectangle|*
%AMROUNDEDRECTD39*
21,1,1.2700,2.4765,0,0,90.0*
21,1,1.2065,2.5400,0,0,90.0*
1,1,0.0635,1.2383,0.6033*
1,1,0.0635,1.2383,-0.6033*
1,1,0.0635,-1.2383,-0.6033*
1,1,0.0635,-1.2383,0.6033*
%
%ADD39ROUNDEDRECTD39*%
%ADD40R,4.2000X2.2000*%
%ADD41R,2.2000X4.2000*%
%ADD68C,0.5000*%
%ADD69C,1.0000*%
%ADD70C,0.4000*%
%ADD71C,0.6000*%
%ADD72C,2.0000*%
%ADD73C,1.2000*%
%ADD74O,1.5000X2.1000*%
%ADD75O,3.0000X2.0000*%
%ADD76C,1.8000*%
%ADD77C,0.6000*%
G36*
X543127Y553632D02*
X542633Y553302D01*
X542633Y553302D01*
X539118Y549787D01*
X538234Y548464D01*
X537924Y546903D01*
X536708Y546807D01*
X533412D01*
X532394Y546605D01*
X531530Y546028D01*
X530953Y545164D01*
X530826Y544524D01*
X385318D01*
X383491Y544284D01*
X381788Y543578D01*
X380326Y542456D01*
X373824Y535954D01*
X372701Y534492D01*
X371996Y532789D01*
X371756Y530962D01*
Y511111D01*
X366433D01*
X365529Y510932D01*
X364763Y510419D01*
X364333Y509776D01*
X356396D01*
Y511421D01*
X356708Y511629D01*
X357285Y512492D01*
X357487Y513510D01*
Y524063D01*
X362400Y528976D01*
X363395Y530465D01*
X363744Y532220D01*
Y536471D01*
X364757Y537484D01*
X365679Y539080D01*
X366156Y540860D01*
Y542704D01*
X365679Y544484D01*
X364757Y546080D01*
X363454Y547383D01*
X361858Y548305D01*
X360078Y548782D01*
X358234D01*
X356454Y548305D01*
X354858Y547383D01*
X353555Y546080D01*
X352633Y544484D01*
X352156Y542704D01*
Y540860D01*
X352633Y539080D01*
X353555Y537484D01*
X354568Y536471D01*
Y534121D01*
X350998Y530551D01*
X343846D01*
X342828Y530349D01*
X341964Y529772D01*
X341387Y528909D01*
X341185Y527890D01*
Y513510D01*
X341387Y512492D01*
X341964Y511629D01*
X342276Y511421D01*
Y508390D01*
X341964Y508182D01*
X341387Y507319D01*
X341185Y506300D01*
Y491920D01*
X341387Y490902D01*
X341964Y490039D01*
X342276Y489831D01*
Y486546D01*
X341964Y486338D01*
X341387Y485475D01*
X341185Y484456D01*
Y470076D01*
X340127Y468884D01*
X281887D01*
Y554902D01*
X542742D01*
X543127Y553632D01*
D02*
G37*
G36*
X828040Y461888D02*
X727084D01*
X726876Y462200D01*
X726012Y462776D01*
X724994Y462979D01*
X710614D01*
X709596Y462776D01*
X708732Y462200D01*
X708156Y461336D01*
X707953Y460318D01*
Y450712D01*
X706683Y450459D01*
X706295Y451396D01*
X705182Y452509D01*
X705257Y453787D01*
X705286Y453806D01*
X705863Y454670D01*
X706065Y455688D01*
Y466668D01*
X705863Y467686D01*
X705286Y468550D01*
X704422Y469127D01*
X703404Y469329D01*
X689024D01*
X688006Y469127D01*
X687142Y468550D01*
X686565Y467686D01*
X686363Y466668D01*
Y459515D01*
X685038Y458190D01*
X677716D01*
X677530Y458153D01*
X666926D01*
X665908Y457951D01*
X665044Y457374D01*
X664467Y456510D01*
X664265Y455492D01*
Y444512D01*
X664467Y443494D01*
X665044Y442630D01*
X665908Y442053D01*
X666926Y441851D01*
X681306D01*
X682324Y442053D01*
X683188Y442630D01*
X683764Y443494D01*
X683967Y444512D01*
Y449014D01*
X686938D01*
X688694Y449363D01*
X690182Y450358D01*
X692851Y453027D01*
X697652D01*
X698178Y451757D01*
X697817Y451396D01*
X697056Y449559D01*
Y447569D01*
X697817Y445732D01*
X699224Y444325D01*
X701061Y443564D01*
X703051D01*
X704888Y444325D01*
X706295Y445732D01*
X707056Y447569D01*
Y447833D01*
X708326Y448064D01*
X708732Y447456D01*
X709596Y446879D01*
X710614Y446677D01*
X724994D01*
X726012Y446879D01*
X726876Y447456D01*
X727084Y447768D01*
X828040D01*
Y434848D01*
X645414Y434848D01*
X627888Y452374D01*
X590042D01*
X571500Y470916D01*
X535178D01*
X526288Y479806D01*
X366887D01*
X358660Y471580D01*
X357487Y472066D01*
Y484456D01*
X357285Y485475D01*
X356708Y486338D01*
X356396Y486546D01*
Y489831D01*
X356708Y490039D01*
X357285Y490902D01*
X357487Y491920D01*
Y495656D01*
X364333D01*
X364763Y495013D01*
X365529Y494501D01*
X366433Y494321D01*
X391199D01*
X392103Y494501D01*
X392869Y495013D01*
X393382Y495779D01*
X393561Y496684D01*
Y508749D01*
X393382Y509653D01*
X392869Y510419D01*
X392103Y510932D01*
X391199Y511111D01*
X385876D01*
Y528037D01*
X388242Y530404D01*
X530751D01*
Y529766D01*
X530953Y528748D01*
X531530Y527884D01*
X532394Y527308D01*
X533412Y527105D01*
X533804D01*
Y513414D01*
X534192Y511463D01*
X535297Y509809D01*
X539102Y506004D01*
X540756Y504899D01*
X542707Y504511D01*
X546149D01*
Y485812D01*
X546319Y484958D01*
X546802Y484234D01*
X547526Y483751D01*
X548380Y483581D01*
X555504D01*
X556358Y483751D01*
X557082Y484234D01*
X557565Y484958D01*
X557735Y485812D01*
Y504549D01*
X559005Y505075D01*
X566590Y497490D01*
X567913Y496606D01*
X569474Y496296D01*
X571549D01*
Y485812D01*
X571719Y484958D01*
X572202Y484234D01*
X572926Y483751D01*
X573779Y483581D01*
X580905D01*
X581669Y483733D01*
X588861D01*
X604476Y468118D01*
X604476Y468118D01*
X605799Y467234D01*
X607360Y466924D01*
X607360Y466924D01*
X642675D01*
Y465512D01*
X642878Y464494D01*
X643454Y463630D01*
X644318Y463053D01*
X645336Y462851D01*
X659716D01*
X660734Y463053D01*
X661598Y463630D01*
X662175Y464494D01*
X662377Y465512D01*
Y466924D01*
X664265D01*
Y465512D01*
X664467Y464494D01*
X665044Y463630D01*
X665908Y463053D01*
X666926Y462851D01*
X681306D01*
X682324Y463053D01*
X683188Y463630D01*
X683764Y464494D01*
X683967Y465512D01*
Y476492D01*
X683764Y477510D01*
X683188Y478374D01*
X682324Y478951D01*
X681306Y479153D01*
X666926D01*
X665908Y478951D01*
X665044Y478374D01*
X664467Y477510D01*
X664265Y476492D01*
Y475080D01*
X662377D01*
Y476492D01*
X662175Y477510D01*
X661598Y478374D01*
X660734Y478951D01*
X659716Y479153D01*
X650907D01*
X650398Y480423D01*
X650436Y480459D01*
X659970D01*
X660988Y480662D01*
X661852Y481238D01*
X662429Y482102D01*
X662631Y483120D01*
Y484022D01*
X664519D01*
Y483120D01*
X664722Y482102D01*
X665298Y481238D01*
X666162Y480661D01*
X667180Y480459D01*
X681560D01*
X682578Y480661D01*
X683442Y481238D01*
X684018Y482102D01*
X684221Y483120D01*
Y494100D01*
X684018Y495118D01*
X683442Y495982D01*
X682578Y496558D01*
X681560Y496761D01*
X667180D01*
X666162Y496558D01*
X665298Y495982D01*
X664722Y495118D01*
X664519Y494100D01*
Y493198D01*
X662631D01*
Y494100D01*
X662429Y495118D01*
X661852Y495982D01*
X660988Y496559D01*
X659970Y496761D01*
X645590D01*
X644572Y496559D01*
X643708Y495982D01*
X643131Y495118D01*
X642929Y494100D01*
Y489598D01*
X638239D01*
X636483Y489249D01*
X634995Y488254D01*
X630401Y483660D01*
X614944D01*
X608580Y490024D01*
Y498271D01*
X611063D01*
X612819Y498620D01*
X614307Y499615D01*
X617540Y502848D01*
X618535Y504336D01*
X618884Y506092D01*
Y527105D01*
X623386D01*
X624404Y527308D01*
X625268Y527884D01*
X625845Y528748D01*
X626047Y529766D01*
Y544146D01*
X625845Y545164D01*
X625268Y546028D01*
X624404Y546605D01*
X623386Y546807D01*
X612406D01*
X611388Y546605D01*
X610524Y546028D01*
X609948Y545164D01*
X609745Y544146D01*
Y533542D01*
X609708Y533356D01*
Y515549D01*
X608438Y515424D01*
X608365Y515790D01*
X607882Y516514D01*
X607158Y516997D01*
X606305Y517167D01*
X599179D01*
X598326Y516997D01*
X597602Y516514D01*
X597119Y515790D01*
X596949Y514936D01*
Y488840D01*
X595776Y488354D01*
X593434Y490695D01*
X592111Y491579D01*
X590550Y491890D01*
X590550Y491890D01*
X583135D01*
Y514936D01*
X582965Y515790D01*
X582482Y516514D01*
X581758Y516997D01*
X580905Y517167D01*
X573779D01*
X572926Y516997D01*
X572202Y516514D01*
X571719Y515790D01*
X571549Y514936D01*
Y505863D01*
X570279Y505336D01*
X565418Y510197D01*
Y527110D01*
X566410Y527308D01*
X567274Y527884D01*
X567851Y528748D01*
X568053Y529766D01*
Y544146D01*
X567869Y545070D01*
X567879Y545209D01*
X568593Y546340D01*
X569835D01*
X570626Y545237D01*
X570578Y545164D01*
X570375Y544146D01*
Y540292D01*
X570328Y540056D01*
X570375Y539820D01*
Y529766D01*
X570578Y528748D01*
X571154Y527884D01*
X572018Y527308D01*
X573036Y527105D01*
X584016D01*
X585034Y527308D01*
X585898Y527884D01*
X586475Y528748D01*
X586677Y529766D01*
Y544146D01*
X586475Y545164D01*
X585898Y546028D01*
X585034Y546604D01*
X584016Y546807D01*
X580720D01*
X579504Y546903D01*
X579194Y548464D01*
X578310Y549787D01*
X578310Y549787D01*
X574795Y553302D01*
X574301Y553632D01*
X574686Y554902D01*
X692270D01*
X692846Y553771D01*
X690815Y550975D01*
X687949Y545350D01*
X685998Y539345D01*
X685010Y533109D01*
Y526795D01*
X685998Y520559D01*
X687949Y514554D01*
X690815Y508929D01*
X694526Y503821D01*
X698991Y499356D01*
X704099Y495645D01*
X709724Y492779D01*
X715729Y490828D01*
X721965Y489840D01*
X728279D01*
X734515Y490828D01*
X740520Y492779D01*
X746145Y495645D01*
X751253Y499356D01*
X755718Y503821D01*
X759429Y508929D01*
X762295Y514554D01*
X764246Y520559D01*
X765234Y526795D01*
Y533109D01*
X764246Y539345D01*
X762295Y545350D01*
X759429Y550975D01*
X757398Y553771D01*
X757974Y554902D01*
X828040D01*
Y461888D01*
D02*
G37*
G36*
X192846Y553771D02*
X190815Y550975D01*
X187949Y545350D01*
X185998Y539345D01*
X185010Y533109D01*
Y526795D01*
X185998Y520559D01*
X187949Y514554D01*
X190815Y508929D01*
X194526Y503821D01*
X198991Y499356D01*
X204099Y495645D01*
X209724Y492779D01*
X215729Y490828D01*
X221965Y489840D01*
X228279D01*
X234515Y490828D01*
X240520Y492779D01*
X246145Y495645D01*
X251253Y499356D01*
X255718Y503821D01*
X259429Y508929D01*
X259877Y509809D01*
X261112Y509512D01*
Y453644D01*
X277368Y437388D01*
X412860D01*
Y399305D01*
Y391828D01*
X365994D01*
Y386888D01*
X355886D01*
X349960Y392814D01*
Y400288D01*
X349720Y402116D01*
X349015Y403818D01*
X347892Y405281D01*
X342035Y411138D01*
X340572Y412261D01*
X338870Y412966D01*
X337042Y413206D01*
X327198D01*
Y431610D01*
X301198D01*
Y413968D01*
X292608D01*
X290781Y413728D01*
X289078Y413022D01*
X287616Y411900D01*
X280933Y405218D01*
X261322D01*
Y414530D01*
X261082Y416357D01*
X260376Y418060D01*
X259254Y419523D01*
X256659Y422118D01*
Y425774D01*
X256457Y426792D01*
X255880Y427656D01*
X255016Y428233D01*
X253998Y428435D01*
X239618D01*
X238600Y428233D01*
X237736Y427656D01*
X237528Y427344D01*
X234498D01*
X234290Y427656D01*
X233426Y428233D01*
X232408Y428435D01*
X218028D01*
X217010Y428233D01*
X216146Y427656D01*
X215569Y426792D01*
X215367Y425774D01*
Y414794D01*
X215569Y413776D01*
X216146Y412912D01*
X217010Y412336D01*
X218028Y412133D01*
X232408D01*
X233426Y412336D01*
X234290Y412912D01*
X234498Y413224D01*
X237528D01*
X237736Y412912D01*
X238600Y412336D01*
X239618Y412133D01*
X246674D01*
X247202Y411605D01*
Y404957D01*
X243987D01*
X243021Y404764D01*
X242203Y404217D01*
X241656Y403399D01*
X241464Y402433D01*
Y393883D01*
X241656Y392917D01*
X242203Y392099D01*
X243021Y391552D01*
X243987Y391359D01*
X252383D01*
X252435Y391338D01*
X254262Y391098D01*
X283858D01*
X285685Y391338D01*
X287388Y392043D01*
X288850Y393166D01*
X295532Y399848D01*
X301198D01*
Y385610D01*
X327198D01*
Y399086D01*
X334118D01*
X335840Y397364D01*
Y389890D01*
X336080Y388063D01*
X336786Y386360D01*
X337908Y384898D01*
X347970Y374836D01*
X349432Y373713D01*
X351135Y373008D01*
X352962Y372768D01*
X365994D01*
Y367828D01*
X426994D01*
Y391828D01*
X428091Y392245D01*
X474464D01*
X476093Y390615D01*
X476046Y390257D01*
Y383899D01*
X475498Y383791D01*
X474634Y383214D01*
X474058Y382350D01*
X473855Y381332D01*
Y366952D01*
X474058Y365934D01*
X474634Y365070D01*
X475498Y364493D01*
X476046Y364384D01*
Y353484D01*
X476051Y353444D01*
Y346894D01*
X476254Y345876D01*
X476830Y345012D01*
X477694Y344435D01*
X478712Y344233D01*
X493092D01*
X494110Y344435D01*
X494974Y345012D01*
X495550Y345876D01*
X495753Y346894D01*
Y357874D01*
X495550Y358892D01*
X494974Y359756D01*
X494110Y360332D01*
X493092Y360535D01*
X490166D01*
Y387454D01*
X490658Y388096D01*
X526021D01*
X526304Y386673D01*
X527299Y385184D01*
X534188Y378296D01*
Y376218D01*
X534225Y376032D01*
Y373788D01*
X534216Y373718D01*
X534225Y373648D01*
Y367206D01*
X534427Y366188D01*
X535004Y365324D01*
X535868Y364748D01*
X536886Y364545D01*
X547866D01*
X548884Y364748D01*
X549748Y365324D01*
X550325Y366188D01*
X550527Y367206D01*
Y381586D01*
X550325Y382604D01*
X549748Y383468D01*
X548884Y384044D01*
X547866Y384247D01*
X541213D01*
X535131Y390329D01*
Y391157D01*
X535352Y391689D01*
Y393679D01*
X534591Y395516D01*
X533184Y396923D01*
X531347Y397684D01*
X529357D01*
X528363Y397272D01*
X489406D01*
X482381Y404297D01*
X480918Y405420D01*
X479216Y406125D01*
X477388Y406366D01*
X426981D01*
Y434776D01*
X429593Y437388D01*
X531183D01*
X546639Y421932D01*
X546802Y420513D01*
X546319Y419790D01*
X546149Y418937D01*
Y389812D01*
X546319Y388958D01*
X546802Y388234D01*
X547526Y387751D01*
X548380Y387581D01*
X555504D01*
X556358Y387751D01*
X557082Y388234D01*
X557565Y388958D01*
X557735Y389812D01*
Y399786D01*
X562000D01*
Y382977D01*
X561098D01*
X560080Y382775D01*
X559216Y382198D01*
X558639Y381334D01*
X558437Y380316D01*
Y365936D01*
X558639Y364918D01*
X559216Y364054D01*
X560080Y363478D01*
X561098Y363275D01*
X572078D01*
X573096Y363478D01*
X573960Y364054D01*
X574537Y364918D01*
X574739Y365936D01*
Y380316D01*
X574537Y381334D01*
X573960Y382198D01*
X573096Y382775D01*
X572078Y382977D01*
X571176D01*
Y387509D01*
X571568Y387786D01*
X572446Y388072D01*
X572926Y387751D01*
X573779Y387581D01*
X580905D01*
X581900Y386484D01*
Y382938D01*
X581080Y382775D01*
X580216Y382198D01*
X579640Y381334D01*
X579437Y380316D01*
Y365936D01*
X579640Y364918D01*
X580216Y364054D01*
X581080Y363478D01*
X582098Y363275D01*
X593078D01*
X594096Y363478D01*
X594960Y364054D01*
X595537Y364918D01*
X595739Y365936D01*
Y380316D01*
X595537Y381334D01*
X594960Y382198D01*
X594096Y382775D01*
X593078Y382977D01*
X591076D01*
Y391473D01*
X591741Y392138D01*
X592502Y393975D01*
Y395965D01*
X591741Y397802D01*
X590334Y399209D01*
X588497Y399970D01*
X588235D01*
X583135Y405070D01*
Y418936D01*
X583269Y419100D01*
X596815D01*
X596949Y418936D01*
Y389812D01*
X597119Y388958D01*
X597602Y388234D01*
X598326Y387751D01*
X599179Y387581D01*
X606305D01*
X607158Y387751D01*
X607882Y388234D01*
X608365Y388958D01*
X608405Y389161D01*
X609584Y389931D01*
X609805Y389956D01*
X610383Y389716D01*
X612373D01*
X614210Y390477D01*
X615617Y391884D01*
X616378Y393721D01*
Y395711D01*
X615617Y397548D01*
X614210Y398955D01*
X613216Y399367D01*
X611565Y401018D01*
X610076Y402012D01*
X608535Y402319D01*
Y418936D01*
X608669Y419100D01*
X632460D01*
X661670Y389890D01*
X826516D01*
X867245Y349160D01*
X866759Y347987D01*
X791464D01*
X790684Y347832D01*
X790022Y347390D01*
X789580Y346728D01*
X789425Y345948D01*
Y241554D01*
X789580Y240774D01*
X790022Y240112D01*
X790684Y239670D01*
X791464Y239515D01*
X831342D01*
X832122Y239670D01*
X832784Y240112D01*
X833226Y240774D01*
X833381Y241554D01*
Y300907D01*
X854031Y321557D01*
X929640D01*
X930420Y321712D01*
X931082Y322154D01*
X931524Y322816D01*
X931679Y323596D01*
Y345948D01*
X942204D01*
X944902Y343250D01*
Y70993D01*
X943632Y70607D01*
X940873Y74737D01*
X937133Y79294D01*
X932964Y83463D01*
X928407Y87203D01*
X923505Y90478D01*
X918306Y93257D01*
X912860Y95513D01*
X907218Y97224D01*
X907199Y97228D01*
X907406Y98482D01*
X908130Y98386D01*
X918130D01*
X921263Y98799D01*
X924182Y100008D01*
X926689Y101931D01*
X928612Y104438D01*
X929821Y107357D01*
X930234Y110490D01*
X929821Y113623D01*
X928612Y116542D01*
X926689Y119049D01*
X924182Y120972D01*
X921263Y122181D01*
X918465Y122549D01*
Y123830D01*
X921263Y124199D01*
X924182Y125408D01*
X926689Y127331D01*
X928612Y129838D01*
X929821Y132757D01*
X930234Y135890D01*
X929821Y139023D01*
X928612Y141942D01*
X926689Y144448D01*
X924182Y146372D01*
X921263Y147581D01*
X918130Y147994D01*
X908130D01*
X904997Y147581D01*
X902078Y146372D01*
X899572Y144448D01*
X897648Y141942D01*
X896439Y139023D01*
X896027Y135890D01*
X896292Y133874D01*
X895178Y132604D01*
X889109D01*
Y135206D01*
X888906Y136224D01*
X888330Y137088D01*
X887466Y137664D01*
X886448Y137867D01*
X875468D01*
X874450Y137664D01*
X873586Y137088D01*
X873009Y136224D01*
X872807Y135206D01*
Y120826D01*
X873009Y119808D01*
X873586Y118944D01*
X874450Y118368D01*
X875468Y118165D01*
X886448D01*
X887466Y118368D01*
X888330Y118944D01*
X888906Y119808D01*
X889109Y120826D01*
Y123428D01*
X899276D01*
X901032Y123777D01*
X902520Y124772D01*
X902841Y125092D01*
X904997Y124199D01*
X907795Y123830D01*
Y122549D01*
X904997Y122181D01*
X902078Y120972D01*
X899572Y119049D01*
X897648Y116542D01*
X897042Y115078D01*
X885698D01*
X883942Y114729D01*
X882454Y113734D01*
X879480Y110760D01*
X864217D01*
Y113362D01*
X864015Y114380D01*
X863438Y115244D01*
X862574Y115821D01*
X861556Y116023D01*
X850576D01*
X849558Y115821D01*
X848694Y115244D01*
X848118Y114380D01*
X847915Y113362D01*
Y98982D01*
X848118Y97964D01*
X848694Y97100D01*
X849558Y96524D01*
X850576Y96321D01*
X861556D01*
X862574Y96524D01*
X863438Y97100D01*
X864015Y97964D01*
X864217Y98982D01*
Y101584D01*
X881380D01*
X883136Y101933D01*
X884624Y102928D01*
X887598Y105902D01*
X897042D01*
X897648Y104438D01*
X899572Y101931D01*
X902078Y100008D01*
X904245Y99110D01*
X903874Y97889D01*
X901437Y98374D01*
X895570Y98952D01*
X889675D01*
X883808Y98374D01*
X878026Y97224D01*
X872384Y95513D01*
X866938Y93257D01*
X861739Y90478D01*
X856837Y87203D01*
X852280Y83463D01*
X848111Y79294D01*
X844371Y74737D01*
X841096Y69836D01*
X838317Y64636D01*
X836061Y59190D01*
X834350Y53548D01*
X833200Y47767D01*
X832622Y41900D01*
Y36005D01*
X833200Y30138D01*
X834350Y24356D01*
X836061Y18714D01*
X838317Y13268D01*
X841096Y8069D01*
X842333Y6218D01*
X841734Y5098D01*
X758044D01*
X757468Y6229D01*
X759429Y8929D01*
X762295Y14554D01*
X764246Y20559D01*
X765234Y26795D01*
Y33109D01*
X764246Y39345D01*
X762295Y45350D01*
X759429Y50975D01*
X755718Y56083D01*
X751253Y60548D01*
X746145Y64259D01*
X740520Y67125D01*
X734515Y69076D01*
X728279Y70064D01*
X721965D01*
X715729Y69076D01*
X709724Y67125D01*
X704099Y64259D01*
X698991Y60548D01*
X694526Y56083D01*
X690815Y50975D01*
X687949Y45350D01*
X685998Y39345D01*
X685010Y33109D01*
Y26795D01*
X685998Y20559D01*
X687949Y14554D01*
X690815Y8929D01*
X692776Y6229D01*
X692200Y5098D01*
X258044D01*
X257468Y6229D01*
X259429Y8929D01*
X262295Y14554D01*
X264246Y20559D01*
X265234Y26795D01*
Y33109D01*
X264246Y39345D01*
X262295Y45350D01*
X259429Y50975D01*
X255718Y56083D01*
X251253Y60548D01*
X246145Y64259D01*
X240520Y67125D01*
X234515Y69076D01*
X228279Y70064D01*
X221965D01*
X215729Y69076D01*
X209724Y67125D01*
X204099Y64259D01*
X198991Y60548D01*
X194526Y56083D01*
X190815Y50975D01*
X187949Y45350D01*
X185998Y39345D01*
X185010Y33109D01*
Y26795D01*
X185998Y20559D01*
X187949Y14554D01*
X190815Y8929D01*
X192776Y6229D01*
X192200Y5098D01*
X108510D01*
X107911Y6218D01*
X109148Y8069D01*
X111927Y13268D01*
X114183Y18714D01*
X115894Y24356D01*
X117044Y30138D01*
X117622Y36005D01*
Y41900D01*
X117044Y47767D01*
X115894Y53548D01*
X114183Y59190D01*
X111927Y64636D01*
X109148Y69836D01*
X105873Y74737D01*
X102133Y79294D01*
X97964Y83463D01*
X93407Y87203D01*
X88505Y90478D01*
X83306Y93257D01*
X77860Y95513D01*
X72218Y97224D01*
X66437Y98374D01*
X60570Y98952D01*
X54675D01*
X48808Y98374D01*
X43026Y97224D01*
X37384Y95513D01*
X31938Y93257D01*
X26739Y90478D01*
X21837Y87203D01*
X17280Y83463D01*
X13111Y79294D01*
X9372Y74737D01*
X6368Y70242D01*
X5098Y70627D01*
Y255009D01*
X54102Y255009D01*
X54882Y255164D01*
X55544Y255606D01*
X55986Y256268D01*
X56141Y257048D01*
Y327052D01*
X55986Y327832D01*
X55544Y328494D01*
X54882Y328936D01*
X54102Y329091D01*
X27947D01*
Y415791D01*
X107181D01*
Y386080D01*
X107181Y386080D01*
X107336Y385300D01*
X107778Y384638D01*
X107963Y384453D01*
X108625Y384011D01*
X109405Y383856D01*
X169799D01*
X170579Y384011D01*
X171241Y384453D01*
X171683Y385115D01*
X171838Y385895D01*
Y446322D01*
X171683Y447102D01*
X171241Y447764D01*
X170579Y448206D01*
X169799Y448361D01*
X5098D01*
Y489277D01*
X6368Y489662D01*
X9372Y485167D01*
X13111Y480610D01*
X17280Y476441D01*
X21837Y472701D01*
X26739Y469426D01*
X31938Y466647D01*
X37384Y464391D01*
X43026Y462680D01*
X48808Y461530D01*
X54675Y460952D01*
X60570D01*
X66437Y461530D01*
X72218Y462680D01*
X77860Y464391D01*
X83306Y466647D01*
X88505Y469426D01*
X93407Y472701D01*
X97964Y476441D01*
X102133Y480610D01*
X105873Y485167D01*
X109148Y490069D01*
X111927Y495268D01*
X114183Y500714D01*
X115894Y506356D01*
X117044Y512138D01*
X117622Y518004D01*
Y523900D01*
X117044Y529767D01*
X115894Y535549D01*
X114183Y541190D01*
X111927Y546636D01*
X109148Y551836D01*
X107847Y553782D01*
X108446Y554902D01*
X192269D01*
X192846Y553771D01*
D02*
G37*
G36*
X169799Y385895D02*
X109405D01*
X109220Y386080D01*
Y417830D01*
X25908D01*
Y327052D01*
X54102D01*
Y257048D01*
X5098Y257048D01*
Y446322D01*
X169799D01*
Y385895D01*
D02*
G37*
G36*
X929640Y323596D02*
X853186D01*
X831342Y301752D01*
Y241554D01*
X791464D01*
Y345948D01*
X929640D01*
Y323596D01*
D02*
G37*
%LPC*%
G36*
X333826Y530551D02*
X322846D01*
X321828Y530349D01*
X320964Y529772D01*
X320387Y528909D01*
X320185Y527890D01*
Y524696D01*
X307170D01*
X305414Y524347D01*
X303926Y523353D01*
X303334Y522760D01*
X302339Y521272D01*
X301990Y519516D01*
X302339Y517760D01*
X303334Y516272D01*
X304822Y515277D01*
X306578Y514928D01*
X308334Y515277D01*
X308697Y515520D01*
X320185D01*
Y513510D01*
X320387Y512492D01*
X320964Y511629D01*
X321828Y511052D01*
X322846Y510849D01*
X333826D01*
X334844Y511052D01*
X335708Y511629D01*
X336284Y512492D01*
X336487Y513510D01*
Y527890D01*
X336284Y528909D01*
X335708Y529772D01*
X334844Y530349D01*
X333826Y530551D01*
D02*
G37*
G36*
X313768Y506667D02*
X299388D01*
X298370Y506465D01*
X297506Y505888D01*
X296929Y505024D01*
X296727Y504006D01*
Y493026D01*
X296929Y492008D01*
X297506Y491144D01*
X298370Y490567D01*
X299388Y490365D01*
X313768D01*
X314786Y490567D01*
X315650Y491144D01*
X316227Y492008D01*
X316429Y493026D01*
Y504006D01*
X316227Y505024D01*
X315650Y505888D01*
X314786Y506465D01*
X313768Y506667D01*
D02*
G37*
G36*
X654537Y527478D02*
X652547D01*
X650710Y526717D01*
X649303Y525310D01*
X648542Y523473D01*
Y521483D01*
X649303Y519646D01*
X649918Y519031D01*
X649392Y517761D01*
X645590D01*
X644572Y517559D01*
X643708Y516982D01*
X643131Y516118D01*
X642929Y515100D01*
Y504120D01*
X643131Y503102D01*
X643708Y502238D01*
X644572Y501661D01*
X645590Y501459D01*
X659970D01*
X660988Y501661D01*
X661852Y502238D01*
X662429Y503102D01*
X662631Y504120D01*
Y515100D01*
X662429Y516118D01*
X661852Y516982D01*
X660988Y517559D01*
X659970Y517761D01*
X657692D01*
X657166Y519031D01*
X657781Y519646D01*
X658542Y521483D01*
Y523473D01*
X657781Y525310D01*
X656374Y526717D01*
X654537Y527478D01*
D02*
G37*
G36*
X675365Y527986D02*
X673375D01*
X671538Y527225D01*
X670131Y525818D01*
X669370Y523981D01*
Y521991D01*
X669782Y520997D01*
Y517761D01*
X667180D01*
X666162Y517559D01*
X665298Y516982D01*
X664722Y516118D01*
X664519Y515100D01*
Y504120D01*
X664722Y503102D01*
X665298Y502238D01*
X666162Y501661D01*
X667180Y501459D01*
X681560D01*
X682578Y501661D01*
X683442Y502238D01*
X684018Y503102D01*
X684221Y504120D01*
Y515100D01*
X684018Y516118D01*
X683442Y516982D01*
X682578Y517559D01*
X681560Y517761D01*
X678958D01*
Y520997D01*
X679370Y521991D01*
Y523981D01*
X678609Y525818D01*
X677202Y527225D01*
X675365Y527986D01*
D02*
G37*
G36*
X796036Y515042D02*
X793556Y514715D01*
X791245Y513758D01*
X789260Y512235D01*
X787738Y510251D01*
X786780Y507940D01*
X786454Y505460D01*
X786780Y502980D01*
X787738Y500669D01*
X789260Y498685D01*
X791245Y497162D01*
X793556Y496204D01*
X796036Y495878D01*
X798516Y496204D01*
X800827Y497162D01*
X802811Y498685D01*
X804334Y500669D01*
X805292Y502980D01*
X805618Y505460D01*
X805292Y507940D01*
X804334Y510251D01*
X802811Y512235D01*
X800827Y513758D01*
X798516Y514715D01*
X796036Y515042D01*
D02*
G37*
G36*
X530839Y502078D02*
X528849D01*
X527012Y501317D01*
X525605Y499910D01*
X524844Y498073D01*
Y496083D01*
X525605Y494246D01*
X526785Y493066D01*
Y489624D01*
X526785Y489624D01*
X527018Y488453D01*
X527681Y487461D01*
X539619Y475523D01*
X539619Y475523D01*
X540611Y474860D01*
X541782Y474627D01*
X582513D01*
X599563Y457577D01*
X600555Y456914D01*
X601726Y456681D01*
X631673D01*
X641035Y447899D01*
X641501Y447609D01*
X641957Y447304D01*
X642006Y447294D01*
X642048Y447268D01*
X642590Y447178D01*
X642675Y447161D01*
Y444512D01*
X642878Y443494D01*
X643454Y442630D01*
X644318Y442053D01*
X645336Y441851D01*
X659716D01*
X660734Y442053D01*
X661598Y442630D01*
X662175Y443494D01*
X662377Y444512D01*
Y455492D01*
X662175Y456510D01*
X661598Y457374D01*
X660734Y457951D01*
X659716Y458153D01*
X645336D01*
X644318Y457951D01*
X643454Y457374D01*
X642878Y456510D01*
X642842Y456333D01*
X641459Y455889D01*
X634975Y461971D01*
X634510Y462261D01*
X634053Y462566D01*
X634005Y462576D01*
X633962Y462602D01*
X633421Y462692D01*
X632883Y462799D01*
X602993D01*
X585943Y479849D01*
X584951Y480512D01*
X583780Y480745D01*
X583780Y480745D01*
X543049D01*
X532903Y490891D01*
Y493066D01*
X534083Y494246D01*
X534844Y496083D01*
Y498073D01*
X534083Y499910D01*
X532676Y501317D01*
X530839Y502078D01*
D02*
G37*
G36*
X144526Y527742D02*
X142046Y527416D01*
X139735Y526458D01*
X137751Y524935D01*
X136228Y522951D01*
X135271Y520640D01*
X134944Y518160D01*
X135271Y515680D01*
X136228Y513369D01*
X137751Y511385D01*
X139735Y509862D01*
X142046Y508904D01*
X144526Y508578D01*
X147006Y508904D01*
X149317Y509862D01*
X151301Y511385D01*
X152824Y513369D01*
X153781Y515680D01*
X154108Y518160D01*
X153781Y520640D01*
X152824Y522951D01*
X151301Y524935D01*
X149317Y526458D01*
X147006Y527416D01*
X144526Y527742D01*
D02*
G37*
G36*
X391199Y434811D02*
X366433D01*
X365529Y434632D01*
X364763Y434119D01*
X364250Y433353D01*
X364071Y432449D01*
Y420383D01*
X364250Y419479D01*
X364763Y418713D01*
X365529Y418200D01*
X366433Y418021D01*
X391199D01*
X392103Y418200D01*
X392869Y418713D01*
X393382Y419479D01*
X393561Y420383D01*
Y432449D01*
X393382Y433353D01*
X392869Y434119D01*
X392103Y434632D01*
X391199Y434811D01*
D02*
G37*
G36*
X71770Y405252D02*
X68874D01*
X66076Y404502D01*
X63568Y403054D01*
X61520Y401006D01*
X60072Y398498D01*
X59322Y395700D01*
Y392804D01*
X60072Y390006D01*
X61520Y387498D01*
X63568Y385450D01*
X66076Y384002D01*
X68874Y383252D01*
X71770D01*
X74568Y384002D01*
X77076Y385450D01*
X79124Y387498D01*
X80572Y390006D01*
X81322Y392804D01*
Y395700D01*
X80572Y398498D01*
X79124Y401006D01*
X77076Y403054D01*
X74568Y404502D01*
X71770Y405252D01*
D02*
G37*
G36*
X46370D02*
X43474D01*
X40676Y404502D01*
X38168Y403054D01*
X36120Y401006D01*
X34672Y398498D01*
X33922Y395700D01*
Y392804D01*
X34672Y390006D01*
X36120Y387498D01*
X38168Y385450D01*
X40676Y384002D01*
X43474Y383252D01*
X46370D01*
X49168Y384002D01*
X51676Y385450D01*
X53724Y387498D01*
X55172Y390006D01*
X55922Y392804D01*
Y395700D01*
X55172Y398498D01*
X53724Y401006D01*
X51676Y403054D01*
X49168Y404502D01*
X46370Y405252D01*
D02*
G37*
G36*
X694678Y387549D02*
X683698D01*
X682680Y387346D01*
X681816Y386770D01*
X681239Y385906D01*
X681037Y384888D01*
Y370508D01*
X681239Y369490D01*
X681816Y368626D01*
X682680Y368050D01*
X683698Y367847D01*
X694678D01*
X695696Y368050D01*
X696560Y368626D01*
X697137Y369490D01*
X697339Y370508D01*
Y374385D01*
X704648D01*
X705828Y373205D01*
X707665Y372444D01*
X709655D01*
X711492Y373205D01*
X712899Y374612D01*
X713660Y376449D01*
Y378439D01*
X712899Y380276D01*
X711492Y381683D01*
X709655Y382444D01*
X707665D01*
X705828Y381683D01*
X704648Y380503D01*
X697339D01*
Y384888D01*
X697137Y385906D01*
X696560Y386770D01*
X695696Y387346D01*
X694678Y387549D01*
D02*
G37*
G36*
X210818Y428435D02*
X196438D01*
X195420Y428233D01*
X194556Y427656D01*
X193979Y426792D01*
X193777Y425774D01*
Y422118D01*
X191269Y419610D01*
X190147Y418148D01*
X189442Y416445D01*
X189202Y414618D01*
Y393468D01*
X186587D01*
X185387Y393230D01*
X184370Y392550D01*
X183690Y391533D01*
X183452Y390333D01*
Y359983D01*
X183690Y358783D01*
X184370Y357766D01*
X185387Y357086D01*
X186587Y356848D01*
X189202D01*
Y349460D01*
Y316564D01*
X189442Y314737D01*
X190147Y313034D01*
X191269Y311572D01*
X198716Y304126D01*
X200178Y303004D01*
X201881Y302298D01*
X203708Y302058D01*
X264792D01*
X275464Y291385D01*
Y279954D01*
X259524D01*
Y253954D01*
X305524D01*
Y279954D01*
X289584D01*
Y294310D01*
X289344Y296137D01*
X288638Y297840D01*
X287516Y299302D01*
X272708Y314110D01*
X271246Y315233D01*
X269543Y315938D01*
X267716Y316178D01*
X206632D01*
X203322Y319489D01*
Y349460D01*
Y356848D01*
X205937D01*
X207137Y357086D01*
X208154Y357766D01*
X208834Y358783D01*
X209072Y359983D01*
Y372099D01*
X241464D01*
Y370883D01*
X241656Y369917D01*
X242203Y369099D01*
X243021Y368552D01*
X243987Y368359D01*
X264537D01*
X265503Y368552D01*
X266321Y369099D01*
X266868Y369917D01*
X267061Y370883D01*
Y379433D01*
X266868Y380399D01*
X266321Y381217D01*
X265503Y381764D01*
X264537Y381956D01*
X243987D01*
X243021Y381764D01*
X242203Y381217D01*
X241656Y380399D01*
X241464Y379433D01*
Y378217D01*
X209072D01*
Y390333D01*
X208834Y391533D01*
X208154Y392550D01*
X207137Y393230D01*
X205937Y393468D01*
X203322D01*
Y411693D01*
X203762Y412133D01*
X210818D01*
X211836Y412336D01*
X212700Y412912D01*
X213277Y413776D01*
X213479Y414794D01*
Y425774D01*
X213277Y426792D01*
X212700Y427656D01*
X211836Y428233D01*
X210818Y428435D01*
D02*
G37*
G36*
X746666Y379364D02*
X744822D01*
X743042Y378887D01*
X741446Y377965D01*
X740143Y376662D01*
X739221Y375066D01*
X738744Y373286D01*
Y371442D01*
X739114Y370060D01*
X730119Y361065D01*
X729456Y360073D01*
X729223Y358902D01*
X729223Y358902D01*
Y345285D01*
X722047D01*
X721919Y345260D01*
X720747D01*
X719967Y345105D01*
X719305Y344663D01*
X718863Y344001D01*
X718708Y343221D01*
Y342049D01*
X718682Y341921D01*
Y323485D01*
X711681D01*
X711580Y323505D01*
X693040D01*
X692939Y323485D01*
X679078D01*
X678298Y323330D01*
X677636Y322888D01*
X655231Y300483D01*
X631874D01*
X631677Y300444D01*
X629874D01*
Y298641D01*
X629835Y298444D01*
Y281627D01*
X627380D01*
X625292Y281352D01*
X623345Y280546D01*
X621674Y279264D01*
X605496Y263085D01*
X588706D01*
X588699Y263121D01*
Y264925D01*
X588424Y267013D01*
X587618Y268960D01*
X586336Y270631D01*
X577297Y279669D01*
Y285650D01*
X577279Y285786D01*
Y292940D01*
X577077Y293958D01*
X576500Y294822D01*
X575636Y295399D01*
X574618Y295601D01*
X563638D01*
X562620Y295399D01*
X561756Y294822D01*
X561180Y293958D01*
X560977Y292940D01*
Y291352D01*
X541886D01*
X541812Y291401D01*
X540988Y291565D01*
X519713D01*
X518889Y291401D01*
X518190Y290935D01*
X517723Y290236D01*
X517559Y289412D01*
Y285137D01*
X517723Y284312D01*
X518190Y283613D01*
X518889Y283147D01*
X519713Y282983D01*
X540988D01*
X541812Y283147D01*
X541886Y283196D01*
X560977D01*
Y278560D01*
X561159Y277645D01*
Y276327D01*
X561434Y274238D01*
X562240Y272292D01*
X563522Y270621D01*
X572561Y261583D01*
Y255116D01*
X572579Y254980D01*
Y247826D01*
X572781Y246808D01*
X573358Y245944D01*
X574222Y245368D01*
X575240Y245165D01*
X586220D01*
X587238Y245368D01*
X588102Y245944D01*
X588679Y246808D01*
X588706Y246947D01*
X608838D01*
X610926Y247222D01*
X612873Y248028D01*
X614544Y249310D01*
X628661Y263428D01*
X629835Y262942D01*
Y256444D01*
X629874Y256247D01*
Y254444D01*
X631677D01*
X631874Y254405D01*
X704863D01*
X718069Y241199D01*
X718069Y241199D01*
X718731Y240757D01*
X719511Y240602D01*
X721919D01*
X722047Y240576D01*
X745447D01*
X745575Y240602D01*
X746747D01*
X747527Y240757D01*
X748189Y241199D01*
X748631Y241861D01*
X748786Y242641D01*
Y243813D01*
X748812Y243941D01*
Y273341D01*
X748786Y273469D01*
Y312393D01*
X748812Y312521D01*
Y341921D01*
X748786Y342049D01*
Y343221D01*
X748631Y344001D01*
X748189Y344663D01*
X747527Y345105D01*
X746747Y345260D01*
X745575D01*
X745447Y345285D01*
X735341D01*
Y357635D01*
X743440Y365734D01*
X744822Y365364D01*
X746666D01*
X748446Y365841D01*
X750042Y366763D01*
X751345Y368066D01*
X752267Y369662D01*
X752744Y371442D01*
Y373286D01*
X752267Y375066D01*
X751345Y376662D01*
X750042Y377965D01*
X748446Y378887D01*
X746666Y379364D01*
D02*
G37*
G36*
X71770Y379852D02*
X68874D01*
X66076Y379102D01*
X63568Y377654D01*
X61520Y375606D01*
X60072Y373098D01*
X59322Y370300D01*
Y367404D01*
X60072Y364606D01*
X61520Y362098D01*
X63568Y360050D01*
X66076Y358602D01*
X68874Y357852D01*
X71770D01*
X74568Y358602D01*
X77076Y360050D01*
X79124Y362098D01*
X80572Y364606D01*
X81322Y367404D01*
Y370300D01*
X80572Y373098D01*
X79124Y375606D01*
X77076Y377654D01*
X74568Y379102D01*
X71770Y379852D01*
D02*
G37*
G36*
X46370D02*
X43474D01*
X40676Y379102D01*
X38168Y377654D01*
X36120Y375606D01*
X34672Y373098D01*
X33922Y370300D01*
Y367404D01*
X34672Y364606D01*
X36120Y362098D01*
X38168Y360050D01*
X40676Y358602D01*
X43474Y357852D01*
X46370D01*
X49168Y358602D01*
X51676Y360050D01*
X53724Y362098D01*
X55172Y364606D01*
X55922Y367404D01*
Y370300D01*
X55172Y373098D01*
X53724Y375606D01*
X51676Y377654D01*
X49168Y379102D01*
X46370Y379852D01*
D02*
G37*
G36*
X469331Y384247D02*
X458351D01*
X457332Y384045D01*
X456469Y383468D01*
X455892Y382604D01*
X455690Y381586D01*
Y367206D01*
X455892Y366188D01*
X456469Y365324D01*
X456780Y365116D01*
Y360426D01*
X456308Y360333D01*
X455445Y359756D01*
X454868Y358892D01*
X454665Y357874D01*
Y346894D01*
X454868Y345876D01*
X455445Y345012D01*
X456308Y344436D01*
X457327Y344233D01*
X471707D01*
X472725Y344436D01*
X473588Y345012D01*
X474165Y345876D01*
X474368Y346894D01*
Y357874D01*
X474165Y358892D01*
X473588Y359756D01*
X472725Y360333D01*
X471707Y360535D01*
X470901D01*
Y365116D01*
X471212Y365324D01*
X471789Y366188D01*
X471992Y367206D01*
Y381586D01*
X471789Y382604D01*
X471212Y383468D01*
X470349Y384045D01*
X469331Y384247D01*
D02*
G37*
G36*
X514936Y360535D02*
X500556D01*
X499538Y360333D01*
X498674Y359756D01*
X498097Y358892D01*
X497895Y357874D01*
Y346894D01*
X498097Y345876D01*
X498674Y345012D01*
X499538Y344436D01*
X500556Y344233D01*
X514936D01*
X515954Y344436D01*
X516818Y345012D01*
X517026Y345324D01*
X520056D01*
X520264Y345012D01*
X521128Y344435D01*
X522146Y344233D01*
X536526D01*
X537544Y344435D01*
X538408Y345012D01*
X538984Y345876D01*
X539187Y346894D01*
Y357874D01*
X538984Y358892D01*
X538408Y359756D01*
X537544Y360332D01*
X536526Y360535D01*
X522146D01*
X521128Y360332D01*
X520264Y359756D01*
X520056Y359444D01*
X517026D01*
X516818Y359756D01*
X515954Y360333D01*
X514936Y360535D01*
D02*
G37*
G36*
X574618Y360625D02*
X563638D01*
X562620Y360423D01*
X561756Y359846D01*
X561180Y358982D01*
X560977Y357964D01*
Y355785D01*
X560070Y354979D01*
X558509Y354669D01*
X557186Y353785D01*
X548042Y344641D01*
X547158Y343318D01*
X546848Y341757D01*
X546848Y341757D01*
Y319697D01*
X543903Y316752D01*
X541886D01*
X541812Y316801D01*
X540988Y316965D01*
X519713D01*
X518889Y316801D01*
X518190Y316334D01*
X517723Y315636D01*
X517559Y314811D01*
Y310536D01*
X517723Y309712D01*
X518190Y309014D01*
X518889Y308547D01*
X519713Y308383D01*
X540988D01*
X541812Y308547D01*
X541886Y308596D01*
X545592D01*
X545592Y308596D01*
X547153Y308906D01*
X548476Y309790D01*
X553810Y315124D01*
X553810Y315124D01*
X554694Y316447D01*
X555004Y318008D01*
Y340068D01*
X559804Y344867D01*
X560977Y344381D01*
Y343584D01*
X561180Y342566D01*
X561756Y341702D01*
X562620Y341125D01*
X563638Y340923D01*
X574618D01*
X575636Y341125D01*
X576500Y341702D01*
X577077Y342566D01*
X577279Y343584D01*
Y357964D01*
X577077Y358982D01*
X576500Y359846D01*
X575636Y360423D01*
X574618Y360625D01*
D02*
G37*
G36*
X471707Y339535D02*
X457327D01*
X456308Y339333D01*
X455445Y338756D01*
X455237Y338444D01*
X452206D01*
X451998Y338756D01*
X451135Y339333D01*
X450117Y339535D01*
X435737D01*
X434718Y339333D01*
X433855Y338756D01*
X433278Y337892D01*
X433075Y336874D01*
Y325894D01*
X433278Y324876D01*
X433855Y324012D01*
X434718Y323436D01*
X435737Y323233D01*
X449820D01*
Y304292D01*
X449820Y304292D01*
X450130Y302731D01*
X451014Y301408D01*
X455332Y297090D01*
X456655Y296206D01*
X458216Y295896D01*
X458216Y295896D01*
X461315D01*
X461389Y295847D01*
X462213Y295683D01*
X483488D01*
X484312Y295847D01*
X485011Y296313D01*
X485478Y297012D01*
X485642Y297836D01*
Y302111D01*
X485478Y302936D01*
X485011Y303634D01*
X484312Y304101D01*
X483488Y304265D01*
X462213D01*
X461389Y304101D01*
X461315Y304052D01*
X459905D01*
X457976Y305981D01*
Y323233D01*
X471707D01*
X472725Y323436D01*
X473588Y324012D01*
X474165Y324876D01*
X474368Y325894D01*
Y336874D01*
X474165Y337892D01*
X473588Y338756D01*
X472725Y339333D01*
X471707Y339535D01*
D02*
G37*
G36*
X514936Y339535D02*
X500556D01*
X499538Y339333D01*
X498674Y338756D01*
X498466Y338444D01*
X495182D01*
X494974Y338756D01*
X494110Y339333D01*
X493092Y339535D01*
X478712D01*
X477694Y339333D01*
X476830Y338756D01*
X476254Y337892D01*
X476051Y336874D01*
Y325894D01*
X476254Y324876D01*
X476830Y324012D01*
X477694Y323435D01*
X478712Y323233D01*
X479013D01*
X479499Y322060D01*
X478192Y320752D01*
X477308Y319429D01*
X476997Y317868D01*
X476189Y316965D01*
X462213D01*
X461389Y316801D01*
X460690Y316334D01*
X460223Y315636D01*
X460059Y314811D01*
Y310536D01*
X460223Y309712D01*
X460690Y309014D01*
X461389Y308547D01*
X462213Y308383D01*
X483488D01*
X484312Y308547D01*
X485011Y309014D01*
X485478Y309712D01*
X485642Y310536D01*
Y314811D01*
X485478Y315636D01*
X485154Y316121D01*
Y316179D01*
X487718Y318743D01*
X487718Y318743D01*
X488602Y320066D01*
X488913Y321627D01*
X488913Y321627D01*
Y323233D01*
X493092D01*
X494110Y323435D01*
X494974Y324012D01*
X495182Y324324D01*
X498466D01*
X498674Y324012D01*
X499538Y323436D01*
X500556Y323233D01*
X514936D01*
X515954Y323436D01*
X516818Y324012D01*
X517394Y324876D01*
X517597Y325894D01*
Y336874D01*
X517394Y337892D01*
X516818Y338756D01*
X515954Y339333D01*
X514936Y339535D01*
D02*
G37*
G36*
X71770Y354452D02*
X68874D01*
X66076Y353702D01*
X63568Y352254D01*
X61520Y350206D01*
X60072Y347698D01*
X59322Y344900D01*
Y342004D01*
X60072Y339206D01*
X61520Y336698D01*
X63568Y334650D01*
X66076Y333202D01*
X68874Y332452D01*
X71770D01*
X74568Y333202D01*
X77076Y334650D01*
X79124Y336698D01*
X80572Y339206D01*
X81322Y342004D01*
Y344900D01*
X80572Y347698D01*
X79124Y350206D01*
X77076Y352254D01*
X74568Y353702D01*
X71770Y354452D01*
D02*
G37*
G36*
X46370D02*
X43474D01*
X40676Y353702D01*
X38168Y352254D01*
X36120Y350206D01*
X34672Y347698D01*
X33922Y344900D01*
Y342004D01*
X34672Y339206D01*
X36120Y336698D01*
X38168Y334650D01*
X40676Y333202D01*
X43474Y332452D01*
X46370D01*
X49168Y333202D01*
X51676Y334650D01*
X53724Y336698D01*
X55172Y339206D01*
X55922Y342004D01*
Y344900D01*
X55172Y347698D01*
X53724Y350206D01*
X51676Y352254D01*
X49168Y353702D01*
X46370Y354452D01*
D02*
G37*
G36*
X574618Y338781D02*
X563638D01*
X562620Y338578D01*
X561756Y338002D01*
X561180Y337138D01*
X560977Y336120D01*
Y321740D01*
X561180Y320722D01*
X561756Y319858D01*
X562620Y319282D01*
X563638Y319079D01*
X565050D01*
Y317445D01*
X563638D01*
X562620Y317243D01*
X561756Y316666D01*
X561179Y315802D01*
X560977Y314784D01*
Y311672D01*
X556260D01*
X556260Y311672D01*
X554699Y311362D01*
X553376Y310478D01*
X546951Y304052D01*
X541886D01*
X541812Y304101D01*
X540988Y304265D01*
X519713D01*
X518889Y304101D01*
X518190Y303634D01*
X517723Y302936D01*
X517559Y302111D01*
Y297836D01*
X517723Y297012D01*
X518190Y296313D01*
X518889Y295847D01*
X519713Y295683D01*
X540988D01*
X541812Y295847D01*
X541886Y295896D01*
X548640D01*
X548640Y295896D01*
X550201Y296206D01*
X551524Y297090D01*
X557949Y303516D01*
X560977D01*
Y300404D01*
X561179Y299386D01*
X561756Y298522D01*
X562620Y297945D01*
X563638Y297743D01*
X574618D01*
X575636Y297945D01*
X576500Y298522D01*
X577076Y299386D01*
X577279Y300404D01*
Y314784D01*
X577076Y315802D01*
X576500Y316666D01*
X575636Y317243D01*
X574618Y317445D01*
X573206D01*
Y319079D01*
X574618D01*
X575636Y319282D01*
X576500Y319858D01*
X577077Y320722D01*
X577279Y321740D01*
Y336120D01*
X577077Y337138D01*
X576500Y338002D01*
X575636Y338578D01*
X574618Y338781D01*
D02*
G37*
G36*
X71770Y329052D02*
X68874D01*
X66076Y328302D01*
X63568Y326854D01*
X61520Y324806D01*
X60072Y322298D01*
X59322Y319500D01*
Y316604D01*
X60072Y313806D01*
X61520Y311298D01*
X63568Y309250D01*
X66076Y307802D01*
X68874Y307052D01*
X71770D01*
X74568Y307802D01*
X77076Y309250D01*
X79124Y311298D01*
X80572Y313806D01*
X81322Y316604D01*
Y319500D01*
X80572Y322298D01*
X79124Y324806D01*
X77076Y326854D01*
X74568Y328302D01*
X71770Y329052D01*
D02*
G37*
G36*
X516141Y311664D02*
X502871D01*
Y294894D01*
X516141D01*
Y311664D01*
D02*
G37*
G36*
X500331D02*
X487061D01*
Y294894D01*
X500331D01*
Y311664D01*
D02*
G37*
G36*
X595618Y317445D02*
X584638D01*
X583620Y317243D01*
X582756Y316666D01*
X582179Y315802D01*
X581977Y314784D01*
Y300404D01*
X582179Y299386D01*
X582756Y298522D01*
X583620Y297945D01*
X584638Y297743D01*
X586050D01*
Y295601D01*
X584638D01*
X583620Y295399D01*
X582756Y294822D01*
X582179Y293958D01*
X581977Y292940D01*
Y278560D01*
X582179Y277542D01*
X582756Y276678D01*
X583620Y276101D01*
X584638Y275899D01*
X595618D01*
X596636Y276101D01*
X597500Y276678D01*
X598077Y277542D01*
X598279Y278560D01*
Y292940D01*
X598077Y293958D01*
X597500Y294822D01*
X596636Y295399D01*
X595618Y295601D01*
X594206D01*
Y297743D01*
X595618D01*
X596636Y297945D01*
X597500Y298522D01*
X598077Y299386D01*
X598279Y300404D01*
Y314784D01*
X598077Y315802D01*
X597500Y316666D01*
X596636Y317243D01*
X595618Y317445D01*
D02*
G37*
G36*
X516141Y292354D02*
X502871D01*
Y275584D01*
X516141D01*
Y292354D01*
D02*
G37*
G36*
X500331D02*
X487061D01*
Y275584D01*
X500331D01*
Y292354D01*
D02*
G37*
G36*
X540988Y278865D02*
X519713D01*
X518889Y278701D01*
X518190Y278235D01*
X517723Y277536D01*
X517559Y276712D01*
Y272437D01*
X517723Y271612D01*
X518190Y270914D01*
X518889Y270447D01*
X519713Y270283D01*
X526272D01*
Y261380D01*
X521014D01*
Y264492D01*
X520811Y265510D01*
X520234Y266374D01*
X519371Y266951D01*
X518353Y267153D01*
X507373D01*
X506354Y266951D01*
X505491Y266374D01*
X504914Y265510D01*
X504711Y264492D01*
Y250112D01*
X504914Y249094D01*
X505491Y248230D01*
X506354Y247654D01*
X507373Y247451D01*
X518353D01*
X519371Y247654D01*
X520234Y248230D01*
X520811Y249094D01*
X521014Y250112D01*
Y253224D01*
X528007D01*
X528008Y253224D01*
X529568Y253534D01*
X530891Y254418D01*
X533234Y256761D01*
X533234Y256761D01*
X534118Y258084D01*
X534429Y259645D01*
Y270283D01*
X540988D01*
X541812Y270447D01*
X542511Y270914D01*
X542978Y271612D01*
X543142Y272437D01*
Y276712D01*
X542978Y277536D01*
X542511Y278235D01*
X541812Y278701D01*
X540988Y278865D01*
D02*
G37*
G36*
X426994Y347828D02*
X365994D01*
Y323828D01*
X401035D01*
X401494Y323768D01*
X402424D01*
Y318977D01*
X399828D01*
X398540Y318720D01*
X397449Y317991D01*
X396720Y316900D01*
X396463Y315612D01*
Y292212D01*
X396720Y290924D01*
X397449Y289833D01*
X398540Y289104D01*
X399828Y288847D01*
X410450D01*
Y287274D01*
X410450Y287274D01*
X410760Y285713D01*
X411644Y284390D01*
X424344Y271690D01*
X424344Y271690D01*
X425667Y270806D01*
X427228Y270496D01*
X461315D01*
X461389Y270447D01*
X462213Y270283D01*
X468772D01*
Y264258D01*
X468772Y264257D01*
X469083Y262697D01*
X469967Y261374D01*
X476922Y254418D01*
X476922Y254418D01*
X478245Y253534D01*
X479806Y253224D01*
X479806Y253224D01*
X483712D01*
Y250112D01*
X483914Y249094D01*
X484491Y248230D01*
X485354Y247654D01*
X486373Y247451D01*
X497353D01*
X498371Y247654D01*
X499234Y248230D01*
X499811Y249094D01*
X500014Y250112D01*
Y264492D01*
X499811Y265510D01*
X499234Y266374D01*
X498371Y266951D01*
X497353Y267153D01*
X486373D01*
X485354Y266951D01*
X484491Y266374D01*
X483914Y265510D01*
X483712Y264492D01*
Y261380D01*
X481495D01*
X476929Y265947D01*
Y270283D01*
X483488D01*
X484312Y270447D01*
X485011Y270914D01*
X485478Y271612D01*
X485642Y272437D01*
Y276712D01*
X485478Y277536D01*
X485011Y278235D01*
X484312Y278701D01*
X483488Y278865D01*
X462213D01*
X461389Y278701D01*
X461315Y278652D01*
X428917D01*
X419896Y287674D01*
X420382Y288847D01*
X429228D01*
X430516Y289104D01*
X431607Y289833D01*
X432337Y290924D01*
X432593Y292212D01*
Y315612D01*
X432337Y316900D01*
X431607Y317991D01*
X430516Y318720D01*
X429228Y318977D01*
X426632D01*
Y323828D01*
X426994D01*
Y347828D01*
D02*
G37*
G36*
X919400Y270464D02*
X909400D01*
X906267Y270051D01*
X903348Y268842D01*
X900842Y266919D01*
X899692Y265420D01*
X890058D01*
X888231Y265180D01*
X886528Y264475D01*
X885066Y263353D01*
X842438Y220725D01*
X841316Y219262D01*
X840610Y217559D01*
X840370Y215732D01*
Y202828D01*
X840058Y202620D01*
X839482Y201756D01*
X839279Y200738D01*
Y186358D01*
X839482Y185340D01*
X840058Y184476D01*
X840922Y183899D01*
X841940Y183697D01*
X852920D01*
X853938Y183899D01*
X854802Y184476D01*
X855379Y185340D01*
X855581Y186358D01*
Y200738D01*
X855379Y201756D01*
X854802Y202620D01*
X854490Y202828D01*
Y212808D01*
X892982Y251300D01*
X899692D01*
X900842Y249802D01*
X903348Y247878D01*
X906267Y246669D01*
X909400Y246257D01*
X919400D01*
X922533Y246669D01*
X925452Y247878D01*
X927959Y249802D01*
X929882Y252308D01*
X931091Y255227D01*
X931504Y258360D01*
X931091Y261493D01*
X929882Y264412D01*
X927959Y266919D01*
X925452Y268842D01*
X922533Y270051D01*
X919400Y270464D01*
D02*
G37*
G36*
X71770Y303652D02*
X68874D01*
X66076Y302902D01*
X63568Y301454D01*
X61520Y299406D01*
X60072Y296898D01*
X59322Y294100D01*
Y291204D01*
X60072Y288406D01*
X61520Y285898D01*
X63568Y283850D01*
X66076Y282402D01*
X68874Y281652D01*
X71770D01*
X74568Y282402D01*
X77076Y283850D01*
X79124Y285898D01*
X80572Y288406D01*
X80890Y289593D01*
X113497D01*
X168647Y234443D01*
X167927Y233367D01*
X167365Y233600D01*
X165375D01*
X163538Y232839D01*
X162131Y231432D01*
X161370Y229595D01*
Y227605D01*
X162131Y225768D01*
X163538Y224361D01*
X165375Y223600D01*
X167044D01*
X169801Y220843D01*
X169801Y220843D01*
X169814Y220835D01*
X169428Y219565D01*
X166523D01*
X116673Y269415D01*
X115681Y270078D01*
X114510Y270311D01*
X114510Y270311D01*
X80890D01*
X80572Y271498D01*
X79124Y274006D01*
X77076Y276054D01*
X74568Y277502D01*
X71770Y278252D01*
X68874D01*
X66076Y277502D01*
X63568Y276054D01*
X61520Y274006D01*
X60072Y271498D01*
X59322Y268700D01*
Y265804D01*
X60072Y263006D01*
X61520Y260498D01*
X63568Y258450D01*
X66076Y257002D01*
X68874Y256252D01*
X71770D01*
X74568Y257002D01*
X77076Y258450D01*
X79124Y260498D01*
X80572Y263006D01*
X80890Y264193D01*
X113243D01*
X157322Y220114D01*
X156602Y219038D01*
X155173Y219630D01*
X153183D01*
X151346Y218869D01*
X149939Y217462D01*
X149178Y215625D01*
Y213635D01*
X149770Y212206D01*
X148694Y211486D01*
X116165Y244015D01*
X115173Y244678D01*
X114002Y244911D01*
X114002Y244911D01*
X80890D01*
X80572Y246098D01*
X79124Y248606D01*
X77076Y250654D01*
X74568Y252102D01*
X71770Y252852D01*
X68874D01*
X66076Y252102D01*
X63568Y250654D01*
X61520Y248606D01*
X60072Y246098D01*
X59322Y243300D01*
Y240404D01*
X60072Y237606D01*
X61520Y235098D01*
X63568Y233050D01*
X66076Y231602D01*
X68874Y230852D01*
X71770D01*
X74568Y231602D01*
X77076Y233050D01*
X79124Y235098D01*
X80572Y237606D01*
X80890Y238793D01*
X112735D01*
X144442Y207086D01*
X143723Y206009D01*
X142727Y206422D01*
X140737D01*
X138900Y205661D01*
X137493Y204254D01*
X136732Y202417D01*
Y200427D01*
X136785Y200298D01*
X135709Y199579D01*
X116673Y218615D01*
X115681Y219278D01*
X114510Y219511D01*
X114510Y219511D01*
X80890D01*
X80572Y220698D01*
X79124Y223206D01*
X77076Y225254D01*
X74568Y226702D01*
X71770Y227452D01*
X68874D01*
X66076Y226702D01*
X63568Y225254D01*
X61520Y223206D01*
X60072Y220698D01*
X59322Y217900D01*
Y215004D01*
X60072Y212206D01*
X61520Y209698D01*
X63568Y207650D01*
X66076Y206202D01*
X68874Y205452D01*
X71770D01*
X74568Y206202D01*
X77076Y207650D01*
X79124Y209698D01*
X80572Y212206D01*
X80890Y213393D01*
X113243D01*
X138293Y188343D01*
X139285Y187680D01*
X140456Y187447D01*
X190088D01*
Y187256D01*
X209588D01*
X209588Y193756D01*
X209588Y195026D01*
X209588Y200256D01*
X209588Y201526D01*
X209588Y206756D01*
X209588Y208026D01*
X209588Y213256D01*
X209588Y214526D01*
X209588Y219756D01*
X209588Y221026D01*
X209588Y226256D01*
X209588Y227526D01*
X209588Y232756D01*
X209588Y234026D01*
Y239256D01*
X202703D01*
Y277420D01*
X203883Y278600D01*
X204644Y280437D01*
Y282427D01*
X203883Y284264D01*
X202476Y285671D01*
X200639Y286432D01*
X198649D01*
X196812Y285671D01*
X195405Y284264D01*
X194644Y282427D01*
Y280437D01*
X195405Y278600D01*
X196585Y277420D01*
Y239256D01*
X190088D01*
X190088Y232756D01*
X188897Y232565D01*
X179177D01*
X116927Y294815D01*
X115935Y295478D01*
X114764Y295711D01*
X114764Y295711D01*
X80890D01*
X80572Y296898D01*
X79124Y299406D01*
X77076Y301454D01*
X74568Y302902D01*
X71770Y303652D01*
D02*
G37*
G36*
X273537Y234506D02*
X271547D01*
X269710Y233745D01*
X268530Y232565D01*
X265588D01*
Y232756D01*
X246088D01*
Y227526D01*
X246088Y226256D01*
X246088D01*
Y226256D01*
X246088D01*
Y221026D01*
X246088Y219756D01*
X246088D01*
Y219756D01*
X246088D01*
Y214526D01*
X246088Y213256D01*
X246088D01*
Y213256D01*
X246088D01*
Y208026D01*
X246088Y206756D01*
X246088D01*
Y206756D01*
X246088D01*
Y201526D01*
X246088Y200256D01*
X246088D01*
Y200256D01*
X246088D01*
Y195026D01*
X246088Y193756D01*
X246088D01*
Y193756D01*
X246088D01*
Y188526D01*
X246088Y187256D01*
X246088D01*
Y187256D01*
X246088D01*
Y180756D01*
X265588D01*
Y180947D01*
X273959D01*
X332684Y122222D01*
X332198Y121049D01*
X300616D01*
X300616Y121049D01*
X299445Y120816D01*
X298453Y120153D01*
X277527Y99227D01*
X267033D01*
X265842Y99418D01*
X265842Y100688D01*
X265842Y105918D01*
X267022Y106135D01*
X273024D01*
X273024Y106135D01*
X274195Y106368D01*
X275187Y107031D01*
X295279Y127123D01*
X295279Y127123D01*
X295942Y128115D01*
X296175Y129286D01*
Y137974D01*
X297355Y139154D01*
X298116Y140991D01*
Y142981D01*
X297355Y144818D01*
X295948Y146225D01*
X294111Y146986D01*
X292121D01*
X290284Y146225D01*
X288877Y144818D01*
X288116Y142981D01*
Y140991D01*
X288877Y139154D01*
X290057Y137974D01*
Y130553D01*
X271757Y112253D01*
X267044D01*
X265842Y112418D01*
X265842Y113688D01*
X265842Y118918D01*
X265842Y120188D01*
X265842Y125418D01*
X265842Y126688D01*
Y131918D01*
X246342D01*
X246342Y125418D01*
X246342Y124148D01*
X246342Y118918D01*
X246342Y117648D01*
X246342Y112418D01*
X246342Y111148D01*
X246342Y105918D01*
X246342Y104648D01*
X246342Y99418D01*
X246342Y98148D01*
X246342Y92918D01*
X246342Y91648D01*
X246342Y86418D01*
X246342Y85148D01*
Y79918D01*
X265842D01*
Y80109D01*
X281796D01*
X281796Y80109D01*
X282966Y80342D01*
X283959Y81005D01*
X312885Y109931D01*
X336460D01*
X336946Y108758D01*
X335192Y107004D01*
X333523D01*
X331686Y106243D01*
X330279Y104836D01*
X329518Y102999D01*
Y101009D01*
X330279Y99172D01*
X331686Y97765D01*
X333523Y97004D01*
X335513D01*
X337350Y97765D01*
X338757Y99172D01*
X339518Y101009D01*
Y102678D01*
X341771Y104931D01*
X348120D01*
X348606Y103758D01*
X345352Y100504D01*
X343683D01*
X341846Y99743D01*
X340439Y98336D01*
X339678Y96499D01*
Y94509D01*
X340439Y92672D01*
X341846Y91265D01*
X343683Y90504D01*
X345673D01*
X347510Y91265D01*
X348917Y92672D01*
X349678Y94509D01*
Y96178D01*
X353431Y99931D01*
X442103D01*
X443220Y99035D01*
Y96945D01*
X443379Y96143D01*
X443816Y95490D01*
X443379Y94837D01*
X443220Y94035D01*
Y91945D01*
X443379Y91143D01*
X443834Y90463D01*
X444513Y90009D01*
X445315Y89850D01*
X455205D01*
X456007Y90009D01*
X456687Y90463D01*
X457141Y91143D01*
X457300Y91945D01*
Y94035D01*
X457141Y94837D01*
X456704Y95490D01*
X457141Y96143D01*
X457300Y96945D01*
Y99035D01*
X457141Y99837D01*
X456704Y100490D01*
X457141Y101143D01*
X457300Y101945D01*
Y104035D01*
X457141Y104837D01*
X456704Y105490D01*
X457141Y106143D01*
X457300Y106945D01*
Y109035D01*
X457141Y109837D01*
X456704Y110490D01*
X457141Y111143D01*
X457300Y111945D01*
Y114035D01*
X457141Y114837D01*
X456704Y115490D01*
X457141Y116143D01*
X457300Y116945D01*
Y119035D01*
X457141Y119837D01*
X456704Y120490D01*
X457141Y121143D01*
X457300Y121945D01*
Y124035D01*
X457141Y124837D01*
X456704Y125490D01*
X457141Y126143D01*
X457300Y126945D01*
Y129035D01*
X457141Y129837D01*
X456704Y130490D01*
X457141Y131143D01*
X457300Y131945D01*
Y134035D01*
X457141Y134837D01*
X456704Y135490D01*
X457141Y136143D01*
X457300Y136945D01*
Y139035D01*
X457141Y139837D01*
X456687Y140517D01*
X456007Y140971D01*
X455205Y141130D01*
X445315D01*
X444905Y141049D01*
X366451D01*
X365108Y142392D01*
X365594Y143565D01*
X374720D01*
X375738Y143767D01*
X376602Y144344D01*
X377178Y145208D01*
X377381Y146226D01*
Y160606D01*
X377178Y161624D01*
X376602Y162488D01*
X375738Y163065D01*
X374720Y163267D01*
X363740D01*
X362722Y163065D01*
X361858Y162488D01*
X361281Y161624D01*
X361079Y160606D01*
Y148080D01*
X359906Y147594D01*
X282331Y225169D01*
X281339Y225832D01*
X280168Y226065D01*
X280168Y226065D01*
X277831D01*
X277055Y227335D01*
X277542Y228511D01*
Y230501D01*
X276781Y232338D01*
X275374Y233745D01*
X273537Y234506D01*
D02*
G37*
G36*
X492918Y218377D02*
X478538D01*
X477520Y218174D01*
X476656Y217598D01*
X476079Y216734D01*
X475877Y215716D01*
Y214814D01*
X473989D01*
Y215716D01*
X473787Y216734D01*
X473210Y217598D01*
X472346Y218174D01*
X471328Y218377D01*
X456948D01*
X455930Y218174D01*
X455066Y217598D01*
X454490Y216734D01*
X454287Y215716D01*
Y204736D01*
X454490Y203718D01*
X455066Y202854D01*
X455930Y202277D01*
X456948Y202075D01*
X471328D01*
X472346Y202277D01*
X473210Y202854D01*
X473787Y203718D01*
X473989Y204736D01*
Y205638D01*
X475877D01*
Y204736D01*
X476079Y203718D01*
X476479Y203119D01*
Y199185D01*
X475842Y198548D01*
X475255D01*
X473418Y197787D01*
X472011Y196380D01*
X471250Y194543D01*
Y192553D01*
X472011Y190716D01*
X473418Y189309D01*
X475255Y188548D01*
X476924D01*
X477201Y188271D01*
Y170134D01*
X476028Y169648D01*
X441329Y204347D01*
X440336Y205010D01*
X439166Y205243D01*
X439166Y205243D01*
X437751D01*
Y210644D01*
X437548Y211662D01*
X436972Y212526D01*
X436108Y213102D01*
X435090Y213305D01*
X424110D01*
X423092Y213102D01*
X422228Y212526D01*
X421651Y211662D01*
X421449Y210644D01*
Y196264D01*
X421651Y195246D01*
X422228Y194382D01*
X423092Y193806D01*
X424110Y193603D01*
X435090D01*
X436108Y193806D01*
X436972Y194382D01*
X437548Y195246D01*
X437751Y196264D01*
Y197477D01*
X439021Y198003D01*
X452101Y184923D01*
X451575Y183653D01*
X437751D01*
Y185625D01*
X437548Y186643D01*
X436972Y187507D01*
X436108Y188083D01*
X435090Y188286D01*
X424110D01*
X423092Y188083D01*
X422228Y187507D01*
X421651Y186643D01*
X421449Y185625D01*
Y171245D01*
X421651Y170227D01*
X422228Y169363D01*
X423092Y168787D01*
X424110Y168584D01*
X435090D01*
X436108Y168787D01*
X436972Y169363D01*
X437548Y170227D01*
X437751Y171245D01*
Y177535D01*
X451107D01*
X467201Y161441D01*
Y161147D01*
X466305Y160030D01*
X464215D01*
X463413Y159871D01*
X462733Y159417D01*
X462279Y158737D01*
X462120Y157935D01*
Y157205D01*
X460850Y156679D01*
X456362Y161167D01*
X455370Y161830D01*
X454199Y162063D01*
X454199Y162063D01*
X443742D01*
X443742Y162063D01*
X442571Y161830D01*
X441579Y161167D01*
X438924Y158512D01*
X437751Y158998D01*
Y160606D01*
X437548Y161624D01*
X436972Y162488D01*
X436108Y163064D01*
X435090Y163267D01*
X424110D01*
X423092Y163064D01*
X422228Y162488D01*
X421651Y161624D01*
X421449Y160606D01*
Y146226D01*
X421651Y145208D01*
X422228Y144344D01*
X423092Y143767D01*
X424110Y143565D01*
X435090D01*
X436108Y143767D01*
X436972Y144344D01*
X437548Y145208D01*
X437751Y146226D01*
Y146409D01*
X439021Y146490D01*
X440144Y145367D01*
X441981Y144606D01*
X443971D01*
X445808Y145367D01*
X447215Y146774D01*
X447976Y148611D01*
Y150601D01*
X447215Y152438D01*
X445808Y153845D01*
X445801Y153848D01*
X445448Y155341D01*
X445955Y155945D01*
X452932D01*
X458050Y150827D01*
X458050Y150827D01*
X459043Y150164D01*
X460213Y149931D01*
X460213Y149931D01*
X462120D01*
Y148045D01*
X462279Y147243D01*
X462733Y146563D01*
X463413Y146109D01*
X464215Y145950D01*
X466305D01*
X467107Y146109D01*
X467760Y146546D01*
X468413Y146109D01*
X469215Y145950D01*
X471305D01*
X472107Y146109D01*
X472760Y146546D01*
X473413Y146109D01*
X474215Y145950D01*
X476305D01*
X477107Y146109D01*
X477760Y146546D01*
X478413Y146109D01*
X479215Y145950D01*
X481305D01*
X482107Y146109D01*
X482787Y146563D01*
X483241Y147243D01*
X483400Y148045D01*
Y157935D01*
X483319Y158345D01*
Y189538D01*
X483319Y189538D01*
X483086Y190709D01*
X482423Y191701D01*
X482423Y191701D01*
X481250Y192874D01*
Y194543D01*
X481027Y195081D01*
X481701Y195756D01*
X481701Y195756D01*
X482364Y196748D01*
X482597Y197918D01*
X482597Y197918D01*
Y202075D01*
X492918D01*
X493936Y202277D01*
X494800Y202854D01*
X495377Y203718D01*
X495579Y204736D01*
Y215716D01*
X495377Y216734D01*
X494800Y217598D01*
X493936Y218174D01*
X492918Y218377D01*
D02*
G37*
G36*
X562336Y228154D02*
X530836D01*
Y211588D01*
X530507Y211258D01*
X526741D01*
Y212160D01*
X526539Y213178D01*
X525962Y214042D01*
X525098Y214619D01*
X524080Y214821D01*
X509700D01*
X508682Y214619D01*
X507818Y214042D01*
X507242Y213178D01*
X507039Y212160D01*
Y211258D01*
X504325D01*
X502569Y210909D01*
X501081Y209914D01*
X498152Y206985D01*
X497157Y205497D01*
X496808Y203741D01*
Y196541D01*
X496582D01*
X495564Y196339D01*
X494700Y195762D01*
X494123Y194898D01*
X493921Y193880D01*
Y179500D01*
X494123Y178482D01*
X494700Y177618D01*
X495392Y177156D01*
X495644Y176444D01*
X495743Y175711D01*
X490934Y170902D01*
X489265D01*
X487428Y170141D01*
X486021Y168734D01*
X485260Y166897D01*
Y164907D01*
X486021Y163070D01*
X487201Y161890D01*
Y158345D01*
X487120Y157935D01*
Y148045D01*
X487279Y147243D01*
X487733Y146563D01*
X488413Y146109D01*
X489215Y145950D01*
X491305D01*
X492107Y146109D01*
X492760Y146546D01*
X493413Y146109D01*
X494215Y145950D01*
X496305D01*
X497107Y146109D01*
X497760Y146546D01*
X498413Y146109D01*
X499215Y145950D01*
X501305D01*
X502107Y146109D01*
X502760Y146546D01*
X503413Y146109D01*
X504215Y145950D01*
X506305D01*
X507107Y146109D01*
X507760Y146546D01*
X508413Y146109D01*
X509215Y145950D01*
X511305D01*
X512107Y146109D01*
X512760Y146546D01*
X513413Y146109D01*
X514215Y145950D01*
X516305D01*
X517107Y146109D01*
X517760Y146546D01*
X518413Y146109D01*
X519215Y145950D01*
X521305D01*
X522107Y146109D01*
X522787Y146563D01*
X523241Y147243D01*
X523400Y148045D01*
Y157935D01*
X523241Y158737D01*
X522787Y159417D01*
X522107Y159871D01*
X521305Y160030D01*
X519215D01*
X518413Y159871D01*
X517760Y159434D01*
X517107Y159871D01*
X516305Y160030D01*
X514215D01*
X513413Y159871D01*
X512760Y159434D01*
X512107Y159871D01*
X511305Y160030D01*
X509215D01*
X508413Y159871D01*
X507760Y159434D01*
X507107Y159871D01*
X506305Y160030D01*
X504215D01*
X503413Y159871D01*
X502760Y159434D01*
X502107Y159871D01*
X501305Y160030D01*
X499215D01*
X498413Y159871D01*
X497760Y159434D01*
X497107Y159871D01*
X496305Y160030D01*
X494215D01*
X493319Y161147D01*
Y161890D01*
X494499Y163070D01*
X495260Y164907D01*
Y166576D01*
X503582Y174899D01*
X503582Y174899D01*
X504245Y175891D01*
X504434Y176839D01*
X507562D01*
X508580Y177041D01*
X509444Y177618D01*
X510020Y178482D01*
X510223Y179500D01*
Y193880D01*
X510020Y194898D01*
X509444Y195762D01*
X508580Y196339D01*
X507562Y196541D01*
X505984D01*
Y199973D01*
X507242Y200162D01*
X507818Y199298D01*
X508682Y198722D01*
X509700Y198519D01*
X524080D01*
X525098Y198722D01*
X525962Y199298D01*
X526539Y200162D01*
X526741Y201180D01*
Y202082D01*
X532407D01*
X534163Y202431D01*
X535651Y203426D01*
X536292Y204066D01*
X539086D01*
X539529Y204154D01*
X562336D01*
Y228154D01*
D02*
G37*
G36*
X919400Y232364D02*
X909400D01*
X906267Y231951D01*
X903348Y230742D01*
X900842Y228818D01*
X899692Y227320D01*
X892852D01*
X891025Y227080D01*
X889322Y226374D01*
X887860Y225252D01*
X862418Y199810D01*
X861295Y198348D01*
X860590Y196645D01*
X860350Y194818D01*
Y179433D01*
X860220D01*
X859202Y179230D01*
X858378Y178680D01*
X855581D01*
Y179148D01*
X855379Y180166D01*
X854802Y181030D01*
X853938Y181607D01*
X852920Y181809D01*
X841940D01*
X840922Y181607D01*
X840058Y181030D01*
X839482Y180166D01*
X839279Y179148D01*
Y164768D01*
X839482Y163750D01*
X840058Y162886D01*
X840922Y162309D01*
X841940Y162107D01*
X852920D01*
X853938Y162309D01*
X854802Y162886D01*
X855379Y163750D01*
X855540Y164560D01*
X857905D01*
X858338Y163910D01*
X859202Y163333D01*
X860220Y163131D01*
X874600D01*
X875618Y163333D01*
X876482Y163910D01*
X877058Y164774D01*
X877261Y165792D01*
Y176772D01*
X877058Y177790D01*
X876482Y178654D01*
X875618Y179230D01*
X874600Y179433D01*
X874470D01*
Y191894D01*
X895777Y213200D01*
X899692D01*
X900842Y211702D01*
X903348Y209778D01*
X906267Y208569D01*
X909400Y208157D01*
X919400D01*
X922533Y208569D01*
X925452Y209778D01*
X927959Y211702D01*
X929882Y214208D01*
X931091Y217127D01*
X931504Y220260D01*
X931091Y223393D01*
X929882Y226312D01*
X927959Y228818D01*
X925452Y230742D01*
X922533Y231951D01*
X919400Y232364D01*
D02*
G37*
G36*
X770960Y210003D02*
X759980D01*
X758962Y209800D01*
X758098Y209224D01*
X757521Y208360D01*
X757319Y207342D01*
Y205502D01*
X752559D01*
X751565Y205914D01*
X749575D01*
X747738Y205153D01*
X746331Y203746D01*
X745570Y201909D01*
Y199919D01*
X746331Y198082D01*
X747738Y196675D01*
X749575Y195914D01*
X751565D01*
X752559Y196326D01*
X757319D01*
Y192962D01*
X757521Y191944D01*
X758098Y191080D01*
X758962Y190504D01*
X759980Y190301D01*
X760978D01*
Y183808D01*
X760978Y183808D01*
X761289Y182248D01*
X762173Y180924D01*
X764625Y178472D01*
X764625Y178472D01*
X765948Y177588D01*
X767509Y177278D01*
X767509Y177278D01*
X773630D01*
X773817Y176998D01*
X774577Y176490D01*
X775475Y176311D01*
X788053D01*
X788178Y175041D01*
X788037Y175013D01*
X786548Y174018D01*
X786231Y173701D01*
X775475D01*
X774577Y173522D01*
X773817Y173014D01*
X773308Y172253D01*
X773130Y171356D01*
Y165956D01*
X773308Y165059D01*
X773817Y164298D01*
X774577Y163790D01*
X775475Y163611D01*
X790375D01*
X791272Y163790D01*
X792033Y164298D01*
X792541Y165059D01*
X792720Y165956D01*
Y166186D01*
X796599D01*
Y165284D01*
X796802Y164266D01*
X797378Y163402D01*
X798242Y162825D01*
X799260Y162623D01*
X813640D01*
X814658Y162825D01*
X815522Y163402D01*
X816099Y164266D01*
X816301Y165284D01*
Y166778D01*
X818279D01*
Y164768D01*
X818482Y163750D01*
X819058Y162886D01*
X819922Y162309D01*
X820940Y162107D01*
X831920D01*
X832938Y162309D01*
X833802Y162886D01*
X834379Y163750D01*
X834581Y164768D01*
Y179148D01*
X834379Y180166D01*
X833802Y181030D01*
X832938Y181607D01*
X831920Y181809D01*
X820940D01*
X819922Y181607D01*
X819058Y181030D01*
X818482Y180166D01*
X818279Y179148D01*
Y175954D01*
X816301D01*
Y176264D01*
X816099Y177282D01*
X815522Y178146D01*
X814658Y178722D01*
X813640Y178925D01*
X799260D01*
X798242Y178722D01*
X797378Y178146D01*
X796802Y177282D01*
X796599Y176264D01*
Y175362D01*
X791697D01*
X791589Y175649D01*
X791486Y176632D01*
X792033Y176998D01*
X792541Y177759D01*
X792720Y178656D01*
Y184056D01*
X792541Y184953D01*
X792033Y185714D01*
X791272Y186222D01*
X790375Y186401D01*
X775475D01*
X774577Y186222D01*
X773817Y185714D01*
X773630Y185434D01*
X769198D01*
X769135Y185497D01*
Y190301D01*
X770960D01*
X771978Y190504D01*
X772842Y191080D01*
X773419Y191944D01*
X773621Y192962D01*
Y207342D01*
X773419Y208360D01*
X772842Y209224D01*
X771978Y209800D01*
X770960Y210003D01*
D02*
G37*
G36*
X374720Y213305D02*
X363740D01*
X362722Y213103D01*
X361858Y212526D01*
X361281Y211662D01*
X361079Y210644D01*
Y196264D01*
X361281Y195246D01*
X361858Y194382D01*
X362722Y193806D01*
X363740Y193603D01*
X374720D01*
X375738Y193806D01*
X376602Y194382D01*
X377178Y195246D01*
X377381Y196264D01*
Y210644D01*
X377178Y211662D01*
X376602Y212526D01*
X375738Y213103D01*
X374720Y213305D01*
D02*
G37*
G36*
X414090Y213305D02*
X403110D01*
X402092Y213102D01*
X401228Y212526D01*
X400651Y211662D01*
X400449Y210644D01*
Y210514D01*
X390230D01*
X388403Y210274D01*
X386700Y209569D01*
X385238Y208447D01*
X384115Y206984D01*
X383410Y205281D01*
X383170Y203454D01*
X383410Y201627D01*
X384115Y199924D01*
X385238Y198462D01*
X386700Y197340D01*
X388403Y196634D01*
X390230Y196394D01*
X400449D01*
Y196264D01*
X400651Y195246D01*
X401228Y194382D01*
X402092Y193806D01*
X403110Y193603D01*
X414090D01*
X415108Y193806D01*
X415972Y194382D01*
X416549Y195246D01*
X416751Y196264D01*
Y210644D01*
X416549Y211662D01*
X415972Y212526D01*
X415108Y213102D01*
X414090Y213305D01*
D02*
G37*
G36*
X238993Y275764D02*
X237003D01*
X235166Y275003D01*
X233759Y273596D01*
X232998Y271759D01*
Y269769D01*
X233410Y268775D01*
Y264105D01*
X232086D01*
X231068Y263902D01*
X230204Y263326D01*
X229627Y262462D01*
X229425Y261444D01*
Y247064D01*
X229627Y246046D01*
X230204Y245182D01*
X231068Y244606D01*
X232086Y244403D01*
X232988D01*
Y237444D01*
X227959Y232415D01*
X226964Y230927D01*
X226615Y229171D01*
Y180565D01*
X209588D01*
Y180756D01*
X190088D01*
Y174256D01*
X209588D01*
Y174447D01*
X227835D01*
X227959Y174262D01*
X233750Y168470D01*
Y163521D01*
X232848D01*
X231830Y163319D01*
X230966Y162742D01*
X230389Y161878D01*
X230187Y160860D01*
Y146480D01*
X230389Y145462D01*
X230966Y144598D01*
X231830Y144022D01*
X232848Y143819D01*
X233750D01*
Y89108D01*
X224554Y79912D01*
X224430Y79727D01*
X209842D01*
Y79918D01*
X190342D01*
Y77744D01*
X184288Y71690D01*
X183040Y72024D01*
X181196D01*
X179416Y71547D01*
X177820Y70625D01*
X176517Y69322D01*
X175595Y67726D01*
X175118Y65946D01*
Y64102D01*
X175595Y62322D01*
X176517Y60726D01*
X177820Y59423D01*
X179416Y58501D01*
X181196Y58024D01*
X183040D01*
X184820Y58501D01*
X186416Y59423D01*
X187719Y60726D01*
X188641Y62322D01*
X189118Y64102D01*
Y65946D01*
X188712Y67462D01*
X194668Y73418D01*
X209842D01*
Y73609D01*
X224430D01*
X224554Y73424D01*
X226042Y72429D01*
X227798Y72080D01*
X229554Y72429D01*
X231042Y73424D01*
X241582Y83964D01*
X242577Y85452D01*
X242926Y87208D01*
Y143819D01*
X243828D01*
X244846Y144022D01*
X245710Y144598D01*
X246287Y145462D01*
X246489Y146480D01*
Y160860D01*
X246287Y161878D01*
X245710Y162742D01*
X244846Y163319D01*
X243828Y163521D01*
X242926D01*
Y170371D01*
X242577Y172127D01*
X241582Y173615D01*
X235791Y179407D01*
Y227271D01*
X240820Y232300D01*
X241815Y233788D01*
X242164Y235544D01*
Y244403D01*
X243066D01*
X244084Y244606D01*
X244948Y245182D01*
X245525Y246046D01*
X245727Y247064D01*
Y261444D01*
X245525Y262462D01*
X244948Y263326D01*
X244084Y263902D01*
X243066Y264105D01*
X242586D01*
Y268775D01*
X242998Y269769D01*
Y271759D01*
X242237Y273596D01*
X240830Y275003D01*
X238993Y275764D01*
D02*
G37*
G36*
X736375Y186401D02*
X721475D01*
X720577Y186222D01*
X720161Y185944D01*
X688848D01*
X687092Y185595D01*
X685604Y184600D01*
X675104Y174100D01*
X674109Y172612D01*
X673760Y170856D01*
Y160219D01*
X672858D01*
X671840Y160016D01*
X670976Y159440D01*
X670399Y158576D01*
X670197Y157558D01*
Y153427D01*
X640588D01*
X640588Y153427D01*
X639417Y153194D01*
X638425Y152531D01*
X638425Y152531D01*
X596769Y110875D01*
X596106Y109882D01*
X595873Y108712D01*
X595873Y108712D01*
Y92961D01*
X554739Y51827D01*
X527176D01*
X526923Y53097D01*
X527088Y53165D01*
X528495Y54572D01*
X529256Y56409D01*
Y58399D01*
X528495Y60236D01*
X527088Y61643D01*
X525251Y62404D01*
X524563D01*
X523400Y63045D01*
Y72935D01*
X523241Y73737D01*
X522787Y74417D01*
X522107Y74871D01*
X521305Y75030D01*
X519215D01*
X518413Y74871D01*
X517733Y74417D01*
X517279Y73737D01*
X517120Y72935D01*
Y63045D01*
X517201Y62635D01*
Y61400D01*
X517201Y61400D01*
X517434Y60230D01*
X518097Y59237D01*
X519256Y58078D01*
Y56409D01*
X520017Y54572D01*
X521424Y53165D01*
X521589Y53097D01*
X521336Y51827D01*
X509512D01*
X508986Y53097D01*
X509445Y53556D01*
X510206Y55393D01*
Y57062D01*
X512423Y59279D01*
X512423Y59279D01*
X513086Y60272D01*
X513319Y61442D01*
X513319Y61442D01*
Y62635D01*
X513400Y63045D01*
Y72935D01*
X513241Y73737D01*
X512787Y74417D01*
X512107Y74871D01*
X511305Y75030D01*
X509215D01*
X508413Y74871D01*
X507760Y74434D01*
X507107Y74871D01*
X506305Y75030D01*
X504215D01*
X503413Y74871D01*
X502760Y74434D01*
X502107Y74871D01*
X501305Y75030D01*
X499215D01*
X498413Y74871D01*
X497760Y74434D01*
X497107Y74871D01*
X496305Y75030D01*
X494215D01*
X493413Y74871D01*
X492760Y74434D01*
X492107Y74871D01*
X491305Y75030D01*
X489215D01*
X488413Y74871D01*
X487760Y74434D01*
X487107Y74871D01*
X486305Y75030D01*
X484215D01*
X483413Y74871D01*
X482760Y74434D01*
X482107Y74871D01*
X481305Y75030D01*
X479215D01*
X478413Y74871D01*
X477760Y74434D01*
X477107Y74871D01*
X476305Y75030D01*
X474215D01*
X473413Y74871D01*
X472760Y74434D01*
X472107Y74871D01*
X471305Y75030D01*
X469215D01*
X468413Y74871D01*
X467760Y74434D01*
X467107Y74871D01*
X466305Y75030D01*
X464215D01*
X463413Y74871D01*
X462733Y74417D01*
X462279Y73737D01*
X462120Y72935D01*
Y63045D01*
X462201Y62635D01*
Y60717D01*
X453846D01*
X452666Y61897D01*
X450829Y62658D01*
X448839D01*
X447002Y61897D01*
X445595Y60490D01*
X444834Y58653D01*
Y56663D01*
X445259Y55637D01*
X444591Y54636D01*
X443251Y54549D01*
X442252Y55547D01*
X440415Y56308D01*
X438425D01*
X436588Y55547D01*
X435181Y54140D01*
X434420Y52303D01*
Y50313D01*
X435181Y48476D01*
X436588Y47069D01*
X438425Y46308D01*
X440415D01*
X442252Y47069D01*
X443432Y48249D01*
X466598D01*
X466598Y48249D01*
X467769Y48482D01*
X468761Y49145D01*
X472423Y52807D01*
X472423Y52807D01*
X473086Y53799D01*
X473319Y54970D01*
Y59833D01*
X474215Y60950D01*
X476305D01*
X477107Y61109D01*
X477760Y61546D01*
X478413Y61109D01*
X479215Y60950D01*
X481305D01*
X482107Y61109D01*
X482760Y61546D01*
X483413Y61109D01*
X484215Y60950D01*
X486305D01*
X487201Y59833D01*
Y49490D01*
X487201Y49490D01*
X487434Y48320D01*
X488097Y47327D01*
X493391Y42033D01*
X493391Y42033D01*
X494383Y41370D01*
X495554Y41137D01*
X511002D01*
X511104Y41020D01*
X511564Y39867D01*
X511226Y39360D01*
X511023Y38342D01*
Y27362D01*
X511226Y26344D01*
X511802Y25480D01*
X512666Y24903D01*
X513684Y24701D01*
X528064D01*
X529082Y24903D01*
X529946Y25480D01*
X530154Y25792D01*
X533184D01*
X533392Y25480D01*
X534256Y24903D01*
X535274Y24701D01*
X549654D01*
X550672Y24903D01*
X551536Y25480D01*
X552113Y26344D01*
X552315Y27362D01*
Y28264D01*
X557056D01*
X557101Y28156D01*
X558508Y26749D01*
X560345Y25988D01*
X562335D01*
X564172Y26749D01*
X565579Y28156D01*
X566340Y29993D01*
Y31983D01*
X565579Y33820D01*
X564172Y35227D01*
X563178Y35639D01*
X562720Y36096D01*
X561232Y37091D01*
X559476Y37440D01*
X552315D01*
Y38342D01*
X552113Y39360D01*
X551774Y39867D01*
X552234Y41020D01*
X552336Y41137D01*
X561848D01*
X561848Y41137D01*
X563018Y41370D01*
X564011Y42033D01*
X575221Y53243D01*
X607195D01*
Y50812D01*
X607397Y49794D01*
X607974Y48930D01*
X608838Y48354D01*
X609856Y48151D01*
X624236D01*
X625254Y48354D01*
X626118Y48930D01*
X626694Y49794D01*
X626897Y50812D01*
Y51714D01*
X631054D01*
Y49975D01*
X631250Y48990D01*
X631809Y48155D01*
X632644Y47597D01*
X633629Y47400D01*
X639579D01*
X640564Y47597D01*
X641399Y48155D01*
X641538Y48362D01*
X648195D01*
X648208Y48354D01*
X649226Y48151D01*
X663606D01*
X664624Y48354D01*
X665488Y48930D01*
X666065Y49794D01*
X666267Y50812D01*
Y51714D01*
X675554D01*
X677310Y52063D01*
X678798Y53058D01*
X697098Y71358D01*
X721614D01*
X723370Y71707D01*
X724858Y72702D01*
X732169Y80013D01*
X733164Y81501D01*
X733513Y83257D01*
Y138211D01*
X736375D01*
X737272Y138390D01*
X738033Y138898D01*
X738541Y139659D01*
X738720Y140556D01*
Y145956D01*
X738541Y146853D01*
X738033Y147614D01*
X737272Y148123D01*
X736375Y148301D01*
X721475D01*
X720577Y148123D01*
X719817Y147614D01*
X719308Y146853D01*
X719130Y145956D01*
Y140686D01*
X718827Y140439D01*
X717927Y140093D01*
X715783Y142237D01*
Y151133D01*
X717547Y152897D01*
X719201D01*
X719308Y152359D01*
X719817Y151598D01*
X720577Y151089D01*
X721475Y150911D01*
X736375D01*
X737272Y151089D01*
X738033Y151598D01*
X738541Y152359D01*
X738720Y153256D01*
Y158656D01*
X738541Y159553D01*
X738033Y160314D01*
X737272Y160823D01*
X736375Y161001D01*
X733513D01*
Y163611D01*
X736375D01*
X737272Y163790D01*
X738033Y164298D01*
X738541Y165059D01*
X738720Y165956D01*
Y171356D01*
X738541Y172253D01*
X738033Y173014D01*
X737272Y173522D01*
X736375Y173701D01*
X721475D01*
X720577Y173522D01*
X719817Y173014D01*
X719308Y172253D01*
X719130Y171356D01*
Y165956D01*
X719308Y165059D01*
X719817Y164298D01*
X720577Y163790D01*
X721475Y163611D01*
X724337D01*
Y161001D01*
X721475D01*
X720577Y160823D01*
X719817Y160314D01*
X719308Y159553D01*
X719201Y159015D01*
X716280D01*
X716280Y159015D01*
X715109Y158782D01*
X714117Y158119D01*
X710561Y154563D01*
X709898Y153570D01*
X709665Y152400D01*
X709665Y152400D01*
Y140970D01*
X709665Y140970D01*
X709898Y139799D01*
X710561Y138807D01*
X715253Y134115D01*
Y95501D01*
X711126Y91374D01*
X709856Y91900D01*
Y92278D01*
X695856D01*
Y82778D01*
X709856D01*
Y84469D01*
X711606D01*
X711606Y84469D01*
X712776Y84702D01*
X713769Y85365D01*
X720475Y92071D01*
X721138Y93063D01*
X721371Y94234D01*
X721371Y94234D01*
Y135382D01*
X721371Y135382D01*
X721138Y136552D01*
X720806Y137049D01*
X721357Y138006D01*
X721557Y138211D01*
X724337D01*
Y85157D01*
X719714Y80534D01*
X695198D01*
X693442Y80185D01*
X691954Y79190D01*
X673653Y60890D01*
X666267D01*
Y61792D01*
X666065Y62810D01*
X665488Y63674D01*
X664624Y64251D01*
X663606Y64453D01*
X649226D01*
X648208Y64251D01*
X647344Y63674D01*
X646767Y62810D01*
X646565Y61792D01*
Y57538D01*
X641538D01*
X641399Y57745D01*
X640564Y58303D01*
X639579Y58499D01*
X637543D01*
X636496Y59546D01*
X635008Y60541D01*
X633252Y60890D01*
X626897D01*
Y61792D01*
X626694Y62810D01*
X626118Y63674D01*
X625254Y64251D01*
X624236Y64453D01*
X609856D01*
X608838Y64251D01*
X607974Y63674D01*
X607397Y62810D01*
X607195Y61792D01*
Y59361D01*
X573954D01*
X573954Y59361D01*
X572784Y59128D01*
X571791Y58465D01*
X570950Y59387D01*
X601095Y89531D01*
X601758Y90524D01*
X601991Y91694D01*
X601991Y91694D01*
Y107445D01*
X641855Y147309D01*
X670197D01*
Y143178D01*
X670399Y142160D01*
X670976Y141296D01*
X671840Y140719D01*
X672858Y140517D01*
X683838D01*
X684856Y140719D01*
X685720Y141296D01*
X686296Y142160D01*
X686499Y143178D01*
Y157558D01*
X686296Y158576D01*
X685720Y159440D01*
X684856Y160016D01*
X683838Y160219D01*
X682936D01*
Y168955D01*
X690749Y176768D01*
X720161D01*
X720577Y176490D01*
X721475Y176311D01*
X736375D01*
X737272Y176490D01*
X738033Y176998D01*
X738541Y177759D01*
X738720Y178656D01*
Y184056D01*
X738541Y184953D01*
X738033Y185714D01*
X737272Y186222D01*
X736375Y186401D01*
D02*
G37*
G36*
X528562Y196541D02*
X517582D01*
X516564Y196339D01*
X515700Y195762D01*
X515123Y194898D01*
X514921Y193880D01*
Y179500D01*
X515123Y178482D01*
X515700Y177618D01*
X516564Y177041D01*
X517582Y176839D01*
X523632D01*
X527024Y173447D01*
X528487Y172325D01*
X530190Y171619D01*
X532017Y171379D01*
X545473D01*
X545596Y171194D01*
X546459Y170618D01*
X547477Y170415D01*
X561857D01*
X562876Y170618D01*
X563739Y171194D01*
X563862Y171379D01*
X567063D01*
X567186Y171194D01*
X568049Y170618D01*
X569067Y170415D01*
X583447D01*
X584466Y170618D01*
X585329Y171194D01*
X585906Y172058D01*
X586109Y173076D01*
Y176011D01*
X589840D01*
X591020Y174831D01*
X592857Y174070D01*
X594847D01*
X596684Y174831D01*
X598091Y176238D01*
X598852Y178075D01*
Y180065D01*
X598091Y181902D01*
X596684Y183309D01*
X594847Y184070D01*
X592857D01*
X591020Y183309D01*
X589840Y182129D01*
X586109D01*
Y184056D01*
X585906Y185074D01*
X585329Y185938D01*
X584466Y186515D01*
X583447Y186717D01*
X569067D01*
X568049Y186515D01*
X567186Y185938D01*
X566893Y185499D01*
X564032D01*
X563739Y185938D01*
X562876Y186515D01*
X561857Y186717D01*
X547477D01*
X546459Y186515D01*
X545596Y185938D01*
X545303Y185499D01*
X534941D01*
X531558Y188883D01*
X531223Y189140D01*
Y193880D01*
X531021Y194898D01*
X530444Y195762D01*
X529580Y196339D01*
X528562Y196541D01*
D02*
G37*
G36*
X919400Y194264D02*
X909400D01*
X906267Y193851D01*
X903348Y192642D01*
X900842Y190718D01*
X899068Y188407D01*
X894858D01*
X893030Y188167D01*
X891328Y187461D01*
X889865Y186339D01*
X884008Y180481D01*
X882886Y179019D01*
X882180Y177316D01*
X881940Y175489D01*
Y159642D01*
X879640Y157342D01*
X876690D01*
X876482Y157654D01*
X875618Y158230D01*
X874600Y158433D01*
X860220D01*
X859202Y158230D01*
X858338Y157654D01*
X858074Y157258D01*
X855581D01*
Y157304D01*
X855379Y158322D01*
X854802Y159186D01*
X853938Y159762D01*
X852920Y159965D01*
X841940D01*
X840922Y159762D01*
X840058Y159186D01*
X839482Y158322D01*
X839279Y157304D01*
Y142924D01*
X839482Y141906D01*
X840058Y141042D01*
X840922Y140465D01*
X841940Y140263D01*
X852920D01*
X853938Y140465D01*
X854802Y141042D01*
X855379Y141906D01*
X855581Y142924D01*
Y143138D01*
X858186D01*
X858338Y142910D01*
X859202Y142333D01*
X860220Y142131D01*
X874600D01*
X875618Y142333D01*
X876482Y142910D01*
X876690Y143222D01*
X882564D01*
X884391Y143462D01*
X886094Y144167D01*
X887556Y145289D01*
X893992Y151726D01*
X895115Y153188D01*
X895820Y154891D01*
X896060Y156718D01*
Y172565D01*
X897782Y174286D01*
X900316D01*
X900842Y173601D01*
X903348Y171678D01*
X906267Y170469D01*
X909400Y170056D01*
X919400D01*
X922533Y170469D01*
X925452Y171678D01*
X927959Y173601D01*
X929882Y176108D01*
X931091Y179027D01*
X931504Y182160D01*
X931091Y185293D01*
X929882Y188212D01*
X927959Y190718D01*
X925452Y192642D01*
X922533Y193851D01*
X919400Y194264D01*
D02*
G37*
G36*
X374720Y188286D02*
X363740D01*
X362722Y188084D01*
X361858Y187507D01*
X361281Y186643D01*
X361079Y185625D01*
Y171245D01*
X361281Y170227D01*
X361858Y169363D01*
X362722Y168787D01*
X363740Y168584D01*
X374720D01*
X375738Y168787D01*
X376602Y169363D01*
X377178Y170227D01*
X377381Y171245D01*
Y185625D01*
X377178Y186643D01*
X376602Y187507D01*
X375738Y188084D01*
X374720Y188286D01*
D02*
G37*
G36*
X414090Y188286D02*
X403110D01*
X402092Y188083D01*
X401228Y187507D01*
X400651Y186643D01*
X400449Y185625D01*
Y185495D01*
X390230D01*
X388403Y185255D01*
X386700Y184550D01*
X385238Y183428D01*
X384115Y181965D01*
X383410Y180262D01*
X383170Y178435D01*
X383410Y176608D01*
X384115Y174905D01*
X385238Y173443D01*
X386700Y172321D01*
X388403Y171615D01*
X390230Y171375D01*
X400449D01*
Y171245D01*
X400651Y170227D01*
X401228Y169363D01*
X402092Y168787D01*
X403110Y168584D01*
X414090D01*
X415108Y168787D01*
X415972Y169363D01*
X416549Y170227D01*
X416751Y171245D01*
Y185625D01*
X416549Y186643D01*
X415972Y187507D01*
X415108Y188083D01*
X414090Y188286D01*
D02*
G37*
G36*
X651235Y170608D02*
X649245D01*
X647408Y169847D01*
X646228Y168667D01*
X639547D01*
X638376Y168434D01*
X637384Y167771D01*
X637384Y167771D01*
X581638Y112025D01*
X568957D01*
X562224Y118758D01*
X562710Y119931D01*
X569802D01*
Y118893D01*
X570563Y117056D01*
X571970Y115649D01*
X573807Y114888D01*
X575797D01*
X577634Y115649D01*
X579041Y117056D01*
X579802Y118893D01*
Y120883D01*
X579041Y122720D01*
X577634Y124127D01*
X575797Y124888D01*
X574128D01*
X573863Y125153D01*
X572870Y125816D01*
X571700Y126049D01*
X571700Y126049D01*
X569422D01*
X568936Y127222D01*
X571080Y129366D01*
X572749D01*
X574586Y130127D01*
X575993Y131534D01*
X576754Y133371D01*
Y135361D01*
X575993Y137198D01*
X574586Y138605D01*
X572749Y139366D01*
X570759D01*
X568922Y138605D01*
X567515Y137198D01*
X566754Y135361D01*
Y133692D01*
X564111Y131049D01*
X540615D01*
X540205Y131130D01*
X530315D01*
X529513Y130971D01*
X528833Y130517D01*
X528379Y129837D01*
X528220Y129035D01*
Y126945D01*
X528379Y126143D01*
X528816Y125490D01*
X528379Y124837D01*
X528220Y124035D01*
Y121945D01*
X528379Y121143D01*
X528816Y120490D01*
X528379Y119837D01*
X528220Y119035D01*
Y116945D01*
X528379Y116143D01*
X528816Y115490D01*
X528379Y114837D01*
X528220Y114035D01*
Y111945D01*
X528379Y111143D01*
X528816Y110490D01*
X528379Y109837D01*
X528220Y109035D01*
Y106945D01*
X528379Y106143D01*
X528816Y105490D01*
X528379Y104837D01*
X528220Y104035D01*
Y101945D01*
X528379Y101143D01*
X528816Y100490D01*
X528379Y99837D01*
X528220Y99035D01*
Y96945D01*
X528379Y96143D01*
X528816Y95490D01*
X528379Y94837D01*
X528220Y94035D01*
Y91945D01*
X528379Y91143D01*
X528816Y90490D01*
X528379Y89837D01*
X528220Y89035D01*
Y86945D01*
X528379Y86143D01*
X528816Y85490D01*
X528379Y84837D01*
X528220Y84035D01*
Y81945D01*
X528379Y81143D01*
X528833Y80463D01*
X529513Y80009D01*
X530315Y79850D01*
X540205D01*
X540786Y79965D01*
X544916D01*
X546062Y78819D01*
X547899Y78058D01*
X549889D01*
X551726Y78819D01*
X553133Y80226D01*
X553894Y82063D01*
Y84053D01*
X553133Y85890D01*
X551726Y87297D01*
X549889Y88058D01*
X547899D01*
X546062Y87297D01*
X544848Y86083D01*
X543424D01*
X542300Y86945D01*
Y89035D01*
X542141Y89837D01*
X541704Y90490D01*
X542141Y91143D01*
X542300Y91945D01*
Y94035D01*
X542141Y94837D01*
X541704Y95490D01*
X542141Y96143D01*
X542300Y96945D01*
Y99035D01*
X542141Y99837D01*
X541704Y100490D01*
X542141Y101143D01*
X542300Y101945D01*
Y104035D01*
X542141Y104837D01*
X541704Y105490D01*
X542141Y106143D01*
X542300Y106945D01*
Y109035D01*
X542141Y109837D01*
X541704Y110490D01*
X542141Y111143D01*
X542300Y111945D01*
Y114035D01*
X543417Y114931D01*
X557399D01*
X565527Y106803D01*
X566520Y106140D01*
X567690Y105907D01*
X582905D01*
X582905Y105907D01*
X584075Y106140D01*
X585068Y106803D01*
X640814Y162549D01*
X646228D01*
X647408Y161369D01*
X649245Y160608D01*
X651235D01*
X653072Y161369D01*
X654479Y162776D01*
X655240Y164613D01*
Y166603D01*
X654479Y168440D01*
X653072Y169847D01*
X651235Y170608D01*
D02*
G37*
G36*
X46370Y176652D02*
X43474D01*
X40676Y175902D01*
X38168Y174454D01*
X36120Y172406D01*
X34672Y169898D01*
X33922Y167100D01*
Y164204D01*
X34672Y161406D01*
X36120Y158898D01*
X38168Y156850D01*
X40676Y155402D01*
X43474Y154652D01*
X46370D01*
X49168Y155402D01*
X51676Y156850D01*
X53724Y158898D01*
X55172Y161406D01*
X55922Y164204D01*
Y167100D01*
X55172Y169898D01*
X53724Y172406D01*
X51676Y174454D01*
X49168Y175902D01*
X46370Y176652D01*
D02*
G37*
G36*
X414090Y163267D02*
X403110D01*
X402092Y163064D01*
X401228Y162488D01*
X400651Y161624D01*
X400449Y160606D01*
Y160476D01*
X390230D01*
X388403Y160236D01*
X386700Y159530D01*
X385238Y158408D01*
X384115Y156946D01*
X383410Y155243D01*
X383170Y153416D01*
X383410Y151589D01*
X384115Y149886D01*
X385238Y148424D01*
X386700Y147302D01*
X388403Y146596D01*
X390230Y146356D01*
X400449D01*
Y146226D01*
X400651Y145208D01*
X401228Y144344D01*
X402092Y143767D01*
X403110Y143565D01*
X414090D01*
X415108Y143767D01*
X415972Y144344D01*
X416549Y145208D01*
X416751Y146226D01*
Y160606D01*
X416549Y161624D01*
X415972Y162488D01*
X415108Y163064D01*
X414090Y163267D01*
D02*
G37*
G36*
X549127Y145208D02*
X547137D01*
X545300Y144447D01*
X543893Y143040D01*
X543132Y141203D01*
Y141049D01*
X540615D01*
X540205Y141130D01*
X530315D01*
X529513Y140971D01*
X528833Y140517D01*
X528379Y139837D01*
X528220Y139035D01*
Y136945D01*
X528379Y136143D01*
X528833Y135463D01*
X529513Y135009D01*
X530315Y134850D01*
X540205D01*
X540615Y134931D01*
X545914D01*
X545914Y134931D01*
X547085Y135164D01*
X547150Y135208D01*
X549127D01*
X550964Y135969D01*
X552371Y137376D01*
X553132Y139213D01*
Y141203D01*
X552371Y143040D01*
X550964Y144447D01*
X549127Y145208D01*
D02*
G37*
G36*
X790375Y161001D02*
X775475D01*
X774577Y160823D01*
X773817Y160314D01*
X773308Y159553D01*
X773130Y158656D01*
Y153256D01*
X773308Y152359D01*
X773817Y151598D01*
X774577Y151089D01*
X775475Y150911D01*
X786154D01*
X787906Y149160D01*
X789394Y148165D01*
X791150Y147816D01*
X796599D01*
Y146914D01*
X796802Y145896D01*
X797378Y145032D01*
X798242Y144455D01*
X799260Y144253D01*
X813640D01*
X814658Y144455D01*
X815522Y145032D01*
X816099Y145896D01*
X816253Y146671D01*
X818279D01*
Y142924D01*
X818482Y141906D01*
X819058Y141042D01*
X819922Y140465D01*
X820940Y140263D01*
X831920D01*
X832938Y140465D01*
X833802Y141042D01*
X834379Y141906D01*
X834581Y142924D01*
Y157304D01*
X834379Y158322D01*
X833802Y159186D01*
X832938Y159762D01*
X831920Y159965D01*
X820940D01*
X819922Y159762D01*
X819058Y159186D01*
X818482Y158322D01*
X818279Y157304D01*
Y155847D01*
X816301D01*
Y157894D01*
X816099Y158912D01*
X815522Y159776D01*
X814658Y160352D01*
X813640Y160555D01*
X799260D01*
X798242Y160352D01*
X797378Y159776D01*
X796802Y158912D01*
X796599Y157894D01*
Y156992D01*
X793051D01*
X792720Y157323D01*
Y158656D01*
X792541Y159553D01*
X792033Y160314D01*
X791272Y160823D01*
X790375Y161001D01*
D02*
G37*
G36*
X813640Y139555D02*
X799260D01*
X798242Y139353D01*
X797378Y138776D01*
X796802Y137912D01*
X796599Y136894D01*
Y125914D01*
X796802Y124896D01*
X797378Y124032D01*
X798242Y123455D01*
X799260Y123253D01*
X802029D01*
X802157Y123146D01*
X802773Y121983D01*
X802212Y120629D01*
Y120402D01*
X801872Y120062D01*
X800375D01*
X798538Y119301D01*
X797131Y117894D01*
X796370Y116057D01*
Y114067D01*
X797131Y112230D01*
X798538Y110823D01*
X800375Y110062D01*
X802365D01*
X804202Y110823D01*
X805609Y112230D01*
X805632Y112287D01*
X807980Y114634D01*
X808207D01*
X810044Y115395D01*
X811451Y116802D01*
X812212Y118639D01*
Y120629D01*
X811651Y121983D01*
X812267Y123146D01*
X812395Y123253D01*
X813640D01*
X814658Y123455D01*
X815522Y124032D01*
X816099Y124896D01*
X816301Y125914D01*
Y136894D01*
X816099Y137912D01*
X815522Y138776D01*
X814658Y139353D01*
X813640Y139555D01*
D02*
G37*
G36*
X700257Y172386D02*
X698267D01*
X696430Y171625D01*
X695023Y170218D01*
X694262Y168381D01*
Y166391D01*
X695023Y164554D01*
X696203Y163374D01*
Y160219D01*
X693858D01*
X692840Y160016D01*
X691976Y159440D01*
X691399Y158576D01*
X691197Y157558D01*
Y143178D01*
X691399Y142160D01*
X691976Y141296D01*
X692840Y140719D01*
X693858Y140517D01*
X695014D01*
Y135327D01*
X694366D01*
X693348Y135125D01*
X692484Y134548D01*
X691908Y133684D01*
X691705Y132666D01*
Y118286D01*
X691908Y117268D01*
X692484Y116404D01*
X693348Y115828D01*
X694366Y115625D01*
X696368D01*
Y111278D01*
X695856D01*
Y101778D01*
X709856D01*
Y111278D01*
X705544D01*
Y115664D01*
X706364Y115828D01*
X707228Y116404D01*
X707805Y117268D01*
X708007Y118286D01*
Y132666D01*
X707805Y133684D01*
X707228Y134548D01*
X706364Y135125D01*
X705346Y135327D01*
X704190D01*
Y140517D01*
X704838D01*
X705856Y140719D01*
X706720Y141296D01*
X707297Y142160D01*
X707499Y143178D01*
Y157558D01*
X707297Y158576D01*
X706720Y159440D01*
X705856Y160016D01*
X704838Y160219D01*
X702321D01*
Y163374D01*
X703501Y164554D01*
X704262Y166391D01*
Y168381D01*
X703501Y170218D01*
X702094Y171625D01*
X700257Y172386D01*
D02*
G37*
G36*
X682856Y111278D02*
X668856D01*
Y103048D01*
X668856Y101778D01*
X667757Y101366D01*
X666227D01*
X666065Y102180D01*
X665488Y103044D01*
X664624Y103621D01*
X663606Y103823D01*
X649226D01*
X648208Y103621D01*
X647344Y103044D01*
X646767Y102180D01*
X646565Y101162D01*
Y90182D01*
X646767Y89164D01*
X647344Y88300D01*
X648208Y87724D01*
X649226Y87521D01*
X651828D01*
Y85453D01*
X649226D01*
X648208Y85251D01*
X647344Y84674D01*
X646767Y83810D01*
X646565Y82792D01*
Y79638D01*
X637604D01*
X637409Y79599D01*
X633629D01*
X632644Y79404D01*
X631809Y78845D01*
X631250Y78010D01*
X631054Y77025D01*
Y71075D01*
X631250Y70090D01*
X631809Y69255D01*
X632644Y68696D01*
X633629Y68500D01*
X639579D01*
X640564Y68696D01*
X641399Y69255D01*
X641957Y70090D01*
X642031Y70462D01*
X646989D01*
X647344Y69930D01*
X648208Y69353D01*
X649226Y69151D01*
X663606D01*
X664624Y69353D01*
X665488Y69930D01*
X666065Y70794D01*
X666267Y71812D01*
Y82792D01*
X666065Y83810D01*
X665488Y84674D01*
X664624Y85251D01*
X663606Y85453D01*
X661004D01*
Y87521D01*
X663606D01*
X664624Y87724D01*
X665488Y88300D01*
X666065Y89164D01*
X666267Y90182D01*
Y92190D01*
X675606D01*
X676049Y92278D01*
X682856D01*
Y100508D01*
X682856Y101778D01*
X682856Y103048D01*
Y111278D01*
D02*
G37*
G36*
X840556Y116023D02*
X829576D01*
X828558Y115821D01*
X827694Y115244D01*
X827117Y114380D01*
X826915Y113362D01*
Y98982D01*
X827117Y97964D01*
X827694Y97100D01*
X828558Y96524D01*
X829576Y96321D01*
X830988D01*
Y94877D01*
X830955Y94832D01*
X829718Y94133D01*
X828441Y94662D01*
X826451D01*
X824614Y93901D01*
X823207Y92494D01*
X822446Y90657D01*
Y88667D01*
X823207Y86830D01*
X824614Y85423D01*
X826451Y84662D01*
X828441D01*
X830278Y85423D01*
X830439Y85584D01*
X832723D01*
X832723Y85584D01*
X834284Y85894D01*
X835607Y86778D01*
X837950Y89121D01*
X837950Y89121D01*
X838834Y90444D01*
X839144Y92005D01*
Y96321D01*
X840556D01*
X841574Y96524D01*
X842438Y97100D01*
X843015Y97964D01*
X843217Y98982D01*
Y113362D01*
X843015Y114380D01*
X842438Y115244D01*
X841574Y115821D01*
X840556Y116023D01*
D02*
G37*
G36*
X71770Y202052D02*
X68874D01*
X66076Y201302D01*
X63568Y199854D01*
X61520Y197806D01*
X60072Y195298D01*
X59322Y192500D01*
Y189604D01*
X60072Y186806D01*
X61520Y184298D01*
X63568Y182250D01*
X66076Y180802D01*
X68874Y180052D01*
X71770D01*
X74568Y180802D01*
X77076Y182250D01*
X79124Y184298D01*
X80572Y186806D01*
X80890Y187993D01*
X98511D01*
X185999Y100505D01*
X185999Y100505D01*
X186992Y99842D01*
X188162Y99609D01*
X189151D01*
X190342Y99418D01*
X190342Y98148D01*
X190342Y92918D01*
X189151Y92727D01*
X176521D01*
X101433Y167815D01*
X100441Y168478D01*
X99270Y168711D01*
X99270Y168711D01*
X80890D01*
X80572Y169898D01*
X79124Y172406D01*
X77076Y174454D01*
X74568Y175902D01*
X71770Y176652D01*
X68874D01*
X66076Y175902D01*
X63568Y174454D01*
X61520Y172406D01*
X60072Y169898D01*
X59322Y167100D01*
Y164204D01*
X60072Y161406D01*
X61520Y158898D01*
X63568Y156850D01*
X66076Y155402D01*
X68874Y154652D01*
X71770D01*
X74568Y155402D01*
X77076Y156850D01*
X79124Y158898D01*
X80572Y161406D01*
X80890Y162593D01*
X98003D01*
X173091Y87505D01*
X173091Y87505D01*
X174083Y86842D01*
X175254Y86609D01*
X175254Y86609D01*
X190342D01*
Y86418D01*
X209842D01*
X209842Y92918D01*
X209842Y94188D01*
X209842Y99418D01*
X209842Y100688D01*
X209842Y105918D01*
X209842Y107188D01*
X209842Y112418D01*
X209842Y113688D01*
X209842Y118918D01*
X209842Y120188D01*
X209842Y125418D01*
X209842Y126688D01*
X209842Y131918D01*
X209842Y133188D01*
Y138418D01*
X190342D01*
X190342Y131918D01*
X190342Y130648D01*
X190342Y125418D01*
X190342Y124148D01*
X190342Y118918D01*
X189151Y118727D01*
X187184D01*
X125995Y179916D01*
Y182932D01*
X127175Y184112D01*
X127936Y185949D01*
Y187939D01*
X127175Y189776D01*
X125768Y191183D01*
X123931Y191944D01*
X121941D01*
X120104Y191183D01*
X118697Y189776D01*
X117936Y187939D01*
Y185949D01*
X118697Y184112D01*
X119877Y182932D01*
Y178649D01*
X119877Y178649D01*
X120110Y177479D01*
X120773Y176486D01*
X183754Y113505D01*
X183754Y113505D01*
X184747Y112842D01*
X185917Y112609D01*
X185917Y112609D01*
X189151D01*
X190342Y112418D01*
X190342Y111148D01*
X190342Y106589D01*
X189072Y106084D01*
X101941Y193215D01*
X100949Y193878D01*
X99778Y194111D01*
X99778Y194111D01*
X80890D01*
X80572Y195298D01*
X79124Y197806D01*
X77076Y199854D01*
X74568Y201302D01*
X71770Y202052D01*
D02*
G37*
G36*
X455205Y86130D02*
X445315D01*
X444905Y86049D01*
X441638D01*
X441638Y86049D01*
X440467Y85816D01*
X439475Y85153D01*
X438019Y83697D01*
X437356Y82704D01*
X437123Y81534D01*
X437123Y81534D01*
Y81228D01*
X435943Y80048D01*
X435182Y78211D01*
Y76221D01*
X435943Y74384D01*
X437123Y73204D01*
Y67815D01*
X431209Y61901D01*
X427427D01*
Y64332D01*
X427225Y65350D01*
X426648Y66214D01*
X425784Y66790D01*
X424766Y66993D01*
X410386D01*
X409368Y66790D01*
X408504Y66214D01*
X407928Y65350D01*
X407725Y64332D01*
Y63430D01*
X405837D01*
Y64332D01*
X405634Y65350D01*
X405058Y66214D01*
X404194Y66790D01*
X403176Y66993D01*
X388796D01*
X387778Y66790D01*
X386914Y66214D01*
X386338Y65350D01*
X386135Y64332D01*
Y53352D01*
X386338Y52334D01*
X386914Y51470D01*
X387778Y50893D01*
X388796Y50691D01*
X403176D01*
X404194Y50893D01*
X405058Y51470D01*
X405634Y52334D01*
X405837Y53352D01*
Y54254D01*
X407725D01*
Y53352D01*
X407928Y52334D01*
X408504Y51470D01*
X409368Y50893D01*
X410386Y50691D01*
X424766D01*
X425784Y50893D01*
X426648Y51470D01*
X427225Y52334D01*
X427427Y53352D01*
Y55783D01*
X432476D01*
X432476Y55783D01*
X433647Y56016D01*
X434639Y56679D01*
X442345Y64385D01*
X443008Y65377D01*
X443241Y66548D01*
X443241Y66548D01*
Y73204D01*
X444421Y74384D01*
X445182Y76221D01*
Y78211D01*
X445015Y78615D01*
X445072Y78849D01*
X445878Y79850D01*
X455205D01*
X456007Y80009D01*
X456687Y80463D01*
X457141Y81143D01*
X457300Y81945D01*
Y84035D01*
X457141Y84837D01*
X456687Y85517D01*
X456007Y85971D01*
X455205Y86130D01*
D02*
G37*
G36*
X641508Y103823D02*
X627128D01*
X626110Y103621D01*
X625246Y103044D01*
X624669Y102180D01*
X624560Y101632D01*
X621804D01*
X619977Y101392D01*
X618274Y100687D01*
X616811Y99565D01*
X612054Y94807D01*
X610932Y93344D01*
X610226Y91642D01*
X609986Y89814D01*
Y85453D01*
X609856D01*
X608838Y85251D01*
X607974Y84674D01*
X607397Y83810D01*
X607195Y82792D01*
Y71812D01*
X607397Y70794D01*
X607974Y69930D01*
X608838Y69353D01*
X609856Y69151D01*
X624236D01*
X625254Y69353D01*
X626118Y69930D01*
X626694Y70794D01*
X626897Y71812D01*
Y78331D01*
X626906Y78402D01*
X626897Y78473D01*
Y82792D01*
X626694Y83810D01*
X626118Y84674D01*
X625254Y85251D01*
X624236Y85453D01*
X624106D01*
Y86890D01*
X624728Y87512D01*
X633218D01*
X633288Y87521D01*
X641508D01*
X642526Y87724D01*
X643390Y88300D01*
X643967Y89164D01*
X644169Y90182D01*
Y101162D01*
X643967Y102180D01*
X643390Y103044D01*
X642526Y103621D01*
X641508Y103823D01*
D02*
G37*
G36*
X374629Y65960D02*
X372639D01*
X371645Y65548D01*
X309118D01*
X307362Y65199D01*
X305874Y64204D01*
X290380Y48710D01*
X289385Y47222D01*
X289036Y45466D01*
Y30432D01*
X288833Y30348D01*
X286849Y28826D01*
X285326Y26841D01*
X284368Y24530D01*
X284042Y22050D01*
Y16050D01*
X284368Y13570D01*
X285326Y11259D01*
X286849Y9275D01*
X288833Y7752D01*
X291144Y6794D01*
X293624Y6468D01*
X296104Y6794D01*
X298415Y7752D01*
X300399Y9275D01*
X301922Y11259D01*
X302880Y13570D01*
X303206Y16050D01*
Y22050D01*
X302880Y24530D01*
X301922Y26841D01*
X300399Y28826D01*
X298415Y30348D01*
X298212Y30432D01*
Y43566D01*
X311019Y56372D01*
X371645D01*
X372639Y55960D01*
X374629D01*
X376466Y56721D01*
X377873Y58128D01*
X378634Y59965D01*
Y61955D01*
X377873Y63792D01*
X376466Y65199D01*
X374629Y65960D01*
D02*
G37*
G36*
X804926Y44126D02*
X802446Y43800D01*
X800135Y42842D01*
X798150Y41319D01*
X796628Y39335D01*
X795670Y37024D01*
X795344Y34544D01*
X795670Y32064D01*
X796628Y29753D01*
X798150Y27768D01*
X800135Y26246D01*
X802446Y25289D01*
X804926Y24962D01*
X807406Y25289D01*
X809717Y26246D01*
X811701Y27768D01*
X813224Y29753D01*
X814182Y32064D01*
X814508Y34544D01*
X814182Y37024D01*
X813224Y39335D01*
X811701Y41319D01*
X809717Y42842D01*
X807406Y43800D01*
X804926Y44126D01*
D02*
G37*
G36*
X141986Y39300D02*
X139506Y38974D01*
X137195Y38016D01*
X135211Y36493D01*
X133688Y34509D01*
X132731Y32198D01*
X132404Y29718D01*
X132731Y27238D01*
X133688Y24927D01*
X135211Y22943D01*
X137195Y21420D01*
X139506Y20463D01*
X141986Y20136D01*
X144466Y20463D01*
X146777Y21420D01*
X148761Y22943D01*
X150284Y24927D01*
X151242Y27238D01*
X151568Y29718D01*
X151242Y32198D01*
X150284Y34509D01*
X148761Y36493D01*
X146777Y38016D01*
X144466Y38974D01*
X141986Y39300D01*
D02*
G37*
G36*
X395224Y31632D02*
X392744Y31305D01*
X390433Y30348D01*
X388448Y28826D01*
X386926Y26841D01*
X385969Y24530D01*
X385642Y22050D01*
Y16050D01*
X385969Y13570D01*
X386926Y11259D01*
X388448Y9275D01*
X390433Y7752D01*
X392744Y6794D01*
X395224Y6468D01*
X397704Y6794D01*
X400015Y7752D01*
X401999Y9275D01*
X403522Y11259D01*
X404479Y13570D01*
X404806Y16050D01*
Y22050D01*
X404479Y24530D01*
X403522Y26841D01*
X401999Y28826D01*
X400015Y30348D01*
X397704Y31305D01*
X395224Y31632D01*
D02*
G37*
G36*
X369824D02*
X367344Y31305D01*
X365033Y30348D01*
X363049Y28826D01*
X361526Y26841D01*
X360569Y24530D01*
X360242Y22050D01*
Y16050D01*
X360569Y13570D01*
X361526Y11259D01*
X363049Y9275D01*
X365033Y7752D01*
X367344Y6794D01*
X369824Y6468D01*
X372304Y6794D01*
X374615Y7752D01*
X376600Y9275D01*
X378122Y11259D01*
X379080Y13570D01*
X379406Y16050D01*
Y22050D01*
X379080Y24530D01*
X378122Y26841D01*
X376600Y28826D01*
X374615Y30348D01*
X372304Y31305D01*
X369824Y31632D01*
D02*
G37*
G36*
X319024D02*
X316544Y31305D01*
X314233Y30348D01*
X312248Y28826D01*
X310726Y26841D01*
X309769Y24530D01*
X309442Y22050D01*
Y16050D01*
X309769Y13570D01*
X310726Y11259D01*
X312248Y9275D01*
X314233Y7752D01*
X316544Y6794D01*
X319024Y6468D01*
X321504Y6794D01*
X323815Y7752D01*
X325799Y9275D01*
X327322Y11259D01*
X328279Y13570D01*
X328606Y16050D01*
Y22050D01*
X328279Y24530D01*
X327322Y26841D01*
X325799Y28826D01*
X323815Y30348D01*
X321504Y31305D01*
X319024Y31632D01*
D02*
G37*
%LPD*%
G36*
X746747Y242641D02*
X719511Y242641D01*
X705708Y256444D01*
X631874D01*
Y298444D01*
X656076D01*
X679078Y321446D01*
X720747D01*
Y343221D01*
X746747D01*
Y242641D01*
D02*
G37*
D14*
X199644Y236200D02*
X199838Y236006D01*
X199644Y236200D02*
Y281432D01*
X440182Y77216D02*
Y81534D01*
Y66548D02*
Y77216D01*
X476250Y193548D02*
X480260Y189538D01*
Y152990D02*
Y189538D01*
X479538Y197918D02*
Y205126D01*
X476250Y194630D02*
X479538Y197918D01*
X476250Y193548D02*
Y194630D01*
X439420Y51308D02*
X466598D01*
X470260Y54970D02*
Y67990D01*
X466598Y51308D02*
X470260Y54970D01*
X440182Y81534D02*
X441638Y82990D01*
X450260D01*
X628142Y500374D02*
Y517398D01*
X631190Y520446D01*
X639547Y165608D02*
X650240D01*
X582905Y108966D02*
X639547Y165608D01*
X535260Y122990D02*
X571700D01*
X574802Y119888D01*
X535260Y127990D02*
X565378D01*
X571754Y134366D01*
X567690Y108966D02*
X582905D01*
X535260Y137990D02*
X545914D01*
X548132Y140208D01*
X520260Y61400D02*
X524256Y57404D01*
X520260Y61400D02*
Y67990D01*
X510260Y61442D02*
Y67990D01*
X505206Y56388D02*
X510260Y61442D01*
X334518Y102004D02*
X340504Y107990D01*
X450260D01*
X256092Y83168D02*
X281796D01*
X311618Y112990D01*
X429600Y153416D02*
X438154D01*
X443742Y159004D02*
X454199D01*
X438154Y153416D02*
X443742Y159004D01*
X454199D02*
X460213Y152990D01*
X465260D01*
X433410Y149606D02*
X442976D01*
X429600Y153416D02*
X433410Y149606D01*
X583780Y477686D02*
X601726Y459740D01*
X541782Y477686D02*
X583780D01*
X601726Y459740D02*
X632883D01*
X529844Y489624D02*
X541782Y477686D01*
X529844Y489624D02*
Y497078D01*
X643128Y450130D02*
X652398D01*
X632883Y459740D02*
X643128Y450130D01*
X652398D02*
X652526Y450002D01*
X696214Y461178D02*
X696956D01*
X702056Y448564D02*
Y456078D01*
X696956Y461178D02*
X702056Y456078D01*
X558666Y117990D02*
X567690Y108966D01*
X535260Y117990D02*
X558666D01*
X598932Y108712D02*
X640588Y150368D01*
X556006Y48768D02*
X598932Y91694D01*
Y108712D01*
X640588Y150368D02*
X678348D01*
X765057Y199739D02*
X765470Y200152D01*
X764708Y200914D02*
X765470Y200152D01*
X576257Y178566D02*
X576761Y179070D01*
X576130Y178439D02*
X576257Y178566D01*
X576761Y179070D02*
X593852D01*
X699262Y150454D02*
X699348Y150368D01*
X699262Y150454D02*
Y167386D01*
X730747Y327383D02*
X732282Y328918D01*
Y358902D02*
X745744Y372364D01*
X732282Y328918D02*
Y358902D01*
X730747Y321221D02*
Y327383D01*
X182118Y65194D02*
X193592Y76668D01*
X200092D01*
X378816Y502716D02*
X379882Y501650D01*
X200092Y76668D02*
X227798D01*
X199838Y177506D02*
X231203D01*
X196262Y375158D02*
X254262D01*
X652780Y509610D02*
X653542Y510372D01*
Y522478D01*
X449834Y57658D02*
X463804D01*
X432476Y58842D02*
X440182Y66548D01*
X417576Y58842D02*
X432476D01*
X689188Y377698D02*
X689442Y377444D01*
X708660D01*
X479538Y205126D02*
X484638Y210226D01*
X548860Y83024D02*
X548894Y83058D01*
X535294Y83024D02*
X548860D01*
X535260Y82990D02*
X535294Y83024D01*
X498602Y48768D02*
X556006D01*
X495260Y52110D02*
X498602Y48768D01*
X495260Y52110D02*
Y67990D01*
X495554Y44196D02*
X561848D01*
X490260Y49490D02*
Y67990D01*
Y49490D02*
X495554Y44196D01*
X561848D02*
X573954Y56302D01*
X617046D01*
X122936Y178649D02*
Y186944D01*
Y178649D02*
X185917Y115668D01*
X200092D01*
X273024Y109194D02*
X293116Y129286D01*
Y141986D01*
X256118Y109194D02*
X273024D01*
X256092Y109168D02*
X256118Y109194D01*
X465260Y59114D02*
Y67990D01*
X463804Y57658D02*
X465260Y59114D01*
X272542Y229506D02*
X272542Y229506D01*
X255838Y229506D02*
X272542D01*
X271272Y216506D02*
X271272Y216506D01*
X255838Y216506D02*
X271272D01*
X255939Y203607D02*
X271171D01*
X271272Y203708D01*
X255838Y203506D02*
X255939Y203607D01*
X255962Y190630D02*
X270894D01*
X255838Y190506D02*
X255962Y190630D01*
X270894D02*
X271018Y190754D01*
X344678Y95504D02*
X352164Y102990D01*
X255838Y223006D02*
X280168D01*
X365184Y137990D01*
X450260D01*
X278944Y210006D02*
X355960Y132990D01*
X255838Y210006D02*
X278944D01*
X355960Y132990D02*
X450260D01*
X141732Y201422D02*
X146148Y197006D01*
X199838D01*
X154178Y214630D02*
X158802Y210006D01*
X199838D01*
X114510Y267252D02*
X165256Y216506D01*
X199838D01*
X166370Y228600D02*
X171964Y223006D01*
X199838D01*
X114764Y292652D02*
X177910Y229506D01*
X199838D01*
X352164Y102990D02*
X450260D01*
X199838Y210006D02*
X199864Y210032D01*
X199838Y197006D02*
X199887Y197055D01*
X99778Y191052D02*
X188162Y102668D01*
X70322Y191052D02*
X99778D01*
X188162Y102668D02*
X200092D01*
X175254Y89668D02*
X200092D01*
X99270Y165652D02*
X175254Y89668D01*
X70322Y165652D02*
X99270D01*
X114510Y216452D02*
X140456Y190506D01*
X70322Y216452D02*
X114510D01*
X140456Y190506D02*
X199838D01*
X114002Y241852D02*
X152348Y203506D01*
X199838D01*
X70322Y241852D02*
X114002D01*
X70322Y267252D02*
X114510D01*
X70322Y292652D02*
X114764D01*
X311618Y112990D02*
X450260D01*
X256092Y96168D02*
X278794D01*
X300616Y117990D02*
X450260D01*
X278794Y96168D02*
X300616Y117990D01*
X255838Y184006D02*
X275226D01*
X336242Y122990D02*
X450260D01*
X275226Y184006D02*
X336242Y122990D01*
X255838Y197006D02*
X275180D01*
X344196Y127990D02*
X450260D01*
X275180Y197006D02*
X344196Y127990D01*
X475260Y152990D02*
Y166090D01*
X439166Y202184D02*
X475260Y166090D01*
X490260Y152990D02*
Y165902D01*
X501420Y177062D01*
X452374Y180594D02*
X470260Y162708D01*
Y152990D02*
Y162708D01*
X429600Y180594D02*
X452374D01*
X429600Y202184D02*
X439166D01*
X501420Y186038D02*
X502072Y186690D01*
X501420Y177062D02*
Y186038D01*
X712724Y152400D02*
X716280Y155956D01*
X728925D01*
X712724Y140970D02*
Y152400D01*
X718312Y94234D02*
Y135382D01*
X712724Y140970D02*
X718312Y135382D01*
X702856Y87528D02*
X711606D01*
X718312Y94234D01*
D20*
X702310Y348796D02*
D03*
Y311096D02*
D03*
D21*
X617896Y536956D02*
D03*
X638896D02*
D03*
X429600Y203454D02*
D03*
X408600D02*
D03*
X429600Y178435D02*
D03*
X408600D02*
D03*
X429600Y153416D02*
D03*
X408600D02*
D03*
X349336Y520700D02*
D03*
X328336D02*
D03*
X538902Y536956D02*
D03*
X559902D02*
D03*
X566588Y373126D02*
D03*
X587588D02*
D03*
X880958Y128016D02*
D03*
X859958D02*
D03*
X826430Y150114D02*
D03*
X847430D02*
D03*
X523072Y186690D02*
D03*
X502072D02*
D03*
X835066Y106172D02*
D03*
X856066D02*
D03*
X699348Y150368D02*
D03*
X678348D02*
D03*
X826430Y171958D02*
D03*
X847430D02*
D03*
X826430Y193548D02*
D03*
X847430D02*
D03*
X569128Y328930D02*
D03*
X590128D02*
D03*
X569128Y350774D02*
D03*
X590128D02*
D03*
X590128Y307594D02*
D03*
X569128D02*
D03*
X569128Y285750D02*
D03*
X590128D02*
D03*
X237576Y254254D02*
D03*
X216576D02*
D03*
X328336Y499110D02*
D03*
X349336D02*
D03*
X328336Y477266D02*
D03*
X349336D02*
D03*
X668188Y377698D02*
D03*
X689188D02*
D03*
X599526Y536956D02*
D03*
X578526D02*
D03*
X521376Y374396D02*
D03*
X542376D02*
D03*
X503006Y374142D02*
D03*
X482006D02*
D03*
X238338Y153670D02*
D03*
X217338D02*
D03*
X699856Y125476D02*
D03*
X678856D02*
D03*
X765470Y200152D02*
D03*
X786470D02*
D03*
X442841Y374396D02*
D03*
X463841D02*
D03*
X559730Y255016D02*
D03*
X580730D02*
D03*
X512863Y257302D02*
D03*
X491863D02*
D03*
X369230Y203454D02*
D03*
X390230D02*
D03*
X369230Y178435D02*
D03*
X390230D02*
D03*
X369230Y153416D02*
D03*
X390230D02*
D03*
D22*
X652780Y488610D02*
D03*
Y509610D02*
D03*
X674370Y509610D02*
D03*
Y488610D02*
D03*
X674116Y471002D02*
D03*
Y450002D02*
D03*
X652526Y471002D02*
D03*
Y450002D02*
D03*
X806450Y152404D02*
D03*
Y131404D02*
D03*
X617046Y56302D02*
D03*
Y77302D02*
D03*
X867410Y171282D02*
D03*
Y150282D02*
D03*
X656416Y56302D02*
D03*
Y77302D02*
D03*
X806450Y191774D02*
D03*
Y170774D02*
D03*
X717804Y475828D02*
D03*
Y454828D02*
D03*
X529336Y352384D02*
D03*
Y331384D02*
D03*
X464517Y331384D02*
D03*
Y352384D02*
D03*
X507746Y331384D02*
D03*
Y352384D02*
D03*
X485902Y352384D02*
D03*
Y331384D02*
D03*
X696214Y482178D02*
D03*
Y461178D02*
D03*
X417576Y58842D02*
D03*
Y79842D02*
D03*
X395986Y58842D02*
D03*
Y79842D02*
D03*
X634318Y116672D02*
D03*
Y95672D02*
D03*
X542464Y11852D02*
D03*
Y32852D02*
D03*
X520874Y11852D02*
D03*
Y32852D02*
D03*
X516890Y227670D02*
D03*
Y206670D02*
D03*
X656416Y116672D02*
D03*
Y95672D02*
D03*
X485728Y210226D02*
D03*
Y231226D02*
D03*
X464138Y210226D02*
D03*
Y231226D02*
D03*
X576257Y157566D02*
D03*
Y178566D02*
D03*
X554667Y157566D02*
D03*
Y178566D02*
D03*
X442927Y352384D02*
D03*
Y331384D02*
D03*
X203628Y441284D02*
D03*
Y420284D02*
D03*
X225218Y441284D02*
D03*
Y420284D02*
D03*
X246808Y441284D02*
D03*
Y420284D02*
D03*
X306578Y498516D02*
D03*
Y519516D02*
D03*
D23*
X396494Y379828D02*
D03*
Y335828D02*
D03*
D24*
X530351Y274574D02*
D03*
Y287274D02*
D03*
Y299974D02*
D03*
Y312674D02*
D03*
X472851Y274574D02*
D03*
Y287274D02*
D03*
Y299974D02*
D03*
Y312674D02*
D03*
D25*
X501601Y293624D02*
D03*
D26*
X702856Y106528D02*
D03*
X675856D02*
D03*
Y97028D02*
D03*
Y87528D02*
D03*
X702856D02*
D03*
D27*
X450260Y82990D02*
D03*
Y87990D02*
D03*
Y92990D02*
D03*
Y97990D02*
D03*
Y102990D02*
D03*
Y107990D02*
D03*
Y112990D02*
D03*
Y117990D02*
D03*
Y122990D02*
D03*
Y127990D02*
D03*
Y132990D02*
D03*
X535260Y137990D02*
D03*
Y132990D02*
D03*
Y127990D02*
D03*
Y122990D02*
D03*
Y117990D02*
D03*
Y112990D02*
D03*
Y107990D02*
D03*
Y102990D02*
D03*
Y97990D02*
D03*
Y92990D02*
D03*
Y87990D02*
D03*
X450260Y137990D02*
D03*
X535260Y82990D02*
D03*
D28*
X520260Y67990D02*
D03*
X515260D02*
D03*
X510260D02*
D03*
X505260D02*
D03*
X500260D02*
D03*
X495260D02*
D03*
X490260D02*
D03*
X485260D02*
D03*
X480260D02*
D03*
X475260D02*
D03*
X470260D02*
D03*
X465260D02*
D03*
Y152990D02*
D03*
X470260D02*
D03*
X475260D02*
D03*
X480260D02*
D03*
X485260D02*
D03*
X490260D02*
D03*
X495260D02*
D03*
X500260D02*
D03*
X505260D02*
D03*
X510260D02*
D03*
X515260D02*
D03*
X520260D02*
D03*
D29*
X254262Y352158D02*
D03*
Y375158D02*
D03*
Y398158D02*
D03*
D30*
X196262Y375158D02*
D03*
D31*
X728925Y181356D02*
D03*
Y168656D02*
D03*
Y155956D02*
D03*
Y143256D02*
D03*
X782925D02*
D03*
Y155956D02*
D03*
Y168656D02*
D03*
Y181356D02*
D03*
D32*
X551942Y404374D02*
D03*
X577342D02*
D03*
X602742D02*
D03*
X628142D02*
D03*
X551942Y500374D02*
D03*
X577342D02*
D03*
X602742D02*
D03*
X628142D02*
D03*
D33*
X636604Y74050D02*
D03*
Y52950D02*
D03*
D34*
X805747Y327221D02*
D03*
X733747D02*
D03*
X805747Y258641D02*
D03*
X733747D02*
D03*
D35*
X414528Y231912D02*
D03*
Y303912D02*
D03*
D36*
X546586Y216154D02*
D03*
X639086D02*
D03*
D37*
X804926Y34544D02*
D03*
X272796Y58420D02*
D03*
X182118Y65024D02*
D03*
X144526Y518160D02*
D03*
X141986Y29718D02*
D03*
X796036Y505460D02*
D03*
X745744Y372364D02*
D03*
X359156Y541782D02*
D03*
X509524Y503428D02*
D03*
D38*
X256092Y76668D02*
D03*
Y83168D02*
D03*
Y89668D02*
D03*
Y96168D02*
D03*
Y102668D02*
D03*
Y109168D02*
D03*
Y115668D02*
D03*
Y122168D02*
D03*
Y128668D02*
D03*
Y135168D02*
D03*
X200092D02*
D03*
Y128668D02*
D03*
Y122168D02*
D03*
Y115668D02*
D03*
Y109168D02*
D03*
Y102668D02*
D03*
Y96168D02*
D03*
Y89668D02*
D03*
Y83168D02*
D03*
Y76668D02*
D03*
X199838Y177506D02*
D03*
Y184006D02*
D03*
Y190506D02*
D03*
Y197006D02*
D03*
Y203506D02*
D03*
Y210006D02*
D03*
Y216506D02*
D03*
Y223006D02*
D03*
Y229506D02*
D03*
Y236006D02*
D03*
X255838D02*
D03*
Y229506D02*
D03*
Y223006D02*
D03*
Y216506D02*
D03*
Y210006D02*
D03*
Y203506D02*
D03*
Y197006D02*
D03*
Y190506D02*
D03*
Y184006D02*
D03*
Y177506D02*
D03*
D39*
X474116Y426416D02*
D03*
Y451816D02*
D03*
Y502716D02*
D03*
X378816Y426416D02*
D03*
Y502716D02*
D03*
D40*
X355524Y266954D02*
D03*
X282524D02*
D03*
D41*
X642874Y350444D02*
D03*
Y277444D02*
D03*
X314198Y335610D02*
D03*
Y408610D02*
D03*
D68*
X532407Y206670D02*
X534391Y208654D01*
X539086D01*
X546586Y216154D01*
X504325Y206670D02*
X532407D01*
X349336Y522400D02*
X359156Y532220D01*
Y541782D01*
X237998Y254676D02*
Y270764D01*
X881380Y106172D02*
X885698Y110490D01*
X856066Y106172D02*
X881380D01*
X885698Y110490D02*
X913130D01*
X542464Y32852D02*
X559476D01*
X561340Y30988D01*
X564388Y404368D02*
X566588Y402168D01*
X564382Y404374D02*
X564388Y404368D01*
X530543Y388429D02*
Y392493D01*
X530352Y392684D02*
X530543Y392493D01*
X538776Y376218D02*
Y380196D01*
X530543Y388429D02*
X538776Y380196D01*
Y376218D02*
X541276Y373718D01*
X484009Y392684D02*
X530352D01*
X750570Y200914D02*
X764708D01*
X586488Y374226D02*
Y395228D01*
X577342Y404374D02*
X586488Y395228D01*
X577342Y402302D02*
Y404374D01*
X602742Y400524D02*
X605492Y397774D01*
X608320D02*
X611378Y394716D01*
X602742Y400524D02*
Y404374D01*
X605492Y397774D02*
X608320D01*
X577342Y402302D02*
X580092Y399552D01*
X551942Y404374D02*
X564382D01*
X566588Y373126D02*
Y402168D01*
X182118Y65024D02*
Y65194D01*
X237576Y254254D02*
X237998Y254676D01*
X227798Y76668D02*
X238338Y87208D01*
Y153670D01*
X237576Y235544D02*
Y254254D01*
X231203Y229171D02*
X237576Y235544D01*
X231203Y177506D02*
Y229171D01*
X238338Y153670D02*
Y170371D01*
X231203Y177506D02*
X238338Y170371D01*
X686938Y453602D02*
X692404Y459068D01*
X309118Y60960D02*
X373634D01*
X293624Y45466D02*
X309118Y60960D01*
X293624Y19050D02*
Y45466D01*
X484638Y210226D02*
X485728D01*
X464138D02*
X484638D01*
X617046Y56302D02*
X633252D01*
X636604Y52950D01*
X395986Y58842D02*
X417576D01*
X586488Y374226D02*
X587588Y373126D01*
X899276Y128016D02*
X907150Y135890D01*
X880958Y128016D02*
X899276D01*
X907150Y135890D02*
X913130D01*
X807042Y171366D02*
X825838D01*
X826430Y171958D01*
X806450Y170774D02*
X807042Y171366D01*
X807595Y151259D02*
X825285D01*
X826430Y150114D01*
X806450Y152404D02*
X807595Y151259D01*
X787925Y155629D02*
X791150Y152404D01*
X787925Y155629D02*
Y155706D01*
X787675Y155956D02*
X787925Y155706D01*
X791150Y152404D02*
X806450D01*
X782925Y155956D02*
X787675D01*
Y168656D02*
X789793Y170774D01*
X806450D01*
X782925Y168656D02*
X787675D01*
X657522Y96778D02*
X675606D01*
X675856Y97028D01*
X656416Y95672D02*
X657522Y96778D01*
X728925Y155956D02*
Y168656D01*
X688848Y181356D02*
X728925D01*
X678348Y170856D02*
X688848Y181356D01*
X678348Y150368D02*
Y170856D01*
X699602Y125730D02*
Y150114D01*
Y125730D02*
X699856Y125476D01*
X699348Y150368D02*
X699602Y150114D01*
X700956Y108428D02*
Y124376D01*
Y108428D02*
X702856Y106528D01*
X699856Y125476D02*
X700956Y124376D01*
X728925Y83257D02*
Y143256D01*
X695198Y75946D02*
X721614D01*
X728925Y83257D01*
X675554Y56302D02*
X695198Y75946D01*
X656416Y56302D02*
X675554D01*
X636604Y52950D02*
X653064D01*
X656416Y56302D01*
X637604Y75050D02*
X654164D01*
X636604Y74050D02*
X637604Y75050D01*
X654164D02*
X656416Y77302D01*
X656416Y77302D02*
Y95672D01*
Y77302D02*
X656416Y77302D01*
X501396Y187366D02*
X502072Y186690D01*
X501396Y203741D02*
X504325Y206670D01*
X501396Y187366D02*
Y203741D01*
X307170Y520108D02*
X327744D01*
X306578Y519516D02*
X307170Y520108D01*
X327744D02*
X328336Y520700D01*
X674370Y509610D02*
X674370Y509610D01*
Y522986D01*
X677716Y453602D02*
X686938D01*
X674116Y450002D02*
X677716Y453602D01*
X652780Y488610D02*
X674370D01*
X613044Y479072D02*
X632301D01*
X603992Y488124D02*
X613044Y479072D01*
X603992Y488124D02*
Y499124D01*
X602742Y500374D02*
X603992Y499124D01*
X649180Y485010D02*
X652780Y488610D01*
X632301Y479072D02*
X638239Y485010D01*
X649180D01*
X602742Y500374D02*
Y501609D01*
X603992Y502859D02*
X611063D01*
X614296Y506092D02*
Y533356D01*
X602742Y501609D02*
X603992Y502859D01*
X611063D02*
X614296Y506092D01*
Y533356D02*
X617896Y536956D01*
D69*
X541276Y373718D02*
X542376Y372618D01*
X483106Y353484D02*
Y390257D01*
X484009Y392684D02*
X484771Y391922D01*
X477388Y399305D02*
X484009Y392684D01*
X396494Y379828D02*
X414921D01*
X352962D02*
X396494D01*
X349336Y520700D02*
Y522400D01*
X532017Y178439D02*
X576130D01*
X889000Y156718D02*
Y175489D01*
X867410Y150282D02*
X882564D01*
X894858Y181347D02*
X913587D01*
X882564Y150282D02*
X889000Y156718D01*
Y175489D02*
X894858Y181347D01*
X913587D02*
X914400Y182160D01*
X867326Y150198D02*
X867410Y150282D01*
X617046Y77302D02*
Y89814D01*
X621804Y94572D02*
X633218D01*
X617046Y89814D02*
X621804Y94572D01*
X617046Y77302D02*
X618746D01*
X633218Y94572D02*
X634318Y95672D01*
X618746Y77302D02*
X619846Y78402D01*
X390230Y203454D02*
X408600D01*
X390230Y178435D02*
X408600D01*
X520874Y32852D02*
X542464D01*
X349336Y477266D02*
Y500810D01*
X254262Y408800D02*
Y414530D01*
Y398158D02*
Y408800D01*
X196262Y375158D02*
Y414618D01*
Y349460D02*
Y375158D01*
Y316564D02*
Y349460D01*
Y414618D02*
X201928Y420284D01*
X203628D01*
X419921Y399305D02*
X477388D01*
X419921D02*
Y437701D01*
Y384828D02*
Y399305D01*
Y437701D02*
X434036Y451816D01*
X414921Y379828D02*
X419921Y384828D01*
X434036Y451816D02*
X474116D01*
X847430Y215732D02*
X890058Y258360D01*
X914400D01*
X847430Y193548D02*
Y215732D01*
X523072Y184990D02*
X524172Y183890D01*
X523072Y184990D02*
Y186690D01*
X526566Y183890D02*
X532017Y178439D01*
X524172Y183890D02*
X526566D01*
X453595Y331384D02*
X464517D01*
X442927D02*
X453595D01*
X867410Y194818D02*
X892852Y220260D01*
X914400D01*
X867410Y171282D02*
Y194818D01*
X847514Y150198D02*
X867326D01*
X847430Y150114D02*
X847514Y150198D01*
X847768Y171620D02*
X867072D01*
X847430Y171958D02*
X847768Y171620D01*
X867072D02*
X867410Y171282D01*
X390230Y153416D02*
X408600D01*
X196262Y316564D02*
X203708Y309118D01*
X267716D01*
X282524Y294310D01*
Y266954D02*
Y294310D01*
X401494Y330828D02*
X414528D01*
X396494Y335828D02*
X401494Y330828D01*
X314198Y408610D02*
X317734D01*
X320198Y406146D02*
X337042D01*
X317734Y408610D02*
X320198Y406146D01*
X342900Y389890D02*
Y400288D01*
Y389890D02*
X352962Y379828D01*
X337042Y406146D02*
X342900Y400288D01*
X292608Y406908D02*
X312496D01*
X246808Y420284D02*
X248508D01*
X254262Y414530D01*
X225218Y420284D02*
X246808D01*
X283858Y398158D02*
X292608Y406908D01*
X254262Y398158D02*
X283858D01*
X349336Y500810D02*
X351242Y502716D01*
X349336Y500810D02*
Y520700D01*
X349336Y477266D02*
X349336Y477266D01*
X351242Y502716D02*
X378816D01*
X385318Y537464D02*
X538394D01*
X378816Y530962D02*
X385318Y537464D01*
X378816Y502716D02*
Y530962D01*
X876386Y454828D02*
X882354Y448860D01*
X914400D01*
X717804Y454828D02*
X876386D01*
X483106Y353484D02*
X484206Y352384D01*
X485902D01*
X463841Y353060D02*
X464517Y352384D01*
X463841Y353060D02*
Y372618D01*
X507746Y352384D02*
X529336D01*
X485902Y331384D02*
X507746D01*
X484835Y330317D02*
X485902Y331384D01*
X638988Y273558D02*
X642874Y277444D01*
D70*
X802640Y115062D02*
X807212Y119634D01*
X801370Y115062D02*
X802640D01*
X827446Y89662D02*
X832723D01*
X835066Y92005D01*
Y106172D01*
X561340Y508508D02*
X569474Y500374D01*
X559902Y536956D02*
X561340Y535518D01*
Y508508D02*
Y535518D01*
X542002Y546903D02*
X545517Y550418D01*
X571911D02*
X575426Y546903D01*
X542002Y540056D02*
Y546903D01*
X545517Y550418D02*
X571911D01*
X575426Y540056D02*
Y546903D01*
X806450Y131404D02*
X807212Y130642D01*
Y119634D02*
Y130642D01*
X765057Y183808D02*
Y199739D01*
Y183808D02*
X767509Y181356D01*
X782925D01*
X414528Y287274D02*
Y303912D01*
Y287274D02*
X427228Y274574D01*
X472851D01*
X453898Y304292D02*
Y331081D01*
X453595Y331384D02*
X453898Y331081D01*
Y304292D02*
X458216Y299974D01*
X472851D01*
X652526Y471002D02*
X674116D01*
X577342Y489562D02*
Y500374D01*
X579092Y487812D02*
X590550D01*
X607360Y471002D02*
X652526D01*
X577342Y489562D02*
X579092Y487812D01*
X590550D02*
X607360Y471002D01*
X569474Y500374D02*
X577342D01*
X442927Y331384D02*
X442927Y331384D01*
X480826Y312674D02*
X481076Y312924D01*
Y317868D02*
X484835Y321627D01*
X481076Y312924D02*
Y317868D01*
X472851Y312674D02*
X480826D01*
X484835Y321627D02*
Y330317D01*
X472851Y264257D02*
Y274574D01*
X479806Y257302D02*
X491863D01*
X472851Y264257D02*
X479806Y257302D01*
X528008D02*
X530351Y259645D01*
X512863Y257302D02*
X528008D01*
X530351Y259645D02*
Y274574D01*
X560070Y350901D02*
X569001D01*
X569128Y350774D01*
X550926Y341757D02*
X560070Y350901D01*
X550926Y318008D02*
Y341757D01*
X545592Y312674D02*
X550926Y318008D01*
X530351Y312674D02*
X545592D01*
X590128Y285750D02*
Y307594D01*
X569128D02*
Y328930D01*
X548640Y299974D02*
X556260Y307594D01*
X569128D01*
X530351Y299974D02*
X548640D01*
X530351Y287274D02*
X567604D01*
X569128Y285750D01*
D71*
X538902Y536956D02*
X542002Y540056D01*
X575426D02*
X578526Y536956D01*
X538394Y537464D02*
X538902Y536956D01*
X551942Y500374D02*
Y508859D01*
X542707Y509609D02*
X551192D01*
X538902Y513414D02*
Y536956D01*
X551192Y509609D02*
X551942Y508859D01*
X538902Y513414D02*
X542707Y509609D01*
D72*
X414528Y303912D02*
Y330828D01*
D73*
X569228Y276327D02*
Y285650D01*
X569128Y285750D02*
X569228Y285650D01*
X580630Y255116D02*
Y264925D01*
X569228Y276327D02*
X580630Y264925D01*
Y255116D02*
X580730Y255016D01*
X627380Y273558D02*
X638988D01*
X608838Y255016D02*
X627380Y273558D01*
X580730Y255016D02*
X608838D01*
D74*
X293624Y19050D02*
D03*
X319024D02*
D03*
X344424D02*
D03*
X369824D02*
D03*
X395224D02*
D03*
D75*
X913130Y110490D02*
D03*
Y135890D02*
D03*
X914400Y182160D02*
D03*
Y220260D02*
D03*
Y258360D02*
D03*
Y296460D02*
D03*
Y334560D02*
D03*
Y372660D02*
D03*
Y410760D02*
D03*
Y448860D02*
D03*
D76*
X70322Y394252D02*
D03*
Y368852D02*
D03*
Y343452D02*
D03*
Y318052D02*
D03*
Y292652D02*
D03*
Y267252D02*
D03*
Y241852D02*
D03*
Y216452D02*
D03*
Y191052D02*
D03*
Y165652D02*
D03*
X44922Y394252D02*
D03*
Y368852D02*
D03*
Y343452D02*
D03*
Y318052D02*
D03*
Y292652D02*
D03*
Y267252D02*
D03*
Y241852D02*
D03*
Y216452D02*
D03*
Y191052D02*
D03*
Y165652D02*
D03*
D77*
X493981Y283464D02*
D03*
Y293624D02*
D03*
Y303784D02*
D03*
X509221D02*
D03*
Y293624D02*
D03*
Y283464D02*
D03*
X199644Y281432D02*
D03*
X237998Y270764D02*
D03*
X827446Y89662D02*
D03*
X530352Y392684D02*
D03*
X514858Y419862D02*
D03*
X506349D02*
D03*
X497840D02*
D03*
X514858Y427736D02*
D03*
X506349D02*
D03*
X497840D02*
D03*
X631190Y520446D02*
D03*
X529844Y497078D02*
D03*
X702056Y448564D02*
D03*
X158750Y394208D02*
D03*
Y404114D02*
D03*
Y415036D02*
D03*
Y425450D02*
D03*
X147066D02*
D03*
Y415036D02*
D03*
Y404114D02*
D03*
Y394208D02*
D03*
X696214Y261112D02*
D03*
Y271018D02*
D03*
Y281940D02*
D03*
Y292354D02*
D03*
X707898D02*
D03*
Y281940D02*
D03*
Y271018D02*
D03*
Y261112D02*
D03*
X650240Y165608D02*
D03*
X807212Y119634D02*
D03*
X564388Y404368D02*
D03*
X593852Y179070D02*
D03*
X699262Y167386D02*
D03*
X750570Y200914D02*
D03*
X801370Y115062D02*
D03*
X254262Y408800D02*
D03*
X342646Y539750D02*
D03*
X330962Y540004D02*
D03*
X479552Y513842D02*
D03*
X466598Y514096D02*
D03*
X653542Y522478D02*
D03*
X611378Y394716D02*
D03*
X587502Y394970D02*
D03*
X574802Y119888D02*
D03*
X571754Y134366D02*
D03*
X439420Y51308D02*
D03*
X440182Y77216D02*
D03*
X449834Y57658D02*
D03*
X490260Y165902D02*
D03*
X505206Y56388D02*
D03*
X708660Y377444D02*
D03*
X524256Y57404D02*
D03*
X561340Y30988D02*
D03*
X373634Y60960D02*
D03*
X476250Y193548D02*
D03*
X548132Y140208D02*
D03*
X548894Y83058D02*
D03*
X122936Y186944D02*
D03*
X442976Y149606D02*
D03*
X293116Y141986D02*
D03*
X272542Y229506D02*
D03*
X271272Y216506D02*
D03*
X271018Y190754D02*
D03*
X271272Y203708D02*
D03*
X334518Y102004D02*
D03*
X344678Y95504D02*
D03*
X141732Y201422D02*
D03*
X154178Y214630D02*
D03*
X166370Y228600D02*
D03*
X196262Y349460D02*
D03*
X674370Y522986D02*
D03*
M02*
