G04*
G04 #@! TF.GenerationSoftware,Altium Limited,Altium Designer,23.8.1 (32)*
G04*
G04 Layer_Color=16711935*
%FSLAX44Y44*%
%MOMM*%
G71*
G04*
G04 #@! TF.SameCoordinates,5CA60E89-82B3-479B-9089-D34F769FB2F0*
G04*
G04*
G04 #@! TF.FilePolarity,Positive*
G04*
G01*
G75*
%ADD18C,0.1000*%
D18*
X57622Y490952D02*
G03*
X87622Y520952I0J30000D01*
G01*
D02*
G03*
X57622Y550952I-30000J0D01*
G01*
D02*
G03*
X27622Y520952I0J-30000D01*
G01*
D02*
G03*
X57622Y490952I30000J0D01*
G01*
X225122Y507452D02*
G03*
X247622Y529952I0J22500D01*
G01*
D02*
G03*
X225122Y552452I-22500J0D01*
G01*
D02*
G03*
X202622Y529952I0J-22500D01*
G01*
D02*
G03*
X225122Y507452I22500J0D01*
G01*
X725122D02*
G03*
X747622Y529952I0J22500D01*
G01*
D02*
G03*
X725122Y552452I-22500J0D01*
G01*
D02*
G03*
X702622Y529952I0J-22500D01*
G01*
D02*
G03*
X725122Y507452I22500J0D01*
G01*
X892622Y490952D02*
G03*
X922622Y520952I0J30000D01*
G01*
D02*
G03*
X892622Y550952I-30000J0D01*
G01*
D02*
G03*
X862622Y520952I0J-30000D01*
G01*
D02*
G03*
X892622Y490952I30000J0D01*
G01*
Y68952D02*
G03*
X862622Y38952I0J-30000D01*
G01*
X922622D02*
G03*
X892622Y68952I-30000J0D01*
G01*
Y8952D02*
G03*
X922622Y38952I0J30000D01*
G01*
X862622D02*
G03*
X892622Y8952I30000J0D01*
G01*
X725122Y52452D02*
G03*
X702622Y29952I0J-22500D01*
G01*
X747622D02*
G03*
X725122Y52452I-22500J0D01*
G01*
Y7452D02*
G03*
X747622Y29952I0J22500D01*
G01*
X702622D02*
G03*
X725122Y7452I22500J0D01*
G01*
X225122D02*
G03*
X247622Y29952I0J22500D01*
G01*
D02*
G03*
X225122Y52452I-22500J0D01*
G01*
D02*
G03*
X202622Y29952I0J-22500D01*
G01*
D02*
G03*
X225122Y7452I22500J0D01*
G01*
X57622Y8952D02*
G03*
X87622Y38952I0J30000D01*
G01*
D02*
G03*
X57622Y68952I-30000J0D01*
G01*
D02*
G03*
X27622Y38952I0J-30000D01*
G01*
D02*
G03*
X57622Y8952I30000J0D01*
G01*
X950500Y560000D02*
G03*
X950000Y560500I-500J0D01*
G01*
X950500Y560000D02*
G03*
X950000Y560500I-500J0D01*
G01*
X922122Y520952D02*
G03*
X892622Y550452I-29500J0D01*
G01*
D02*
G03*
X863122Y520952I0J-29500D01*
G01*
X892622Y491452D02*
G03*
X922122Y520952I0J29500D01*
G01*
X863122D02*
G03*
X892622Y491452I29500J0D01*
G01*
X725122Y507952D02*
G03*
X747122Y529952I0J22000D01*
G01*
D02*
G03*
X725122Y551952I-22000J0D01*
G01*
D02*
G03*
X703122Y529952I0J-22000D01*
G01*
D02*
G03*
X725122Y507952I22000J0D01*
G01*
X922122Y38952D02*
G03*
X892622Y68452I-29500J0D01*
G01*
D02*
G03*
X863122Y38952I0J-29500D01*
G01*
X892622Y9452D02*
G03*
X922122Y38952I0J29500D01*
G01*
X950000Y-500D02*
G03*
X950500Y0I0J500D01*
G01*
X950000Y-500D02*
G03*
X950500Y0I0J500D01*
G01*
X863122Y38952D02*
G03*
X892622Y9452I29500J0D01*
G01*
X747122Y29952D02*
G03*
X725122Y51952I-22000J0D01*
G01*
D02*
G03*
X703122Y29952I0J-22000D01*
G01*
X725122Y7952D02*
G03*
X747122Y29952I0J22000D01*
G01*
X703122D02*
G03*
X725122Y7952I22000J0D01*
G01*
X247122Y529952D02*
G03*
X225122Y551952I-22000J0D01*
G01*
D02*
G03*
X203122Y529952I0J-22000D01*
G01*
X225122Y507952D02*
G03*
X247122Y529952I0J22000D01*
G01*
X203122D02*
G03*
X225122Y507952I22000J0D01*
G01*
X87122Y520952D02*
G03*
X57622Y550452I-29500J0D01*
G01*
X0Y560500D02*
G03*
X-500Y560000I0J-500D01*
G01*
X57622Y550452D02*
G03*
X28122Y520952I0J-29500D01*
G01*
X0Y560500D02*
G03*
X-500Y560000I0J-500D01*
G01*
X57622Y491452D02*
G03*
X87122Y520952I0J29500D01*
G01*
X28122D02*
G03*
X57622Y491452I29500J0D01*
G01*
X247122Y29952D02*
G03*
X225122Y51952I-22000J0D01*
G01*
D02*
G03*
X203122Y29952I0J-22000D01*
G01*
X225122Y7952D02*
G03*
X247122Y29952I0J22000D01*
G01*
X203122D02*
G03*
X225122Y7952I22000J0D01*
G01*
X87122Y38952D02*
G03*
X57622Y68452I-29500J0D01*
G01*
D02*
G03*
X28122Y38952I0J-29500D01*
G01*
X57622Y9452D02*
G03*
X87122Y38952I0J29500D01*
G01*
X28122D02*
G03*
X57622Y9452I29500J0D01*
G01*
X-500Y0D02*
G03*
X0Y-500I500J0D01*
G01*
X-500Y0D02*
G03*
X0Y-500I500J0D01*
G01*
Y0D02*
Y560000D01*
X950000D01*
Y0D02*
Y560000D01*
X0Y0D02*
X950000D01*
X950500D02*
Y560000D01*
X0Y560500D02*
X950000D01*
X0Y-500D02*
X950000D01*
X-500Y0D02*
Y560000D01*
M02*
