G04*
G04 #@! TF.GenerationSoftware,Altium Limited,Altium Designer,23.8.1 (32)*
G04*
G04 Layer_Color=8388736*
%FSLAX44Y44*%
%MOMM*%
G71*
G04*
G04 #@! TF.SameCoordinates,5CA60E89-82B3-479B-9089-D34F769FB2F0*
G04*
G04*
G04 #@! TF.FilePolarity,Negative*
G04*
G01*
G75*
%ADD25R,2.4000X3.1000*%
G04:AMPARAMS|DCode=42|XSize=2.2732mm|YSize=2.2632mm|CornerRadius=0.2046mm|HoleSize=0mm|Usage=FLASHONLY|Rotation=270.000|XOffset=0mm|YOffset=0mm|HoleType=Round|Shape=RoundedRectangle|*
%AMROUNDEDRECTD42*
21,1,2.2732,1.8540,0,0,270.0*
21,1,1.8640,2.2632,0,0,270.0*
1,1,0.4092,-0.9270,-0.9320*
1,1,0.4092,-0.9270,0.9320*
1,1,0.4092,0.9270,0.9320*
1,1,0.4092,0.9270,-0.9320*
%
%ADD42ROUNDEDRECTD42*%
G04:AMPARAMS|DCode=43|XSize=1.66mm|YSize=1.32mm|CornerRadius=0.111mm|HoleSize=0mm|Usage=FLASHONLY|Rotation=270.000|XOffset=0mm|YOffset=0mm|HoleType=Round|Shape=RoundedRectangle|*
%AMROUNDEDRECTD43*
21,1,1.6600,1.0980,0,0,270.0*
21,1,1.4380,1.3200,0,0,270.0*
1,1,0.2220,-0.5490,-0.7190*
1,1,0.2220,-0.5490,0.7190*
1,1,0.2220,0.5490,0.7190*
1,1,0.2220,0.5490,-0.7190*
%
%ADD43ROUNDEDRECTD43*%
G04:AMPARAMS|DCode=44|XSize=1.66mm|YSize=1.32mm|CornerRadius=0.111mm|HoleSize=0mm|Usage=FLASHONLY|Rotation=0.000|XOffset=0mm|YOffset=0mm|HoleType=Round|Shape=RoundedRectangle|*
%AMROUNDEDRECTD44*
21,1,1.6600,1.0980,0,0,0.0*
21,1,1.4380,1.3200,0,0,0.0*
1,1,0.2220,0.7190,-0.5490*
1,1,0.2220,-0.7190,-0.5490*
1,1,0.2220,-0.7190,0.5490*
1,1,0.2220,0.7190,0.5490*
%
%ADD44ROUNDEDRECTD44*%
%ADD45R,5.8000X2.1000*%
G04:AMPARAMS|DCode=46|XSize=0.55mm|YSize=2.25mm|CornerRadius=0.0613mm|HoleSize=0mm|Usage=FLASHONLY|Rotation=270.000|XOffset=0mm|YOffset=0mm|HoleType=Round|Shape=RoundedRectangle|*
%AMROUNDEDRECTD46*
21,1,0.5500,2.1275,0,0,270.0*
21,1,0.4275,2.2500,0,0,270.0*
1,1,0.1225,-1.0638,-0.2138*
1,1,0.1225,-1.0638,0.2138*
1,1,0.1225,1.0638,0.2138*
1,1,0.1225,1.0638,-0.2138*
%
%ADD46ROUNDEDRECTD46*%
%ADD47R,1.1000X0.6500*%
G04:AMPARAMS|DCode=48|XSize=1.1mm|YSize=0.32mm|CornerRadius=0.0555mm|HoleSize=0mm|Usage=FLASHONLY|Rotation=180.000|XOffset=0mm|YOffset=0mm|HoleType=Round|Shape=RoundedRectangle|*
%AMROUNDEDRECTD48*
21,1,1.1000,0.2090,0,0,180.0*
21,1,0.9890,0.3200,0,0,180.0*
1,1,0.1110,-0.4945,0.1045*
1,1,0.1110,0.4945,0.1045*
1,1,0.1110,0.4945,-0.1045*
1,1,0.1110,-0.4945,-0.1045*
%
%ADD48ROUNDEDRECTD48*%
G04:AMPARAMS|DCode=49|XSize=1.1mm|YSize=0.32mm|CornerRadius=0.0555mm|HoleSize=0mm|Usage=FLASHONLY|Rotation=270.000|XOffset=0mm|YOffset=0mm|HoleType=Round|Shape=RoundedRectangle|*
%AMROUNDEDRECTD49*
21,1,1.1000,0.2090,0,0,270.0*
21,1,0.9890,0.3200,0,0,270.0*
1,1,0.1110,-0.1045,-0.4945*
1,1,0.1110,-0.1045,0.4945*
1,1,0.1110,0.1045,0.4945*
1,1,0.1110,0.1045,-0.4945*
%
%ADD49ROUNDEDRECTD49*%
G04:AMPARAMS|DCode=50|XSize=1.1532mm|YSize=2.3532mm|CornerRadius=0.1491mm|HoleSize=0mm|Usage=FLASHONLY|Rotation=90.000|XOffset=0mm|YOffset=0mm|HoleType=Round|Shape=RoundedRectangle|*
%AMROUNDEDRECTD50*
21,1,1.1532,2.0550,0,0,90.0*
21,1,0.8550,2.3532,0,0,90.0*
1,1,0.2982,1.0275,0.4275*
1,1,0.2982,1.0275,-0.4275*
1,1,0.2982,-1.0275,-0.4275*
1,1,0.2982,-1.0275,0.4275*
%
%ADD50ROUNDEDRECTD50*%
G04:AMPARAMS|DCode=51|XSize=3.4532mm|YSize=2.3532mm|CornerRadius=0.2091mm|HoleSize=0mm|Usage=FLASHONLY|Rotation=270.000|XOffset=0mm|YOffset=0mm|HoleType=Round|Shape=RoundedRectangle|*
%AMROUNDEDRECTD51*
21,1,3.4532,1.9350,0,0,270.0*
21,1,3.0350,2.3532,0,0,270.0*
1,1,0.4182,-0.9675,-1.5175*
1,1,0.4182,-0.9675,1.5175*
1,1,0.4182,0.9675,1.5175*
1,1,0.4182,0.9675,-1.5175*
%
%ADD51ROUNDEDRECTD51*%
G04:AMPARAMS|DCode=52|XSize=0.8032mm|YSize=1.7532mm|CornerRadius=0.1316mm|HoleSize=0mm|Usage=FLASHONLY|Rotation=270.000|XOffset=0mm|YOffset=0mm|HoleType=Round|Shape=RoundedRectangle|*
%AMROUNDEDRECTD52*
21,1,0.8032,1.4900,0,0,270.0*
21,1,0.5400,1.7532,0,0,270.0*
1,1,0.2632,-0.7450,-0.2700*
1,1,0.2632,-0.7450,0.2700*
1,1,0.2632,0.7450,0.2700*
1,1,0.2632,0.7450,-0.2700*
%
%ADD52ROUNDEDRECTD52*%
G04:AMPARAMS|DCode=53|XSize=3.05mm|YSize=0.85mm|CornerRadius=0.0688mm|HoleSize=0mm|Usage=FLASHONLY|Rotation=90.000|XOffset=0mm|YOffset=0mm|HoleType=Round|Shape=RoundedRectangle|*
%AMROUNDEDRECTD53*
21,1,3.0500,0.7125,0,0,90.0*
21,1,2.9125,0.8500,0,0,90.0*
1,1,0.1375,0.3563,1.4563*
1,1,0.1375,0.3563,-1.4563*
1,1,0.1375,-0.3563,-1.4563*
1,1,0.1375,-0.3563,1.4563*
%
%ADD53ROUNDEDRECTD53*%
G04:AMPARAMS|DCode=54|XSize=0.8mm|YSize=0.8mm|CornerRadius=0.1025mm|HoleSize=0mm|Usage=FLASHONLY|Rotation=90.000|XOffset=0mm|YOffset=0mm|HoleType=Round|Shape=RoundedRectangle|*
%AMROUNDEDRECTD54*
21,1,0.8000,0.5950,0,0,90.0*
21,1,0.5950,0.8000,0,0,90.0*
1,1,0.2050,0.2975,0.2975*
1,1,0.2050,0.2975,-0.2975*
1,1,0.2050,-0.2975,-0.2975*
1,1,0.2050,-0.2975,0.2975*
%
%ADD54ROUNDEDRECTD54*%
G04:AMPARAMS|DCode=55|XSize=2.8032mm|YSize=3.4032mm|CornerRadius=0.2316mm|HoleSize=0mm|Usage=FLASHONLY|Rotation=180.000|XOffset=0mm|YOffset=0mm|HoleType=Round|Shape=RoundedRectangle|*
%AMROUNDEDRECTD55*
21,1,2.8032,2.9400,0,0,180.0*
21,1,2.3400,3.4032,0,0,180.0*
1,1,0.4632,-1.1700,1.4700*
1,1,0.4632,1.1700,1.4700*
1,1,0.4632,1.1700,-1.4700*
1,1,0.4632,-1.1700,-1.4700*
%
%ADD55ROUNDEDRECTD55*%
G04:AMPARAMS|DCode=56|XSize=2.8032mm|YSize=3.4032mm|CornerRadius=0.2316mm|HoleSize=0mm|Usage=FLASHONLY|Rotation=90.000|XOffset=0mm|YOffset=0mm|HoleType=Round|Shape=RoundedRectangle|*
%AMROUNDEDRECTD56*
21,1,2.8032,2.9400,0,0,90.0*
21,1,2.3400,3.4032,0,0,90.0*
1,1,0.4632,1.4700,1.1700*
1,1,0.4632,1.4700,-1.1700*
1,1,0.4632,-1.4700,-1.1700*
1,1,0.4632,-1.4700,1.1700*
%
%ADD56ROUNDEDRECTD56*%
%ADD57R,2.8500X2.1000*%
%ADD58C,1.1000*%
%ADD59R,1.6500X0.3500*%
G04:AMPARAMS|DCode=60|XSize=1.37mm|YSize=2.64mm|CornerRadius=0.0818mm|HoleSize=0mm|Usage=FLASHONLY|Rotation=90.000|XOffset=0mm|YOffset=0mm|HoleType=Round|Shape=RoundedRectangle|*
%AMROUNDEDRECTD60*
21,1,1.3700,2.4765,0,0,90.0*
21,1,1.2065,2.6400,0,0,90.0*
1,1,0.1635,1.2383,0.6033*
1,1,0.1635,1.2383,-0.6033*
1,1,0.1635,-1.2383,-0.6033*
1,1,0.1635,-1.2383,0.6033*
%
%ADD60ROUNDEDRECTD60*%
%ADD61R,4.4032X2.4032*%
%ADD62R,2.4032X4.4032*%
%ADD63O,1.6000X2.2000*%
%ADD64O,3.2032X2.2032*%
%ADD65C,2.0032*%
%ADD66C,0.8032*%
%ADD67C,0.7000*%
D25*
X501601Y293624D02*
D03*
D42*
X702310Y348796D02*
D03*
Y311096D02*
D03*
D43*
X617896Y536956D02*
D03*
X638896D02*
D03*
X429600Y203454D02*
D03*
X408600D02*
D03*
X429600Y178435D02*
D03*
X408600D02*
D03*
X429600Y153416D02*
D03*
X408600D02*
D03*
X349336Y520700D02*
D03*
X328336D02*
D03*
X538902Y536956D02*
D03*
X559902D02*
D03*
X566588Y373126D02*
D03*
X587588D02*
D03*
X880958Y128016D02*
D03*
X859958D02*
D03*
X826430Y150114D02*
D03*
X847430D02*
D03*
X523072Y186690D02*
D03*
X502072D02*
D03*
X835066Y106172D02*
D03*
X856066D02*
D03*
X699348Y150368D02*
D03*
X678348D02*
D03*
X826430Y171958D02*
D03*
X847430D02*
D03*
X826430Y193548D02*
D03*
X847430D02*
D03*
X569128Y328930D02*
D03*
X590128D02*
D03*
X569128Y350774D02*
D03*
X590128D02*
D03*
X590128Y307594D02*
D03*
X569128D02*
D03*
X569128Y285750D02*
D03*
X590128D02*
D03*
X237576Y254254D02*
D03*
X216576D02*
D03*
X328336Y499110D02*
D03*
X349336D02*
D03*
X328336Y477266D02*
D03*
X349336D02*
D03*
X668188Y377698D02*
D03*
X689188D02*
D03*
X599526Y536956D02*
D03*
X578526D02*
D03*
X521376Y374396D02*
D03*
X542376D02*
D03*
X503006Y374142D02*
D03*
X482006D02*
D03*
X238338Y153670D02*
D03*
X217338D02*
D03*
X699856Y125476D02*
D03*
X678856D02*
D03*
X765470Y200152D02*
D03*
X786470D02*
D03*
X442841Y374396D02*
D03*
X463841D02*
D03*
X559730Y255016D02*
D03*
X580730D02*
D03*
X512863Y257302D02*
D03*
X491863D02*
D03*
X369230Y203454D02*
D03*
X390230D02*
D03*
X369230Y178435D02*
D03*
X390230D02*
D03*
X369230Y153416D02*
D03*
X390230D02*
D03*
D44*
X652780Y488610D02*
D03*
Y509610D02*
D03*
X674370Y509610D02*
D03*
Y488610D02*
D03*
X674116Y471002D02*
D03*
Y450002D02*
D03*
X652526Y471002D02*
D03*
Y450002D02*
D03*
X806450Y152404D02*
D03*
Y131404D02*
D03*
X617046Y56302D02*
D03*
Y77302D02*
D03*
X867410Y171282D02*
D03*
Y150282D02*
D03*
X656416Y56302D02*
D03*
Y77302D02*
D03*
X806450Y191774D02*
D03*
Y170774D02*
D03*
X717804Y475828D02*
D03*
Y454828D02*
D03*
X529336Y352384D02*
D03*
Y331384D02*
D03*
X464517Y331384D02*
D03*
Y352384D02*
D03*
X507746Y331384D02*
D03*
Y352384D02*
D03*
X485902Y352384D02*
D03*
Y331384D02*
D03*
X696214Y482178D02*
D03*
Y461178D02*
D03*
X417576Y58842D02*
D03*
Y79842D02*
D03*
X395986Y58842D02*
D03*
Y79842D02*
D03*
X634318Y116672D02*
D03*
Y95672D02*
D03*
X542464Y11852D02*
D03*
Y32852D02*
D03*
X520874Y11852D02*
D03*
Y32852D02*
D03*
X516890Y227670D02*
D03*
Y206670D02*
D03*
X656416Y116672D02*
D03*
Y95672D02*
D03*
X485728Y210226D02*
D03*
Y231226D02*
D03*
X464138Y210226D02*
D03*
Y231226D02*
D03*
X576257Y157566D02*
D03*
Y178566D02*
D03*
X554667Y157566D02*
D03*
Y178566D02*
D03*
X442927Y352384D02*
D03*
Y331384D02*
D03*
X203628Y441284D02*
D03*
Y420284D02*
D03*
X225218Y441284D02*
D03*
Y420284D02*
D03*
X246808Y441284D02*
D03*
Y420284D02*
D03*
X306578Y498516D02*
D03*
Y519516D02*
D03*
D45*
X396494Y379828D02*
D03*
Y335828D02*
D03*
D46*
X530351Y274574D02*
D03*
Y287274D02*
D03*
Y299974D02*
D03*
Y312674D02*
D03*
X472851Y274574D02*
D03*
Y287274D02*
D03*
Y299974D02*
D03*
Y312674D02*
D03*
D47*
X702856Y106528D02*
D03*
X675856D02*
D03*
Y97028D02*
D03*
Y87528D02*
D03*
X702856D02*
D03*
D48*
X450260Y82990D02*
D03*
Y87990D02*
D03*
Y92990D02*
D03*
Y97990D02*
D03*
Y102990D02*
D03*
Y107990D02*
D03*
Y112990D02*
D03*
Y117990D02*
D03*
Y122990D02*
D03*
Y127990D02*
D03*
Y132990D02*
D03*
X535260Y137990D02*
D03*
Y132990D02*
D03*
Y127990D02*
D03*
Y122990D02*
D03*
Y117990D02*
D03*
Y112990D02*
D03*
Y107990D02*
D03*
Y102990D02*
D03*
Y97990D02*
D03*
Y92990D02*
D03*
Y87990D02*
D03*
X450260Y137990D02*
D03*
X535260Y82990D02*
D03*
D49*
X520260Y67990D02*
D03*
X515260D02*
D03*
X510260D02*
D03*
X505260D02*
D03*
X500260D02*
D03*
X495260D02*
D03*
X490260D02*
D03*
X485260D02*
D03*
X480260D02*
D03*
X475260D02*
D03*
X470260D02*
D03*
X465260D02*
D03*
Y152990D02*
D03*
X470260D02*
D03*
X475260D02*
D03*
X480260D02*
D03*
X485260D02*
D03*
X490260D02*
D03*
X495260D02*
D03*
X500260D02*
D03*
X505260D02*
D03*
X510260D02*
D03*
X515260D02*
D03*
X520260D02*
D03*
D50*
X254262Y352158D02*
D03*
Y375158D02*
D03*
Y398158D02*
D03*
D51*
X196262Y375158D02*
D03*
D52*
X728925Y181356D02*
D03*
Y168656D02*
D03*
Y155956D02*
D03*
Y143256D02*
D03*
X782925D02*
D03*
Y155956D02*
D03*
Y168656D02*
D03*
Y181356D02*
D03*
D53*
X551942Y404374D02*
D03*
X577342D02*
D03*
X602742D02*
D03*
X628142D02*
D03*
X551942Y500374D02*
D03*
X577342D02*
D03*
X602742D02*
D03*
X628142D02*
D03*
D54*
X636604Y74050D02*
D03*
Y52950D02*
D03*
D55*
X805747Y327221D02*
D03*
X733747D02*
D03*
X805747Y258641D02*
D03*
X733747D02*
D03*
D56*
X414528Y231912D02*
D03*
Y303912D02*
D03*
D57*
X546586Y216154D02*
D03*
X639086D02*
D03*
D58*
X804926Y34544D02*
D03*
X272796Y58420D02*
D03*
X182118Y65024D02*
D03*
X144526Y518160D02*
D03*
X141986Y29718D02*
D03*
X796036Y505460D02*
D03*
X745744Y372364D02*
D03*
X359156Y541782D02*
D03*
X509524Y503428D02*
D03*
D59*
X256092Y76668D02*
D03*
Y83168D02*
D03*
Y89668D02*
D03*
Y96168D02*
D03*
Y102668D02*
D03*
Y109168D02*
D03*
Y115668D02*
D03*
Y122168D02*
D03*
Y128668D02*
D03*
Y135168D02*
D03*
X200092D02*
D03*
Y128668D02*
D03*
Y122168D02*
D03*
Y115668D02*
D03*
Y109168D02*
D03*
Y102668D02*
D03*
Y96168D02*
D03*
Y89668D02*
D03*
Y83168D02*
D03*
Y76668D02*
D03*
X199838Y177506D02*
D03*
Y184006D02*
D03*
Y190506D02*
D03*
Y197006D02*
D03*
Y203506D02*
D03*
Y210006D02*
D03*
Y216506D02*
D03*
Y223006D02*
D03*
Y229506D02*
D03*
Y236006D02*
D03*
X255838D02*
D03*
Y229506D02*
D03*
Y223006D02*
D03*
Y216506D02*
D03*
Y210006D02*
D03*
Y203506D02*
D03*
Y197006D02*
D03*
Y190506D02*
D03*
Y184006D02*
D03*
Y177506D02*
D03*
D60*
X474116Y426416D02*
D03*
Y451816D02*
D03*
Y502716D02*
D03*
X378816Y426416D02*
D03*
Y502716D02*
D03*
D61*
X355524Y266954D02*
D03*
X282524D02*
D03*
D62*
X642874Y350444D02*
D03*
Y277444D02*
D03*
X314198Y335610D02*
D03*
Y408610D02*
D03*
D63*
X293624Y19050D02*
D03*
X319024D02*
D03*
X344424D02*
D03*
X369824D02*
D03*
X395224D02*
D03*
D64*
X913130Y110490D02*
D03*
Y135890D02*
D03*
X914400Y182160D02*
D03*
Y220260D02*
D03*
Y258360D02*
D03*
Y296460D02*
D03*
Y334560D02*
D03*
Y372660D02*
D03*
Y410760D02*
D03*
Y448860D02*
D03*
D65*
X70322Y394252D02*
D03*
Y368852D02*
D03*
Y343452D02*
D03*
Y318052D02*
D03*
Y292652D02*
D03*
Y267252D02*
D03*
Y241852D02*
D03*
Y216452D02*
D03*
Y191052D02*
D03*
Y165652D02*
D03*
X44922Y394252D02*
D03*
Y368852D02*
D03*
Y343452D02*
D03*
Y318052D02*
D03*
Y292652D02*
D03*
Y267252D02*
D03*
Y241852D02*
D03*
Y216452D02*
D03*
Y191052D02*
D03*
Y165652D02*
D03*
D66*
X493981Y283464D02*
D03*
Y293624D02*
D03*
Y303784D02*
D03*
X509221D02*
D03*
Y293624D02*
D03*
Y283464D02*
D03*
D67*
X199644Y281432D02*
D03*
X237998Y270764D02*
D03*
X827446Y89662D02*
D03*
X530352Y392684D02*
D03*
X514858Y419862D02*
D03*
X506349D02*
D03*
X497840D02*
D03*
X514858Y427736D02*
D03*
X506349D02*
D03*
X497840D02*
D03*
X631190Y520446D02*
D03*
X529844Y497078D02*
D03*
X702056Y448564D02*
D03*
X158750Y394208D02*
D03*
Y404114D02*
D03*
Y415036D02*
D03*
Y425450D02*
D03*
X147066D02*
D03*
Y415036D02*
D03*
Y404114D02*
D03*
Y394208D02*
D03*
X696214Y261112D02*
D03*
Y271018D02*
D03*
Y281940D02*
D03*
Y292354D02*
D03*
X707898D02*
D03*
Y281940D02*
D03*
Y271018D02*
D03*
Y261112D02*
D03*
X650240Y165608D02*
D03*
X807212Y119634D02*
D03*
X564388Y404368D02*
D03*
X593852Y179070D02*
D03*
X699262Y167386D02*
D03*
X750570Y200914D02*
D03*
X801370Y115062D02*
D03*
X254262Y408800D02*
D03*
X342646Y539750D02*
D03*
X330962Y540004D02*
D03*
X479552Y513842D02*
D03*
X466598Y514096D02*
D03*
X653542Y522478D02*
D03*
X611378Y394716D02*
D03*
X587502Y394970D02*
D03*
X574802Y119888D02*
D03*
X571754Y134366D02*
D03*
X439420Y51308D02*
D03*
X440182Y77216D02*
D03*
X449834Y57658D02*
D03*
X490260Y165902D02*
D03*
X505206Y56388D02*
D03*
X708660Y377444D02*
D03*
X524256Y57404D02*
D03*
X561340Y30988D02*
D03*
X373634Y60960D02*
D03*
X476250Y193548D02*
D03*
X548132Y140208D02*
D03*
X548894Y83058D02*
D03*
X122936Y186944D02*
D03*
X442976Y149606D02*
D03*
X293116Y141986D02*
D03*
X272542Y229506D02*
D03*
X271272Y216506D02*
D03*
X271018Y190754D02*
D03*
X271272Y203708D02*
D03*
X334518Y102004D02*
D03*
X344678Y95504D02*
D03*
X141732Y201422D02*
D03*
X154178Y214630D02*
D03*
X166370Y228600D02*
D03*
X196262Y349460D02*
D03*
X674370Y522986D02*
D03*
M02*
