G04*
G04 #@! TF.GenerationSoftware,Altium Limited,Altium Designer,23.8.1 (32)*
G04*
G04 Layer_Physical_Order=2*
G04 Layer_Color=16711680*
%FSLAX44Y44*%
%MOMM*%
G71*
G04*
G04 #@! TF.SameCoordinates,5CA60E89-82B3-479B-9089-D34F769FB2F0*
G04*
G04*
G04 #@! TF.FilePolarity,Positive*
G04*
G01*
G75*
%ADD14C,0.2000*%
%ADD37C,1.0000*%
%ADD68C,0.5000*%
%ADD69C,1.0000*%
%ADD70C,0.4000*%
%ADD72C,2.0000*%
%ADD74O,1.5000X2.1000*%
%ADD75O,3.0000X2.0000*%
%ADD76C,1.8000*%
%ADD77C,0.6000*%
G36*
X828040Y442990D02*
X704984D01*
X704732Y444260D01*
X704888Y444325D01*
X706295Y445732D01*
X707056Y447569D01*
Y449559D01*
X706295Y451396D01*
X705115Y452576D01*
Y486918D01*
X705115Y486918D01*
X704882Y488088D01*
X704219Y489081D01*
X704219Y489081D01*
X677429Y515871D01*
Y518974D01*
X678609Y520154D01*
X679370Y521991D01*
Y523981D01*
X678609Y525818D01*
X677202Y527225D01*
X675365Y527986D01*
X673375D01*
X671538Y527225D01*
X670131Y525818D01*
X669370Y523981D01*
Y521991D01*
X670131Y520154D01*
X671311Y518974D01*
Y514604D01*
X671311Y514604D01*
X671544Y513433D01*
X672207Y512441D01*
X698997Y485651D01*
Y452576D01*
X697817Y451396D01*
X697056Y449559D01*
Y447569D01*
X697817Y445732D01*
X699224Y444325D01*
X699380Y444260D01*
X699128Y442990D01*
X689267D01*
X657620Y474637D01*
Y519485D01*
X657781Y519646D01*
X658542Y521483D01*
Y523473D01*
X657781Y525310D01*
X656374Y526717D01*
X654537Y527478D01*
X654310D01*
X641948Y539840D01*
X640625Y540724D01*
X639064Y541034D01*
X639064Y541034D01*
X523623D01*
X523623Y541034D01*
X522062Y540724D01*
X520739Y539840D01*
X520739Y539840D01*
X464287Y483388D01*
X281887D01*
Y554902D01*
X692270D01*
X692846Y553771D01*
X690815Y550975D01*
X687949Y545350D01*
X685998Y539345D01*
X685010Y533109D01*
Y526795D01*
X685998Y520559D01*
X687949Y514554D01*
X690815Y508929D01*
X694526Y503821D01*
X698991Y499356D01*
X704099Y495645D01*
X709724Y492779D01*
X715729Y490828D01*
X721965Y489840D01*
X728279D01*
X734515Y490828D01*
X740520Y492779D01*
X746145Y495645D01*
X751253Y499356D01*
X755718Y503821D01*
X759429Y508929D01*
X762295Y514554D01*
X764246Y520559D01*
X765234Y526795D01*
Y533109D01*
X764246Y539345D01*
X762295Y545350D01*
X759429Y550975D01*
X757398Y553771D01*
X757974Y554902D01*
X828040D01*
Y442990D01*
D02*
G37*
G36*
X648542Y521710D02*
Y521483D01*
X649303Y519646D01*
X649464Y519485D01*
Y473178D01*
X648912Y472796D01*
X648236Y472610D01*
X620884Y499962D01*
X619561Y500846D01*
X618000Y501156D01*
X618000Y501156D01*
X532837D01*
X532676Y501317D01*
X530839Y502078D01*
X528849D01*
X527012Y501317D01*
X525605Y499910D01*
X524844Y498073D01*
Y497846D01*
X503517Y476518D01*
X470612D01*
X470126Y477692D01*
X525312Y532878D01*
X637375D01*
X648542Y521710D01*
D02*
G37*
G36*
X146876Y481573D02*
X107531Y442228D01*
X40640D01*
X40640Y442228D01*
X39079Y441918D01*
X37756Y441034D01*
X37756Y441034D01*
X21246Y424524D01*
X20362Y423201D01*
X20052Y421640D01*
X20052Y421640D01*
Y377190D01*
X20052Y377190D01*
X20362Y375629D01*
X21246Y374306D01*
X29374Y366178D01*
X29374Y366178D01*
X30697Y365294D01*
X32258Y364984D01*
X32258Y364984D01*
X34571D01*
X34672Y364606D01*
X36120Y362098D01*
X38168Y360050D01*
X40676Y358602D01*
X43474Y357852D01*
X46370D01*
X49168Y358602D01*
X51676Y360050D01*
X53724Y362098D01*
X55172Y364606D01*
X55922Y367404D01*
Y370300D01*
X55172Y373098D01*
X53724Y375606D01*
X51676Y377654D01*
X49168Y379102D01*
X46370Y379852D01*
X43474D01*
X40676Y379102D01*
X38168Y377654D01*
X36120Y375606D01*
X35000Y373666D01*
X33563Y373524D01*
X28208Y378879D01*
Y419951D01*
X42329Y434072D01*
X109220D01*
X109220Y434072D01*
X110781Y434382D01*
X112104Y435266D01*
X152069Y475231D01*
X158178D01*
X158664Y474058D01*
X110833Y426226D01*
X57306D01*
X57306Y426226D01*
X55745Y425916D01*
X54422Y425032D01*
X54422Y425032D01*
X42038Y412648D01*
X41154Y411325D01*
X40844Y409764D01*
X40844Y409764D01*
Y404547D01*
X40676Y404502D01*
X38168Y403054D01*
X36120Y401006D01*
X34672Y398498D01*
X33922Y395700D01*
Y392804D01*
X34672Y390006D01*
X36120Y387498D01*
X38168Y385450D01*
X40676Y384002D01*
X43474Y383252D01*
X46370D01*
X49168Y384002D01*
X51676Y385450D01*
X53724Y387498D01*
X55172Y390006D01*
X55922Y392804D01*
Y395700D01*
X55172Y398498D01*
X53724Y401006D01*
X51676Y403054D01*
X49168Y404502D01*
X49000Y404547D01*
Y408075D01*
X58995Y418070D01*
X112522D01*
X112522Y418070D01*
X114083Y418380D01*
X115406Y419264D01*
X132438Y436297D01*
X133609Y435671D01*
X133597Y435610D01*
Y385895D01*
X133752Y385115D01*
X134194Y384453D01*
X134856Y384011D01*
X135636Y383856D01*
X169799D01*
X170579Y384011D01*
X171241Y384453D01*
X171683Y385115D01*
X171838Y385895D01*
Y421421D01*
X188300Y437883D01*
X276873D01*
X277114Y437642D01*
X625094Y437642D01*
X672846Y389890D01*
X727103D01*
X736942Y380051D01*
Y338516D01*
X702980Y304553D01*
X684784D01*
X684004Y304398D01*
X683342Y303956D01*
X682900Y303294D01*
X682745Y302514D01*
Y252799D01*
X682900Y252019D01*
X683342Y251357D01*
X684004Y250915D01*
X684784Y250760D01*
X718947D01*
X719727Y250915D01*
X720389Y251357D01*
X720831Y252019D01*
X720986Y252799D01*
Y288325D01*
X757605Y324944D01*
X759528Y327450D01*
X760737Y330369D01*
X761150Y333502D01*
Y385064D01*
X760737Y388197D01*
X760473Y388834D01*
X761179Y389890D01*
X826516D01*
X870458Y345948D01*
X902443D01*
X902874Y344678D01*
X900842Y343119D01*
X898918Y340612D01*
X897709Y337693D01*
X897297Y334560D01*
X897709Y331427D01*
X898918Y328508D01*
X900842Y326002D01*
X903348Y324078D01*
X906267Y322869D01*
X909400Y322457D01*
X919400D01*
X922533Y322869D01*
X925452Y324078D01*
X927959Y326002D01*
X929882Y328508D01*
X931091Y331427D01*
X931504Y334560D01*
X931091Y337693D01*
X929882Y340612D01*
X927959Y343119D01*
X925926Y344678D01*
X926357Y345948D01*
X942204D01*
X944902Y343250D01*
Y70992D01*
X943632Y70607D01*
X940873Y74737D01*
X937133Y79294D01*
X932964Y83463D01*
X928407Y87203D01*
X923505Y90478D01*
X918306Y93257D01*
X912860Y95513D01*
X907218Y97224D01*
X907197Y97228D01*
X907404Y98482D01*
X908130Y98386D01*
X918130D01*
X921263Y98799D01*
X924182Y100008D01*
X926689Y101931D01*
X928612Y104438D01*
X929821Y107357D01*
X930234Y110490D01*
X929821Y113623D01*
X928612Y116542D01*
X926689Y119049D01*
X924182Y120972D01*
X921263Y122181D01*
X918465Y122549D01*
Y123830D01*
X921263Y124199D01*
X924182Y125408D01*
X926689Y127331D01*
X928612Y129838D01*
X929821Y132757D01*
X930234Y135890D01*
X929821Y139023D01*
X928612Y141942D01*
X926689Y144448D01*
X924182Y146372D01*
X921263Y147581D01*
X918130Y147994D01*
X908130D01*
X904997Y147581D01*
X902078Y146372D01*
X899572Y144448D01*
X897648Y141942D01*
X896439Y139023D01*
X896387Y138630D01*
X890460D01*
X890460Y138630D01*
X889289Y138398D01*
X888297Y137734D01*
X888297Y137734D01*
X830837Y80275D01*
X709927D01*
X653299Y136903D01*
Y161596D01*
X654479Y162776D01*
X655240Y164613D01*
Y166603D01*
X654479Y168440D01*
X653072Y169847D01*
X651235Y170608D01*
X649245D01*
X647408Y169847D01*
X646001Y168440D01*
X645240Y166603D01*
Y164613D01*
X646001Y162776D01*
X647181Y161596D01*
Y135636D01*
X647181Y135636D01*
X647414Y134466D01*
X648077Y133473D01*
X706497Y75053D01*
X706497Y75053D01*
X707489Y74390D01*
X708660Y74157D01*
X708660Y74157D01*
X832104D01*
X832104Y74157D01*
X833275Y74390D01*
X834267Y75053D01*
X891727Y132513D01*
X896540D01*
X897648Y129838D01*
X899572Y127331D01*
X902078Y125408D01*
X904997Y124199D01*
X907795Y123830D01*
Y122549D01*
X904997Y122181D01*
X902078Y120972D01*
X899572Y119049D01*
X897648Y116542D01*
X896439Y113623D01*
X896027Y110490D01*
X896439Y107357D01*
X897648Y104438D01*
X899572Y101931D01*
X902078Y100008D01*
X904246Y99110D01*
X903875Y97889D01*
X901436Y98374D01*
X895570Y98952D01*
X889674D01*
X883808Y98374D01*
X878026Y97224D01*
X872384Y95513D01*
X866938Y93257D01*
X861739Y90478D01*
X856837Y87203D01*
X852280Y83463D01*
X848111Y79294D01*
X844371Y74737D01*
X841096Y69835D01*
X838317Y64636D01*
X836061Y59190D01*
X834350Y53548D01*
X833200Y47766D01*
X832622Y41900D01*
Y36004D01*
X833200Y30138D01*
X834350Y24356D01*
X836061Y18714D01*
X838317Y13268D01*
X841096Y8069D01*
X842333Y6218D01*
X841734Y5098D01*
X758044D01*
X757468Y6229D01*
X759429Y8929D01*
X762295Y14554D01*
X764246Y20559D01*
X765234Y26795D01*
Y33109D01*
X764246Y39345D01*
X762295Y45350D01*
X759429Y50975D01*
X755718Y56083D01*
X751253Y60548D01*
X746145Y64259D01*
X740520Y67125D01*
X734515Y69076D01*
X728279Y70064D01*
X721965D01*
X715729Y69076D01*
X709724Y67125D01*
X704099Y64259D01*
X698991Y60548D01*
X694526Y56083D01*
X690815Y50975D01*
X687949Y45350D01*
X685998Y39345D01*
X685010Y33109D01*
Y26795D01*
X685998Y20559D01*
X687949Y14554D01*
X690815Y8929D01*
X692776Y6229D01*
X692200Y5098D01*
X258044D01*
X257468Y6229D01*
X259429Y8929D01*
X262295Y14554D01*
X264246Y20559D01*
X265234Y26795D01*
Y33109D01*
X264246Y39345D01*
X262295Y45350D01*
X259429Y50975D01*
X255718Y56083D01*
X251253Y60548D01*
X246145Y64259D01*
X240520Y67125D01*
X234515Y69076D01*
X228279Y70064D01*
X221965D01*
X215729Y69076D01*
X209724Y67125D01*
X204099Y64259D01*
X198991Y60548D01*
X194526Y56083D01*
X190815Y50975D01*
X187949Y45350D01*
X185998Y39345D01*
X185010Y33109D01*
Y26795D01*
X185998Y20559D01*
X187949Y14554D01*
X190815Y8929D01*
X192776Y6229D01*
X192200Y5098D01*
X108510D01*
X107911Y6218D01*
X109148Y8069D01*
X111927Y13268D01*
X114183Y18714D01*
X115894Y24356D01*
X117044Y30138D01*
X117622Y36004D01*
Y41900D01*
X117044Y47766D01*
X115894Y53548D01*
X114183Y59190D01*
X111927Y64636D01*
X109148Y69835D01*
X105873Y74737D01*
X102133Y79294D01*
X97964Y83463D01*
X93407Y87203D01*
X88505Y90478D01*
X83306Y93257D01*
X77860Y95513D01*
X72218Y97224D01*
X66436Y98374D01*
X60570Y98952D01*
X54674D01*
X48808Y98374D01*
X43026Y97224D01*
X37384Y95513D01*
X31938Y93257D01*
X26739Y90478D01*
X21837Y87203D01*
X17280Y83463D01*
X13111Y79294D01*
X9371Y74737D01*
X6368Y70242D01*
X5098Y70627D01*
Y356021D01*
X6274Y356655D01*
X6368Y356641D01*
X6981Y355723D01*
X21415Y341289D01*
X21415Y341289D01*
X22408Y340626D01*
X23578Y340393D01*
X23578Y340393D01*
X34354D01*
X34672Y339206D01*
X36120Y336698D01*
X38168Y334650D01*
X40676Y333202D01*
X43474Y332452D01*
X46370D01*
X49168Y333202D01*
X51676Y334650D01*
X53724Y336698D01*
X55172Y339206D01*
X55922Y342004D01*
Y344900D01*
X55172Y347698D01*
X53724Y350206D01*
X51676Y352254D01*
X49168Y353702D01*
X46370Y354452D01*
X43474D01*
X40676Y353702D01*
X38168Y352254D01*
X36120Y350206D01*
X34672Y347698D01*
X34354Y346511D01*
X24845D01*
X12203Y359153D01*
Y433835D01*
X25651Y447283D01*
X102870D01*
X102870Y447283D01*
X104040Y447516D01*
X105033Y448179D01*
X139697Y482843D01*
X146349D01*
X146876Y481573D01*
D02*
G37*
G36*
X169799Y385895D02*
X135636D01*
Y435610D01*
X169799D01*
Y385895D01*
D02*
G37*
G36*
X718947Y252799D02*
X684784D01*
Y302514D01*
X718947D01*
Y252799D01*
D02*
G37*
%LPC*%
G36*
X796036Y515042D02*
X793556Y514715D01*
X791245Y513758D01*
X789260Y512235D01*
X787738Y510251D01*
X786780Y507940D01*
X786454Y505460D01*
X786780Y502980D01*
X787738Y500669D01*
X789260Y498685D01*
X791245Y497162D01*
X793556Y496204D01*
X796036Y495878D01*
X798516Y496204D01*
X800827Y497162D01*
X802811Y498685D01*
X804334Y500669D01*
X805292Y502980D01*
X805618Y505460D01*
X805292Y507940D01*
X804334Y510251D01*
X802811Y512235D01*
X800827Y513758D01*
X798516Y514715D01*
X796036Y515042D01*
D02*
G37*
G36*
X255257Y413800D02*
X253267D01*
X251430Y413039D01*
X250250Y411859D01*
X209806D01*
X209806Y411859D01*
X208636Y411626D01*
X207643Y410963D01*
X166493Y369813D01*
X165830Y368820D01*
X165597Y367650D01*
X165597Y367650D01*
Y288290D01*
X165597Y288290D01*
X165830Y287120D01*
X166493Y286127D01*
X197735Y254885D01*
X197735Y254885D01*
X198727Y254222D01*
X199898Y253989D01*
X199898Y253989D01*
X224282D01*
X224282Y253989D01*
X225452Y254222D01*
X226445Y254885D01*
X237324Y265764D01*
X238993D01*
X240830Y266525D01*
X242237Y267932D01*
X242998Y269769D01*
Y271759D01*
X242237Y273596D01*
X240830Y275003D01*
X238993Y275764D01*
X237003D01*
X235166Y275003D01*
X233759Y273596D01*
X232998Y271759D01*
Y270090D01*
X223015Y260107D01*
X201165D01*
X171715Y289557D01*
Y366383D01*
X211073Y405741D01*
X250250D01*
X251430Y404561D01*
X253267Y403800D01*
X255257D01*
X257094Y404561D01*
X258501Y405968D01*
X259262Y407805D01*
Y409795D01*
X258501Y411632D01*
X257094Y413039D01*
X255257Y413800D01*
D02*
G37*
G36*
X616966Y429716D02*
X582676D01*
X580849Y429476D01*
X579146Y428770D01*
X577684Y427648D01*
X561464Y411428D01*
X516636D01*
X514809Y411188D01*
X513106Y410482D01*
X511644Y409360D01*
X465953Y363670D01*
X202120D01*
X200292Y363430D01*
X198590Y362724D01*
X197127Y361603D01*
X191269Y355745D01*
X190147Y354282D01*
X189442Y352579D01*
X189202Y350752D01*
Y318666D01*
X189442Y316839D01*
X190147Y315136D01*
X191269Y313674D01*
X200818Y304126D01*
X202280Y303004D01*
X203983Y302298D01*
X205810Y302058D01*
X357756D01*
X471258Y188556D01*
X472720Y187433D01*
X473191Y187238D01*
Y62227D01*
X455171Y44207D01*
X435099D01*
X431557Y47749D01*
Y60455D01*
X442345Y71243D01*
X443008Y72235D01*
X443191Y73154D01*
X444421Y74384D01*
X445182Y76221D01*
Y78211D01*
X444421Y80048D01*
X443014Y81455D01*
X441177Y82216D01*
X439187D01*
X437350Y81455D01*
X436170Y80275D01*
X419231D01*
X419231Y80275D01*
X418060Y80042D01*
X417068Y79379D01*
X417068Y79379D01*
X401708Y64019D01*
X377646D01*
X376466Y65199D01*
X374629Y65960D01*
X372639D01*
X370802Y65199D01*
X369395Y63792D01*
X368634Y61955D01*
Y59965D01*
X369395Y58128D01*
X370452Y57071D01*
X369958Y55801D01*
X333412D01*
X332241Y55568D01*
X331249Y54905D01*
X331249Y54905D01*
X316861Y40517D01*
X316198Y39525D01*
X315965Y38354D01*
X315965Y38354D01*
Y31066D01*
X314233Y30348D01*
X312248Y28826D01*
X310726Y26841D01*
X309769Y24530D01*
X309442Y22050D01*
Y16050D01*
X309769Y13570D01*
X310726Y11259D01*
X312248Y9275D01*
X314233Y7752D01*
X316544Y6794D01*
X319024Y6468D01*
X321504Y6794D01*
X323815Y7752D01*
X325799Y9275D01*
X327322Y11259D01*
X328279Y13570D01*
X328606Y16050D01*
Y22050D01*
X328279Y24530D01*
X327322Y26841D01*
X325799Y28826D01*
X323815Y30348D01*
X322083Y31066D01*
Y37087D01*
X334679Y49683D01*
X402683D01*
X423287Y29079D01*
X424280Y28416D01*
X425450Y28183D01*
X463296D01*
X463296Y28183D01*
X464467Y28416D01*
X465459Y29079D01*
X516379Y79999D01*
X544882D01*
X546062Y78819D01*
X547899Y78058D01*
X549889D01*
X551726Y78819D01*
X553133Y80226D01*
X553894Y82063D01*
Y84053D01*
X553133Y85890D01*
X551726Y87297D01*
X549889Y88058D01*
X547899D01*
X546062Y87297D01*
X544882Y86117D01*
X515112D01*
X515112Y86117D01*
X513941Y85884D01*
X512949Y85221D01*
X512949Y85221D01*
X462029Y34301D01*
X426717D01*
X406113Y54905D01*
X405121Y55568D01*
X403950Y55801D01*
X403950Y55801D01*
X377310D01*
X376816Y57071D01*
X377646Y57901D01*
X402975D01*
X402975Y57901D01*
X404145Y58134D01*
X405137Y58797D01*
X420498Y74157D01*
X434811D01*
X435337Y72887D01*
X426335Y63885D01*
X425672Y62893D01*
X425439Y61722D01*
X425439Y61722D01*
Y46482D01*
X425439Y46482D01*
X425672Y45311D01*
X426335Y44319D01*
X431669Y38985D01*
X431669Y38985D01*
X432661Y38322D01*
X433832Y38089D01*
X456438D01*
X456438Y38089D01*
X457608Y38322D01*
X458601Y38985D01*
X478413Y58797D01*
X478413Y58797D01*
X479076Y59790D01*
X479309Y60960D01*
X479309Y60960D01*
Y186488D01*
X491867D01*
X541072Y137283D01*
Y125222D01*
X541312Y123395D01*
X542018Y121692D01*
X543140Y120230D01*
X577774Y85595D01*
Y66186D01*
X576052Y64464D01*
X524256D01*
X522429Y64224D01*
X520726Y63519D01*
X520001Y64539D01*
X524794Y69331D01*
X557530D01*
X557530Y69331D01*
X558700Y69564D01*
X559693Y70227D01*
X563757Y74291D01*
X564420Y75283D01*
X564653Y76454D01*
Y89408D01*
X564653Y89408D01*
X564420Y90579D01*
X563757Y91571D01*
X563757Y91571D01*
X559947Y95381D01*
X558955Y96044D01*
X557784Y96277D01*
X557784Y96277D01*
X498345D01*
X493319Y101303D01*
Y161890D01*
X494499Y163070D01*
X495260Y164907D01*
Y166897D01*
X494499Y168734D01*
X493092Y170141D01*
X491255Y170902D01*
X489265D01*
X487428Y170141D01*
X486021Y168734D01*
X485260Y166897D01*
Y164907D01*
X486021Y163070D01*
X487201Y161890D01*
Y100036D01*
X487201Y100036D01*
X487434Y98865D01*
X488097Y97873D01*
X494915Y91055D01*
X494915Y91055D01*
X495908Y90392D01*
X497078Y90159D01*
X556517D01*
X558535Y88141D01*
Y77721D01*
X556263Y75449D01*
X523526D01*
X522356Y75216D01*
X521364Y74553D01*
X521364Y74553D01*
X512000Y65189D01*
X511337Y64197D01*
X511104Y63027D01*
X511104Y63026D01*
Y58532D01*
X509834Y58280D01*
X509445Y59220D01*
X508038Y60627D01*
X506201Y61388D01*
X504211D01*
X502374Y60627D01*
X500967Y59220D01*
X500206Y57383D01*
Y55714D01*
X468633Y24141D01*
X422399D01*
X401197Y45343D01*
X400205Y46006D01*
X399034Y46239D01*
X399034Y46239D01*
X378714D01*
X378714Y46239D01*
X377543Y46006D01*
X376551Y45343D01*
X376551Y45343D01*
X367661Y36453D01*
X366998Y35461D01*
X366765Y34290D01*
X366765Y34290D01*
Y31066D01*
X365033Y30348D01*
X363049Y28826D01*
X361526Y26841D01*
X360569Y24530D01*
X360242Y22050D01*
Y16050D01*
X360569Y13570D01*
X361526Y11259D01*
X363049Y9275D01*
X365033Y7752D01*
X367344Y6794D01*
X369824Y6468D01*
X372304Y6794D01*
X374615Y7752D01*
X376600Y9275D01*
X378122Y11259D01*
X379080Y13570D01*
X379406Y16050D01*
Y22050D01*
X379080Y24530D01*
X378122Y26841D01*
X376600Y28826D01*
X374615Y30348D01*
X372883Y31066D01*
Y33023D01*
X379981Y40121D01*
X397767D01*
X418969Y18919D01*
X418969Y18919D01*
X419962Y18256D01*
X421132Y18023D01*
X421132Y18023D01*
X469900D01*
X469900Y18023D01*
X471071Y18256D01*
X472063Y18919D01*
X504532Y51388D01*
X506201D01*
X508038Y52149D01*
X509445Y53556D01*
X509834Y54496D01*
X511104Y54244D01*
Y50356D01*
X475237Y14489D01*
X416049D01*
X409325Y21213D01*
X408332Y21876D01*
X407162Y22109D01*
X407162Y22109D01*
X404798D01*
X404479Y24530D01*
X403522Y26841D01*
X401999Y28826D01*
X400015Y30348D01*
X397704Y31305D01*
X395224Y31632D01*
X392744Y31305D01*
X390433Y30348D01*
X388448Y28826D01*
X386926Y26841D01*
X385969Y24530D01*
X385642Y22050D01*
Y16050D01*
X385969Y13570D01*
X386926Y11259D01*
X388448Y9275D01*
X390433Y7752D01*
X392744Y6794D01*
X395224Y6468D01*
X397704Y6794D01*
X400015Y7752D01*
X401999Y9275D01*
X403522Y11259D01*
X404479Y13570D01*
X404756Y15674D01*
X406056Y15830D01*
X412619Y9267D01*
X413611Y8604D01*
X414782Y8371D01*
X476504D01*
X476504Y8371D01*
X477674Y8604D01*
X478667Y9267D01*
X516326Y46926D01*
X516326Y46926D01*
X516989Y47919D01*
X517222Y49089D01*
Y52986D01*
X518492Y53417D01*
X519264Y52412D01*
X519668Y52101D01*
Y37748D01*
X520017Y35992D01*
X521012Y34503D01*
X527771Y27744D01*
X529260Y26749D01*
X531016Y26400D01*
X559351D01*
X560345Y25988D01*
X562335D01*
X564172Y26749D01*
X565579Y28156D01*
X566340Y29993D01*
Y31983D01*
X565579Y33820D01*
X564172Y35227D01*
X562335Y35988D01*
X560345D01*
X559351Y35576D01*
X532916D01*
X528844Y39648D01*
Y50344D01*
X578977D01*
X580804Y50584D01*
X582507Y51290D01*
X583969Y52412D01*
X589827Y58269D01*
X590949Y59732D01*
X591655Y61434D01*
X591895Y63262D01*
Y88519D01*
X591829Y89024D01*
X597096Y94292D01*
X598091Y95781D01*
X598440Y97536D01*
Y177081D01*
X598503Y177232D01*
X602611Y181340D01*
X678820D01*
X694611Y165548D01*
X694674Y165397D01*
Y108208D01*
X695023Y106452D01*
X696018Y104964D01*
X714564Y86418D01*
X716052Y85423D01*
X717808Y85074D01*
X825457D01*
X826451Y84662D01*
X828441D01*
X830278Y85423D01*
X831685Y86830D01*
X832446Y88667D01*
Y90657D01*
X831685Y92494D01*
X830278Y93901D01*
X828441Y94662D01*
X826451D01*
X825457Y94250D01*
X719708D01*
X703850Y110108D01*
Y165397D01*
X704262Y166391D01*
Y168381D01*
X703501Y170218D01*
X702094Y171625D01*
X701100Y172037D01*
X683964Y189172D01*
X682476Y190167D01*
X680720Y190516D01*
X600710D01*
X598954Y190167D01*
X597466Y189172D01*
X592014Y183721D01*
X591020Y183309D01*
X589613Y181902D01*
X588852Y180065D01*
Y178075D01*
X589264Y177081D01*
Y99437D01*
X586583Y96756D01*
X555192Y128146D01*
Y140208D01*
X554952Y142035D01*
X554246Y143738D01*
X553124Y145200D01*
X499784Y198540D01*
X498322Y199662D01*
X496619Y200368D01*
X494792Y200608D01*
X479174D01*
X365672Y314110D01*
X364210Y315233D01*
X362507Y315938D01*
X360680Y316178D01*
X208735D01*
X203322Y321591D01*
Y347828D01*
X205044Y349550D01*
X468878D01*
X470705Y349790D01*
X472408Y350495D01*
X473871Y351618D01*
X519561Y397308D01*
X526109D01*
X526634Y396038D01*
X526113Y395516D01*
X525352Y393679D01*
Y391689D01*
X526113Y389852D01*
X527520Y388445D01*
X529357Y387684D01*
X531347D01*
X532341Y388096D01*
X572008D01*
X573764Y388445D01*
X575252Y389440D01*
X581232Y395419D01*
X582502Y394893D01*
Y393975D01*
X583263Y392138D01*
X584443Y390958D01*
Y368551D01*
X560701Y344809D01*
X560038Y343816D01*
X559805Y342646D01*
X559805Y342646D01*
Y131826D01*
X559805Y131826D01*
X560038Y130655D01*
X560701Y129663D01*
X569802Y120562D01*
Y118893D01*
X570563Y117056D01*
X571970Y115649D01*
X573807Y114888D01*
X575797D01*
X577634Y115649D01*
X579041Y117056D01*
X579802Y118893D01*
Y120883D01*
X579041Y122720D01*
X577634Y124127D01*
X575797Y124888D01*
X574128D01*
X570920Y128096D01*
X571446Y129366D01*
X572749D01*
X574586Y130127D01*
X575993Y131534D01*
X576754Y133371D01*
Y135361D01*
X575993Y137198D01*
X574813Y138378D01*
Y338331D01*
X613541Y377059D01*
X614204Y378051D01*
X614437Y379222D01*
Y390704D01*
X615617Y391884D01*
X616378Y393721D01*
Y395266D01*
X617590Y395849D01*
X636762Y376678D01*
Y221488D01*
X637111Y219732D01*
X638106Y218244D01*
X654362Y201988D01*
X655850Y200993D01*
X657606Y200644D01*
X744352D01*
X745919Y199076D01*
X745982Y198925D01*
Y131826D01*
X746331Y130070D01*
X747326Y128582D01*
X764090Y111818D01*
X765578Y110823D01*
X767334Y110474D01*
X799381D01*
X800375Y110062D01*
X802365D01*
X804023Y110749D01*
X804396Y110823D01*
X805884Y111818D01*
X809050Y114983D01*
X810044Y115395D01*
X811451Y116802D01*
X812212Y118639D01*
Y120629D01*
X811451Y122466D01*
X810044Y123873D01*
X808207Y124634D01*
X806217D01*
X804380Y123873D01*
X802973Y122466D01*
X802561Y121472D01*
X801151Y120062D01*
X800375D01*
X799381Y119650D01*
X769234D01*
X755158Y133727D01*
Y198925D01*
X755570Y199919D01*
Y201909D01*
X754809Y203746D01*
X753402Y205153D01*
X752408Y205565D01*
X749496Y208476D01*
X748008Y209471D01*
X746252Y209820D01*
X659507D01*
X645938Y223389D01*
Y378578D01*
X645589Y380334D01*
X644594Y381823D01*
X613979Y412438D01*
X612490Y413433D01*
X610734Y413782D01*
X588518D01*
X586762Y413433D01*
X585274Y412438D01*
X570107Y397272D01*
X568726D01*
X568294Y398542D01*
X569380Y399376D01*
X585601Y415596D01*
X614041D01*
X657186Y372452D01*
X658648Y371329D01*
X660351Y370624D01*
X662178Y370384D01*
X708660D01*
X710487Y370624D01*
X712190Y371329D01*
X713652Y372452D01*
X714774Y373914D01*
X715480Y375617D01*
X715720Y377444D01*
X715480Y379271D01*
X714774Y380974D01*
X713652Y382436D01*
X712190Y383559D01*
X710487Y384264D01*
X708660Y384504D01*
X665102D01*
X621958Y427648D01*
X620496Y428770D01*
X618793Y429476D01*
X616966Y429716D01*
D02*
G37*
G36*
X71770Y405252D02*
X68874D01*
X66076Y404502D01*
X63568Y403054D01*
X61520Y401006D01*
X60072Y398498D01*
X59322Y395700D01*
Y392804D01*
X60072Y390006D01*
X61520Y387498D01*
X63568Y385450D01*
X66076Y384002D01*
X68874Y383252D01*
X71770D01*
X74568Y384002D01*
X77076Y385450D01*
X79124Y387498D01*
X80572Y390006D01*
X80890Y391193D01*
X103845D01*
X120131Y374907D01*
Y319616D01*
X118958Y319130D01*
X114057Y324031D01*
Y355600D01*
X113824Y356771D01*
X113161Y357763D01*
X113161Y357763D01*
X99909Y371015D01*
X98917Y371678D01*
X97746Y371911D01*
X97746Y371911D01*
X80890D01*
X80572Y373098D01*
X79124Y375606D01*
X77076Y377654D01*
X74568Y379102D01*
X71770Y379852D01*
X68874D01*
X66076Y379102D01*
X63568Y377654D01*
X61520Y375606D01*
X60072Y373098D01*
X59322Y370300D01*
Y367404D01*
X60072Y364606D01*
X61520Y362098D01*
X63568Y360050D01*
X66076Y358602D01*
X68874Y357852D01*
X71770D01*
X74568Y358602D01*
X77076Y360050D01*
X79124Y362098D01*
X80572Y364606D01*
X80890Y365793D01*
X96479D01*
X107939Y354333D01*
Y325020D01*
X106766Y324534D01*
X85685Y345615D01*
X84692Y346278D01*
X83522Y346511D01*
X83522Y346511D01*
X80890D01*
X80572Y347698D01*
X79124Y350206D01*
X77076Y352254D01*
X74568Y353702D01*
X71770Y354452D01*
X68874D01*
X66076Y353702D01*
X63568Y352254D01*
X61520Y350206D01*
X60072Y347698D01*
X59322Y344900D01*
Y342004D01*
X60072Y339206D01*
X61520Y336698D01*
X63568Y334650D01*
X66076Y333202D01*
X68874Y332452D01*
X71770D01*
X74568Y333202D01*
X77076Y334650D01*
X79124Y336698D01*
X80572Y339206D01*
X80890Y340393D01*
X82255D01*
X221103Y201545D01*
X222096Y200882D01*
X223266Y200649D01*
X223266Y200649D01*
X267260D01*
X268440Y199469D01*
X270277Y198708D01*
X272267D01*
X274104Y199469D01*
X275511Y200876D01*
X276272Y202713D01*
Y204703D01*
X275511Y206540D01*
X274104Y207947D01*
X272267Y208708D01*
X270277D01*
X268440Y207947D01*
X267260Y206767D01*
X224533D01*
X219026Y212274D01*
X219512Y213447D01*
X267260D01*
X268440Y212267D01*
X270277Y211506D01*
X272267D01*
X274104Y212267D01*
X275511Y213674D01*
X276272Y215511D01*
Y217501D01*
X275511Y219338D01*
X274104Y220745D01*
X272267Y221506D01*
X270277D01*
X268440Y220745D01*
X267260Y219565D01*
X218523D01*
X212814Y225274D01*
X213300Y226447D01*
X268530D01*
X269710Y225267D01*
X271547Y224506D01*
X273537D01*
X275374Y225267D01*
X276781Y226674D01*
X277542Y228511D01*
Y230501D01*
X276781Y232338D01*
X275374Y233745D01*
X273537Y234506D01*
X271547D01*
X269710Y233745D01*
X268530Y232565D01*
X212311D01*
X126249Y318627D01*
Y376174D01*
X126016Y377345D01*
X125353Y378337D01*
X107275Y396415D01*
X106283Y397078D01*
X105112Y397311D01*
X105112Y397311D01*
X80890D01*
X80572Y398498D01*
X79124Y401006D01*
X77076Y403054D01*
X74568Y404502D01*
X71770Y405252D01*
D02*
G37*
G36*
X46370Y329052D02*
X43474D01*
X40676Y328302D01*
X38168Y326854D01*
X36120Y324806D01*
X34672Y322298D01*
X33922Y319500D01*
Y316604D01*
X34672Y313806D01*
X36120Y311298D01*
X38168Y309250D01*
X40676Y307802D01*
X43474Y307052D01*
X46370D01*
X49168Y307802D01*
X51676Y309250D01*
X53724Y311298D01*
X55172Y313806D01*
X55922Y316604D01*
Y319500D01*
X55172Y322298D01*
X53724Y324806D01*
X51676Y326854D01*
X49168Y328302D01*
X46370Y329052D01*
D02*
G37*
G36*
X340360Y289571D02*
X340360Y289571D01*
X204724D01*
X204724Y289571D01*
X203554Y289338D01*
X202561Y288675D01*
X202561Y288675D01*
X200318Y286432D01*
X198649D01*
X196812Y285671D01*
X195405Y284264D01*
X194644Y282427D01*
Y280437D01*
X195405Y278600D01*
X196812Y277193D01*
X198649Y276432D01*
X200639D01*
X202476Y277193D01*
X203883Y278600D01*
X204644Y280437D01*
Y282106D01*
X205991Y283453D01*
X339093D01*
X463285Y159261D01*
Y75435D01*
X450508Y62658D01*
X448839D01*
X447410Y62066D01*
X446690Y63142D01*
X453267Y69719D01*
X453267Y69719D01*
X453930Y70711D01*
X454163Y71882D01*
Y83015D01*
X453930Y84185D01*
X453267Y85178D01*
X407250Y131195D01*
X406258Y131858D01*
X405087Y132091D01*
X405087Y132091D01*
X267205D01*
X171370Y227926D01*
Y229595D01*
X170609Y231432D01*
X169202Y232839D01*
X167365Y233600D01*
X165375D01*
X163538Y232839D01*
X162131Y231432D01*
X161370Y229595D01*
Y227605D01*
X162131Y225768D01*
X163538Y224361D01*
X165375Y223600D01*
X167044D01*
X263775Y126869D01*
X264767Y126206D01*
X265938Y125973D01*
X403820D01*
X448045Y81748D01*
Y73149D01*
X437257Y62361D01*
X436594Y61368D01*
X436361Y60198D01*
X436361Y60198D01*
Y55320D01*
X435181Y54140D01*
X434420Y52303D01*
Y50313D01*
X435181Y48476D01*
X436588Y47069D01*
X438425Y46308D01*
X440415D01*
X442252Y47069D01*
X443659Y48476D01*
X444420Y50313D01*
Y52303D01*
X443659Y54140D01*
X442479Y55320D01*
Y58931D01*
X444350Y60802D01*
X445426Y60083D01*
X444834Y58653D01*
Y56663D01*
X445595Y54826D01*
X447002Y53419D01*
X448839Y52658D01*
X450829D01*
X452666Y53419D01*
X454073Y54826D01*
X454834Y56663D01*
Y58332D01*
X468507Y72005D01*
X468507Y72005D01*
X469170Y72997D01*
X469403Y74168D01*
X469403Y74168D01*
Y160528D01*
X469170Y161698D01*
X468507Y162691D01*
X468507Y162691D01*
X342523Y288675D01*
X341530Y289338D01*
X340360Y289571D01*
D02*
G37*
G36*
X71770Y303652D02*
X68874D01*
X66076Y302902D01*
X63568Y301454D01*
X61520Y299406D01*
X60072Y296898D01*
X59322Y294100D01*
Y291204D01*
X60072Y288406D01*
X61520Y285898D01*
X63568Y283850D01*
X66076Y282402D01*
X68874Y281652D01*
X71770D01*
X74568Y282402D01*
X77076Y283850D01*
X79124Y285898D01*
X80572Y288406D01*
X81322Y291204D01*
Y294100D01*
X80572Y296898D01*
X79124Y299406D01*
X77076Y301454D01*
X74568Y302902D01*
X71770Y303652D01*
D02*
G37*
G36*
X46370D02*
X43474D01*
X40676Y302902D01*
X38168Y301454D01*
X36120Y299406D01*
X34672Y296898D01*
X33922Y294100D01*
Y291204D01*
X34672Y288406D01*
X36120Y285898D01*
X38168Y283850D01*
X40676Y282402D01*
X43474Y281652D01*
X46370D01*
X49168Y282402D01*
X51676Y283850D01*
X53724Y285898D01*
X55172Y288406D01*
X55922Y291204D01*
Y294100D01*
X55172Y296898D01*
X53724Y299406D01*
X51676Y301454D01*
X49168Y302902D01*
X46370Y303652D01*
D02*
G37*
G36*
X71770Y278252D02*
X68874D01*
X66076Y277502D01*
X63568Y276054D01*
X61520Y274006D01*
X60072Y271498D01*
X59322Y268700D01*
Y265804D01*
X60072Y263006D01*
X61520Y260498D01*
X63568Y258450D01*
X66076Y257002D01*
X68874Y256252D01*
X71770D01*
X74568Y257002D01*
X77076Y258450D01*
X79124Y260498D01*
X80572Y263006D01*
X81322Y265804D01*
Y268700D01*
X80572Y271498D01*
X79124Y274006D01*
X77076Y276054D01*
X74568Y277502D01*
X71770Y278252D01*
D02*
G37*
G36*
X46370D02*
X43474D01*
X40676Y277502D01*
X38168Y276054D01*
X36120Y274006D01*
X34672Y271498D01*
X33922Y268700D01*
Y265804D01*
X34672Y263006D01*
X36120Y260498D01*
X38168Y258450D01*
X40676Y257002D01*
X43474Y256252D01*
X46370D01*
X49168Y257002D01*
X51676Y258450D01*
X53724Y260498D01*
X55172Y263006D01*
X55922Y265804D01*
Y268700D01*
X55172Y271498D01*
X53724Y274006D01*
X51676Y276054D01*
X49168Y277502D01*
X46370Y278252D01*
D02*
G37*
G36*
X919400Y270464D02*
X909400D01*
X906267Y270051D01*
X903348Y268842D01*
X900842Y266919D01*
X898918Y264412D01*
X897709Y261493D01*
X897297Y258360D01*
X897709Y255227D01*
X898918Y252308D01*
X900842Y249802D01*
X903348Y247878D01*
X906267Y246669D01*
X909400Y246257D01*
X919400D01*
X922533Y246669D01*
X925452Y247878D01*
X927959Y249802D01*
X929882Y252308D01*
X931091Y255227D01*
X931504Y258360D01*
X931091Y261493D01*
X929882Y264412D01*
X927959Y266919D01*
X925452Y268842D01*
X922533Y270051D01*
X919400Y270464D01*
D02*
G37*
G36*
X71770Y252852D02*
X68874D01*
X66076Y252102D01*
X63568Y250654D01*
X61520Y248606D01*
X60072Y246098D01*
X59322Y243300D01*
Y240404D01*
X60072Y237606D01*
X61520Y235098D01*
X63568Y233050D01*
X66076Y231602D01*
X68874Y230852D01*
X71770D01*
X74568Y231602D01*
X77076Y233050D01*
X79124Y235098D01*
X80572Y237606D01*
X81322Y240404D01*
Y243300D01*
X80572Y246098D01*
X79124Y248606D01*
X77076Y250654D01*
X74568Y252102D01*
X71770Y252852D01*
D02*
G37*
G36*
X919400Y232364D02*
X909400D01*
X906267Y231951D01*
X903348Y230742D01*
X900842Y228818D01*
X898918Y226312D01*
X897709Y223393D01*
X897297Y220260D01*
X897709Y217127D01*
X898918Y214208D01*
X900842Y211702D01*
X903348Y209778D01*
X906267Y208569D01*
X909400Y208157D01*
X919400D01*
X922533Y208569D01*
X925452Y209778D01*
X927959Y211702D01*
X929882Y214208D01*
X931091Y217127D01*
X931504Y220260D01*
X931091Y223393D01*
X929882Y226312D01*
X927959Y228818D01*
X925452Y230742D01*
X922533Y231951D01*
X919400Y232364D01*
D02*
G37*
G36*
X71770Y227452D02*
X68874D01*
X66076Y226702D01*
X63568Y225254D01*
X61520Y223206D01*
X60072Y220698D01*
X59322Y217900D01*
Y215004D01*
X60072Y212206D01*
X61520Y209698D01*
X63568Y207650D01*
X66076Y206202D01*
X68874Y205452D01*
X71770D01*
X74568Y206202D01*
X77076Y207650D01*
X79124Y209698D01*
X80572Y212206D01*
X81322Y215004D01*
Y217900D01*
X80572Y220698D01*
X79124Y223206D01*
X77076Y225254D01*
X74568Y226702D01*
X71770Y227452D01*
D02*
G37*
G36*
Y329052D02*
X68874D01*
X66076Y328302D01*
X63568Y326854D01*
X61520Y324806D01*
X60072Y322298D01*
X59322Y319500D01*
Y316604D01*
X60072Y313806D01*
X61520Y311298D01*
X63568Y309250D01*
X66076Y307802D01*
X68874Y307052D01*
X71770D01*
X74568Y307802D01*
X77076Y309250D01*
X79124Y311298D01*
X80572Y313806D01*
X80890Y314993D01*
X91653D01*
X218055Y188591D01*
X218055Y188591D01*
X219047Y187928D01*
X220218Y187695D01*
X267006D01*
X268186Y186515D01*
X270023Y185754D01*
X272013D01*
X273850Y186515D01*
X275257Y187922D01*
X276018Y189759D01*
Y191749D01*
X275257Y193586D01*
X273850Y194993D01*
X272013Y195754D01*
X270023D01*
X268186Y194993D01*
X267006Y193813D01*
X221485D01*
X95083Y320215D01*
X94090Y320878D01*
X92920Y321111D01*
X92920Y321111D01*
X80890D01*
X80572Y322298D01*
X79124Y324806D01*
X77076Y326854D01*
X74568Y328302D01*
X71770Y329052D01*
D02*
G37*
G36*
Y202052D02*
X68874D01*
X66076Y201302D01*
X63568Y199854D01*
X61520Y197806D01*
X60072Y195298D01*
X59322Y192500D01*
Y189604D01*
X60072Y186806D01*
X61520Y184298D01*
X63568Y182250D01*
X66076Y180802D01*
X68874Y180052D01*
X71770D01*
X74568Y180802D01*
X77076Y182250D01*
X79124Y184298D01*
X80572Y186806D01*
X81322Y189604D01*
Y192500D01*
X80572Y195298D01*
X79124Y197806D01*
X77076Y199854D01*
X74568Y201302D01*
X71770Y202052D01*
D02*
G37*
G36*
X919400Y194264D02*
X909400D01*
X906267Y193851D01*
X903348Y192642D01*
X900842Y190718D01*
X898918Y188212D01*
X897709Y185293D01*
X897297Y182160D01*
X897709Y179027D01*
X898918Y176108D01*
X900842Y173601D01*
X903348Y171678D01*
X906267Y170469D01*
X909400Y170056D01*
X919400D01*
X922533Y170469D01*
X925452Y171678D01*
X927959Y173601D01*
X929882Y176108D01*
X931091Y179027D01*
X931504Y182160D01*
X931091Y185293D01*
X929882Y188212D01*
X927959Y190718D01*
X925452Y192642D01*
X922533Y193851D01*
X919400Y194264D01*
D02*
G37*
G36*
X71770Y176652D02*
X68874D01*
X66076Y175902D01*
X63568Y174454D01*
X61520Y172406D01*
X60072Y169898D01*
X59322Y167100D01*
Y164204D01*
X60072Y161406D01*
X61520Y158898D01*
X63568Y156850D01*
X66076Y155402D01*
X68874Y154652D01*
X71770D01*
X74568Y155402D01*
X77076Y156850D01*
X79124Y158898D01*
X80572Y161406D01*
X81322Y164204D01*
Y167100D01*
X80572Y169898D01*
X79124Y172406D01*
X77076Y174454D01*
X74568Y175902D01*
X71770Y176652D01*
D02*
G37*
G36*
X443971Y154606D02*
X441981D01*
X440144Y153845D01*
X438964Y152665D01*
X300736D01*
X299566Y152432D01*
X298573Y151769D01*
X293790Y146986D01*
X292121D01*
X290284Y146225D01*
X288877Y144818D01*
X288116Y142981D01*
Y140991D01*
X288877Y139154D01*
X290284Y137747D01*
X292121Y136986D01*
X294111D01*
X295948Y137747D01*
X297355Y139154D01*
X298116Y140991D01*
Y142660D01*
X302003Y146547D01*
X438964D01*
X440144Y145367D01*
X441981Y144606D01*
X443971D01*
X445808Y145367D01*
X447215Y146774D01*
X447976Y148611D01*
Y150601D01*
X447215Y152438D01*
X445808Y153845D01*
X443971Y154606D01*
D02*
G37*
G36*
X123931Y191944D02*
X121941D01*
X120104Y191183D01*
X118697Y189776D01*
X117936Y187939D01*
Y185949D01*
X118697Y184112D01*
X119877Y182932D01*
Y154654D01*
X107474Y142251D01*
X54099D01*
X47981Y148369D01*
Y155084D01*
X49168Y155402D01*
X51676Y156850D01*
X53724Y158898D01*
X55172Y161406D01*
X55922Y164204D01*
Y167100D01*
X55172Y169898D01*
X53724Y172406D01*
X51676Y174454D01*
X49168Y175902D01*
X46370Y176652D01*
X43474D01*
X40676Y175902D01*
X38168Y174454D01*
X36120Y172406D01*
X34672Y169898D01*
X33922Y167100D01*
Y164204D01*
X34672Y161406D01*
X36120Y158898D01*
X38168Y156850D01*
X40676Y155402D01*
X41863Y155084D01*
Y147102D01*
X41863Y147102D01*
X42096Y145932D01*
X42759Y144939D01*
X50669Y137029D01*
X51662Y136366D01*
X52832Y136133D01*
X108741D01*
X108741Y136133D01*
X109911Y136366D01*
X110904Y137029D01*
X125099Y151224D01*
X125099Y151224D01*
X125762Y152217D01*
X125995Y153387D01*
Y182932D01*
X127175Y184112D01*
X127936Y185949D01*
Y187939D01*
X127175Y189776D01*
X125768Y191183D01*
X123931Y191944D01*
D02*
G37*
G36*
X142727Y206422D02*
X140737D01*
X138900Y205661D01*
X137493Y204254D01*
X136732Y202417D01*
Y200427D01*
X137493Y198590D01*
X138673Y197410D01*
Y159853D01*
X138673Y159853D01*
X138906Y158683D01*
X139569Y157690D01*
X197418Y99841D01*
X197418Y99841D01*
X198411Y99178D01*
X199581Y98945D01*
X199581Y98945D01*
X330506D01*
X331686Y97765D01*
X333523Y97004D01*
X335513D01*
X337350Y97765D01*
X338757Y99172D01*
X339518Y101009D01*
Y102999D01*
X338757Y104836D01*
X337350Y106243D01*
X335513Y107004D01*
X333523D01*
X331686Y106243D01*
X330506Y105063D01*
X200848D01*
X144791Y161120D01*
Y197410D01*
X145971Y198590D01*
X146732Y200427D01*
Y202417D01*
X145971Y204254D01*
X144564Y205661D01*
X142727Y206422D01*
D02*
G37*
G36*
X155173Y219630D02*
X153183D01*
X151346Y218869D01*
X149939Y217462D01*
X149178Y215625D01*
Y213635D01*
X149939Y211798D01*
X151119Y210618D01*
Y170047D01*
X151119Y170047D01*
X151352Y168877D01*
X152015Y167884D01*
X206492Y113407D01*
X207485Y112744D01*
X208655Y112511D01*
X208655Y112511D01*
X338839D01*
X341619Y109731D01*
Y99516D01*
X340439Y98336D01*
X339678Y96499D01*
Y94509D01*
X340439Y92672D01*
X341846Y91265D01*
X343683Y90504D01*
X345673D01*
X347510Y91265D01*
X348917Y92672D01*
X349678Y94509D01*
Y96499D01*
X348917Y98336D01*
X347737Y99516D01*
Y110998D01*
X347737Y110998D01*
X347504Y112169D01*
X346841Y113161D01*
X342269Y117733D01*
X341277Y118396D01*
X340106Y118629D01*
X340106Y118629D01*
X209922D01*
X157237Y171314D01*
Y210618D01*
X158417Y211798D01*
X159178Y213635D01*
Y215625D01*
X158417Y217462D01*
X157010Y218869D01*
X155173Y219630D01*
D02*
G37*
G36*
X804926Y44126D02*
X802446Y43800D01*
X800135Y42842D01*
X798150Y41319D01*
X796628Y39335D01*
X795670Y37024D01*
X795344Y34544D01*
X795670Y32064D01*
X796628Y29753D01*
X798150Y27768D01*
X800135Y26246D01*
X802446Y25289D01*
X804926Y24962D01*
X807406Y25289D01*
X809717Y26246D01*
X811701Y27768D01*
X813224Y29753D01*
X814182Y32064D01*
X814508Y34544D01*
X814182Y37024D01*
X813224Y39335D01*
X811701Y41319D01*
X809717Y42842D01*
X807406Y43800D01*
X804926Y44126D01*
D02*
G37*
G36*
X141986Y39300D02*
X139506Y38974D01*
X137195Y38016D01*
X135211Y36493D01*
X133688Y34509D01*
X132731Y32198D01*
X132404Y29718D01*
X132731Y27238D01*
X133688Y24927D01*
X135211Y22943D01*
X137195Y21420D01*
X139506Y20463D01*
X141986Y20136D01*
X144466Y20463D01*
X146777Y21420D01*
X148761Y22943D01*
X150284Y24927D01*
X151242Y27238D01*
X151568Y29718D01*
X151242Y32198D01*
X150284Y34509D01*
X148761Y36493D01*
X146777Y38016D01*
X144466Y38974D01*
X141986Y39300D01*
D02*
G37*
G36*
X293624Y31632D02*
X291144Y31305D01*
X288833Y30348D01*
X286849Y28826D01*
X285326Y26841D01*
X284368Y24530D01*
X284042Y22050D01*
Y16050D01*
X284368Y13570D01*
X285326Y11259D01*
X286849Y9275D01*
X288833Y7752D01*
X291144Y6794D01*
X293624Y6468D01*
X296104Y6794D01*
X298415Y7752D01*
X300399Y9275D01*
X301922Y11259D01*
X302880Y13570D01*
X303206Y16050D01*
Y22050D01*
X302880Y24530D01*
X301922Y26841D01*
X300399Y28826D01*
X298415Y30348D01*
X296104Y31305D01*
X293624Y31632D01*
D02*
G37*
%LPD*%
D14*
X254254Y485902D02*
X275971Y507619D01*
X138430Y485902D02*
X254254D01*
X102870Y450342D02*
X138430Y485902D01*
X199644Y281432D02*
X204724Y286512D01*
X340360D01*
X224282Y257048D02*
X237998Y270764D01*
X199898Y257048D02*
X224282D01*
X293116Y141986D02*
X300736Y149606D01*
X442976D01*
X428498Y61722D02*
X440182Y73406D01*
X428498Y46482D02*
Y61722D01*
X440182Y73406D02*
Y77216D01*
X451104Y71882D02*
Y83015D01*
X439420Y51308D02*
Y60198D01*
X451104Y71882D01*
X414782Y11430D02*
X476504D01*
X514163Y49089D01*
Y63027D01*
X497078Y93218D02*
X557784D01*
X490260Y100036D02*
X497078Y93218D01*
X557784D02*
X561594Y89408D01*
X490260Y100036D02*
Y164472D01*
X275971Y507619D02*
X291973D01*
X298450Y514096D01*
X890460Y135572D02*
X912812D01*
X708660Y77216D02*
X832104D01*
X890460Y135572D01*
X650240Y135636D02*
X708660Y77216D01*
X650240Y135636D02*
Y165608D01*
X428498Y46482D02*
X433832Y41148D01*
X456438D01*
X912812Y135572D02*
X913130Y135890D01*
X562864Y131826D02*
X574802Y119888D01*
X562864Y131826D02*
Y342646D01*
X587502Y367284D01*
X298450Y514096D02*
X466598D01*
X463296Y31242D02*
X515112Y83058D01*
X548894D01*
X425450Y31242D02*
X463296D01*
X168656Y288290D02*
X199898Y257048D01*
X9144Y357886D02*
Y435102D01*
Y357886D02*
X23578Y343452D01*
X44922D01*
X340106Y115570D02*
X344678Y110998D01*
X208655Y115570D02*
X340106D01*
X344678Y95504D02*
Y110998D01*
X70322Y318052D02*
X92920D01*
X220218Y190754D02*
X271018D01*
X92920Y318052D02*
X220218Y190754D01*
X523526Y72390D02*
X557530D01*
X561594Y76454D02*
Y89408D01*
X557530Y72390D02*
X561594Y76454D01*
X456438Y41148D02*
X476250Y60960D01*
Y193548D01*
X421132Y21082D02*
X469900D01*
X378714Y43180D02*
X399034D01*
X421132Y21082D01*
X403950Y52742D02*
X425450Y31242D01*
X333412Y52742D02*
X403950D01*
X469900Y21082D02*
X505206Y56388D01*
X407162Y19050D02*
X414782Y11430D01*
X702056Y448564D02*
Y486918D01*
X674370Y514604D02*
X702056Y486918D01*
X24384Y450342D02*
X102870D01*
X9144Y435102D02*
X24384Y450342D01*
X587502Y367284D02*
Y394970D01*
X611378Y379222D02*
Y394716D01*
X571754Y134366D02*
Y339598D01*
X611378Y379222D01*
X209806Y408800D02*
X254262D01*
X168656Y367650D02*
X209806Y408800D01*
X168656Y288290D02*
Y367650D01*
X340360Y286512D02*
X466344Y160528D01*
X674370Y514604D02*
Y522986D01*
X373634Y60960D02*
X402975D01*
X419231Y77216D02*
X440182D01*
X402975Y60960D02*
X419231Y77216D01*
X405087Y129032D02*
X451104Y83015D01*
X265938Y129032D02*
X405087D01*
X449834Y57658D02*
X466344Y74168D01*
X395224Y19050D02*
X407162D01*
X514163Y63027D02*
X523526Y72390D01*
X319024Y38354D02*
X333412Y52742D01*
X319024Y19050D02*
Y38354D01*
X369824Y19050D02*
Y34290D01*
X378714Y43180D01*
X122936Y153387D02*
Y186944D01*
X52832Y139192D02*
X108741D01*
X122936Y153387D01*
X44922Y147102D02*
Y165652D01*
Y147102D02*
X52832Y139192D01*
X466344Y74168D02*
Y160528D01*
X166370Y228600D02*
X265938Y129032D01*
X154178Y170047D02*
X208655Y115570D01*
X70322Y394252D02*
X105112D01*
X123190Y317360D02*
Y376174D01*
X105112Y394252D02*
X123190Y376174D01*
X70322Y368852D02*
X97746D01*
X110998Y322764D02*
Y355600D01*
X97746Y368852D02*
X110998Y355600D01*
X70322Y343452D02*
X83522D01*
X223266Y203708D01*
X211044Y229506D02*
X272542D01*
X223266Y203708D02*
X271272D01*
X110998Y322764D02*
X217256Y216506D01*
X271272D01*
X123190Y317360D02*
X211044Y229506D01*
X199581Y102004D02*
X334518D01*
X141732Y159853D02*
X199581Y102004D01*
X154178Y170047D02*
Y214630D01*
X141732Y159853D02*
Y201422D01*
D37*
X804926Y34544D02*
D03*
X144526Y518160D02*
D03*
X141986Y29718D02*
D03*
X796036Y505460D02*
D03*
D68*
X801370Y115062D02*
X802640D01*
X807212Y119634D01*
X593852Y179070D02*
X600710Y185928D01*
X680720D02*
X699262Y167386D01*
X600710Y185928D02*
X680720D01*
X750570Y131826D02*
Y200914D01*
X767334Y115062D02*
X801370D01*
X750570Y131826D02*
X767334Y115062D01*
X572008Y392684D02*
X588518Y409194D01*
X610734D01*
X530352Y392684D02*
X572008D01*
X641350Y221488D02*
X657606Y205232D01*
X746252D01*
X641350Y221488D02*
Y378578D01*
X699262Y108208D02*
X717808Y89662D01*
X827446D01*
X610734Y409194D02*
X641350Y378578D01*
X746252Y205232D02*
X750570Y200914D01*
X699262Y108208D02*
Y167386D01*
X593852Y97536D02*
Y179070D01*
X584835Y88519D02*
X593852Y97536D01*
X524256Y37748D02*
X531016Y30988D01*
X524256Y37748D02*
Y57404D01*
X531016Y30988D02*
X561340D01*
D69*
X476250Y193548D02*
X494792D01*
X548132Y140208D01*
Y125222D02*
Y140208D01*
X564388Y404368D02*
X582676Y422656D01*
X616966D02*
X662178Y377444D01*
X582676Y422656D02*
X616966D01*
X360680Y309118D02*
X476250Y193548D01*
X205810Y309118D02*
X360680D01*
X662178Y377444D02*
X708660D01*
X196262Y349460D02*
Y350752D01*
Y318666D02*
Y349460D01*
X468878Y356610D02*
X516636Y404368D01*
X564388D01*
X202120Y356610D02*
X468878D01*
X196262Y350752D02*
X202120Y356610D01*
X548132Y125222D02*
X584835Y88519D01*
Y63262D02*
Y88519D01*
X524256Y57404D02*
X578977D01*
X584835Y63262D01*
X196262Y318666D02*
X205810Y309118D01*
D70*
X150380Y479310D02*
X465976D01*
X109220Y438150D02*
X150380Y479310D01*
X465976D02*
X523623Y536956D01*
X112522Y422148D02*
X162814Y472440D01*
X505206D01*
X529844Y497078D01*
X683024Y432054D02*
X833120D01*
X892514Y372660D01*
X914400D01*
X618000Y497078D02*
X683024Y432054D01*
X529844Y497078D02*
X618000D01*
X653542Y472948D02*
X687578Y438912D01*
X855836D01*
X883988Y410760D01*
X653542Y472948D02*
Y522478D01*
X57306Y422148D02*
X112522D01*
X523623Y536956D02*
X639064D01*
X653542Y522478D01*
X883988Y410760D02*
X914400D01*
X40640Y438150D02*
X109220D01*
X24130Y377190D02*
Y421640D01*
Y377190D02*
X32258Y369062D01*
X44712D01*
X24130Y421640D02*
X40640Y438150D01*
X44712Y369062D02*
X44922Y368852D01*
Y409764D02*
X57306Y422148D01*
X44922Y394252D02*
Y409764D01*
D72*
X183287Y449987D02*
X630021D01*
X674370Y405638D02*
X728472D01*
X630021Y449987D02*
X674370Y405638D01*
X728472D02*
X749046Y385064D01*
Y333502D02*
Y385064D01*
X707898Y292354D02*
X749046Y333502D01*
X158750Y425450D02*
X183287Y449987D01*
D74*
X293624Y19050D02*
D03*
X319024D02*
D03*
X344424D02*
D03*
X369824D02*
D03*
X395224D02*
D03*
D75*
X913130Y110490D02*
D03*
Y135890D02*
D03*
X914400Y182160D02*
D03*
Y220260D02*
D03*
Y258360D02*
D03*
Y296460D02*
D03*
Y334560D02*
D03*
Y372660D02*
D03*
Y410760D02*
D03*
Y448860D02*
D03*
D76*
X70322Y394252D02*
D03*
Y368852D02*
D03*
Y343452D02*
D03*
Y318052D02*
D03*
Y292652D02*
D03*
Y267252D02*
D03*
Y241852D02*
D03*
Y216452D02*
D03*
Y191052D02*
D03*
Y165652D02*
D03*
X44922Y394252D02*
D03*
Y368852D02*
D03*
Y343452D02*
D03*
Y318052D02*
D03*
Y292652D02*
D03*
Y267252D02*
D03*
Y241852D02*
D03*
Y216452D02*
D03*
Y191052D02*
D03*
Y165652D02*
D03*
D77*
X493981Y283464D02*
D03*
Y293624D02*
D03*
Y303784D02*
D03*
X509221D02*
D03*
Y293624D02*
D03*
Y283464D02*
D03*
X199644Y281432D02*
D03*
X237998Y270764D02*
D03*
X827446Y89662D02*
D03*
X530352Y392684D02*
D03*
X514858Y419862D02*
D03*
X506349D02*
D03*
X497840D02*
D03*
X514858Y427736D02*
D03*
X506349D02*
D03*
X497840D02*
D03*
X631190Y520446D02*
D03*
X529844Y497078D02*
D03*
X702056Y448564D02*
D03*
X158750Y394208D02*
D03*
Y404114D02*
D03*
Y415036D02*
D03*
Y425450D02*
D03*
X147066D02*
D03*
Y415036D02*
D03*
Y404114D02*
D03*
Y394208D02*
D03*
X696214Y261112D02*
D03*
Y271018D02*
D03*
Y281940D02*
D03*
Y292354D02*
D03*
X707898D02*
D03*
Y281940D02*
D03*
Y271018D02*
D03*
Y261112D02*
D03*
X650240Y165608D02*
D03*
X807212Y119634D02*
D03*
X564388Y404368D02*
D03*
X593852Y179070D02*
D03*
X699262Y167386D02*
D03*
X750570Y200914D02*
D03*
X801370Y115062D02*
D03*
X254262Y408800D02*
D03*
X342646Y539750D02*
D03*
X330962Y540004D02*
D03*
X479552Y513842D02*
D03*
X466598Y514096D02*
D03*
X653542Y522478D02*
D03*
X611378Y394716D02*
D03*
X587502Y394970D02*
D03*
X574802Y119888D02*
D03*
X571754Y134366D02*
D03*
X439420Y51308D02*
D03*
X440182Y77216D02*
D03*
X449834Y57658D02*
D03*
X490260Y165902D02*
D03*
X505206Y56388D02*
D03*
X708660Y377444D02*
D03*
X524256Y57404D02*
D03*
X561340Y30988D02*
D03*
X373634Y60960D02*
D03*
X476250Y193548D02*
D03*
X548132Y140208D02*
D03*
X548894Y83058D02*
D03*
X122936Y186944D02*
D03*
X442976Y149606D02*
D03*
X293116Y141986D02*
D03*
X272542Y229506D02*
D03*
X271272Y216506D02*
D03*
X271018Y190754D02*
D03*
X271272Y203708D02*
D03*
X334518Y102004D02*
D03*
X344678Y95504D02*
D03*
X141732Y201422D02*
D03*
X154178Y214630D02*
D03*
X166370Y228600D02*
D03*
X196262Y349460D02*
D03*
X674370Y522986D02*
D03*
M02*
