G04*
G04 #@! TF.GenerationSoftware,Altium Limited,Altium Designer,23.8.1 (32)*
G04*
G04 Layer_Color=16711935*
%FSLAX44Y44*%
%MOMM*%
G71*
G04*
G04 #@! TF.SameCoordinates,5CA60E89-82B3-479B-9089-D34F769FB2F0*
G04*
G04*
G04 #@! TF.FilePolarity,Negative*
G04*
G01*
G75*
%ADD58C,1.1000*%
%ADD63O,1.6000X2.2000*%
%ADD64O,3.2032X2.2032*%
%ADD65C,2.0032*%
%ADD66C,0.8032*%
%ADD67C,0.7000*%
D58*
X804926Y34544D02*
D03*
X144526Y518160D02*
D03*
X141986Y29718D02*
D03*
X796036Y505460D02*
D03*
D63*
X293624Y19050D02*
D03*
X319024D02*
D03*
X344424D02*
D03*
X369824D02*
D03*
X395224D02*
D03*
D64*
X913130Y110490D02*
D03*
Y135890D02*
D03*
X914400Y182160D02*
D03*
Y220260D02*
D03*
Y258360D02*
D03*
Y296460D02*
D03*
Y334560D02*
D03*
Y372660D02*
D03*
Y410760D02*
D03*
Y448860D02*
D03*
D65*
X70322Y394252D02*
D03*
Y368852D02*
D03*
Y343452D02*
D03*
Y318052D02*
D03*
Y292652D02*
D03*
Y267252D02*
D03*
Y241852D02*
D03*
Y216452D02*
D03*
Y191052D02*
D03*
Y165652D02*
D03*
X44922Y394252D02*
D03*
Y368852D02*
D03*
Y343452D02*
D03*
Y318052D02*
D03*
Y292652D02*
D03*
Y267252D02*
D03*
Y241852D02*
D03*
Y216452D02*
D03*
Y191052D02*
D03*
Y165652D02*
D03*
D66*
X493981Y283464D02*
D03*
Y293624D02*
D03*
Y303784D02*
D03*
X509221D02*
D03*
Y293624D02*
D03*
Y283464D02*
D03*
D67*
X199644Y281432D02*
D03*
X237998Y270764D02*
D03*
X827446Y89662D02*
D03*
X530352Y392684D02*
D03*
X514858Y419862D02*
D03*
X506349D02*
D03*
X497840D02*
D03*
X514858Y427736D02*
D03*
X506349D02*
D03*
X497840D02*
D03*
X631190Y520446D02*
D03*
X529844Y497078D02*
D03*
X702056Y448564D02*
D03*
X158750Y394208D02*
D03*
Y404114D02*
D03*
Y415036D02*
D03*
Y425450D02*
D03*
X147066D02*
D03*
Y415036D02*
D03*
Y404114D02*
D03*
Y394208D02*
D03*
X696214Y261112D02*
D03*
Y271018D02*
D03*
Y281940D02*
D03*
Y292354D02*
D03*
X707898D02*
D03*
Y281940D02*
D03*
Y271018D02*
D03*
Y261112D02*
D03*
X650240Y165608D02*
D03*
X807212Y119634D02*
D03*
X564388Y404368D02*
D03*
X593852Y179070D02*
D03*
X699262Y167386D02*
D03*
X750570Y200914D02*
D03*
X801370Y115062D02*
D03*
X254262Y408800D02*
D03*
X342646Y539750D02*
D03*
X330962Y540004D02*
D03*
X479552Y513842D02*
D03*
X466598Y514096D02*
D03*
X653542Y522478D02*
D03*
X611378Y394716D02*
D03*
X587502Y394970D02*
D03*
X574802Y119888D02*
D03*
X571754Y134366D02*
D03*
X439420Y51308D02*
D03*
X440182Y77216D02*
D03*
X449834Y57658D02*
D03*
X490260Y165902D02*
D03*
X505206Y56388D02*
D03*
X708660Y377444D02*
D03*
X524256Y57404D02*
D03*
X561340Y30988D02*
D03*
X373634Y60960D02*
D03*
X476250Y193548D02*
D03*
X548132Y140208D02*
D03*
X548894Y83058D02*
D03*
X122936Y186944D02*
D03*
X442976Y149606D02*
D03*
X293116Y141986D02*
D03*
X272542Y229506D02*
D03*
X271272Y216506D02*
D03*
X271018Y190754D02*
D03*
X271272Y203708D02*
D03*
X334518Y102004D02*
D03*
X344678Y95504D02*
D03*
X141732Y201422D02*
D03*
X154178Y214630D02*
D03*
X166370Y228600D02*
D03*
X196262Y349460D02*
D03*
X674370Y522986D02*
D03*
M02*
