G04*
G04 #@! TF.GenerationSoftware,Altium Limited,Altium Designer,23.8.1 (32)*
G04*
G04 Layer_Color=65535*
%FSLAX44Y44*%
%MOMM*%
G71*
G04*
G04 #@! TF.SameCoordinates,5CA60E89-82B3-479B-9089-D34F769FB2F0*
G04*
G04*
G04 #@! TF.FilePolarity,Positive*
G04*
G01*
G75*
%ADD10C,0.5080*%
%ADD11C,0.2540*%
%ADD12C,0.2500*%
%ADD13C,0.0762*%
%ADD14C,0.2000*%
%ADD15C,0.1016*%
%ADD16C,0.1270*%
%ADD17C,0.1778*%
%ADD18C,0.1000*%
%ADD19C,0.1524*%
G36*
X124079Y340487D02*
X115189D01*
Y359537D01*
X124079Y368427D01*
Y340487D01*
D02*
G37*
G36*
X144399Y334137D02*
X131699D01*
X125349Y340487D01*
X138049D01*
X144399Y334137D01*
D02*
G37*
G36*
X154559Y331597D02*
X145669Y322707D01*
Y348107D01*
X154559Y356997D01*
Y331597D01*
D02*
G37*
G36*
X124079Y313817D02*
X115189Y304927D01*
Y334137D01*
X124079D01*
Y313817D01*
D02*
G37*
G36*
X246126Y174752D02*
X239776Y174752D01*
X246126Y181102D01*
Y174752D01*
D02*
G37*
G36*
X246380Y73914D02*
X240030Y73914D01*
X246380Y80264D01*
Y73914D01*
D02*
G37*
D10*
X178054Y337312D02*
G03*
X178054Y337312I-43180J0D01*
G01*
D11*
X513269Y275336D02*
G03*
X513269Y275336I-1000J0D01*
G01*
X521208Y138430D02*
G03*
X521208Y138430I-254J0D01*
G01*
X547862Y426974D02*
G03*
X547862Y426974I-1000J0D01*
G01*
D12*
X713197Y181174D02*
G03*
X713197Y181174I-1250J0D01*
G01*
D13*
X280420Y58420D02*
G03*
X280420Y58420I-7624J0D01*
G01*
X189742Y65024D02*
G03*
X189742Y65024I-7624J0D01*
G01*
X753368Y372364D02*
G03*
X753368Y372364I-7624J0D01*
G01*
X366780Y541782D02*
G03*
X366780Y541782I-7624J0D01*
G01*
X517148Y503428D02*
G03*
X517148Y503428I-7624J0D01*
G01*
D14*
X290524Y280954D02*
G03*
X290524Y280954I-1000J0D01*
G01*
D02*
G03*
X290524Y280954I-1000J0D01*
G01*
X629874Y284444D02*
G03*
X629874Y284444I-1000J0D01*
G01*
D02*
G03*
X629874Y284444I-1000J0D01*
G01*
X329198Y401610D02*
G03*
X329198Y401610I-1000J0D01*
G01*
D02*
G03*
X329198Y401610I-1000J0D01*
G01*
D15*
X687309Y322929D02*
X717508D01*
X894334Y95504D02*
X1013460D01*
Y150876D01*
X894334Y95504D02*
Y150876D01*
X1013460D01*
X486361Y270764D02*
X516841D01*
Y316484D01*
X486361D02*
X516841D01*
X486361Y270764D02*
Y316484D01*
X525018Y77724D02*
Y142240D01*
X462026D02*
X525018D01*
X462026Y77724D02*
X525018D01*
X462026D02*
Y142240D01*
X716809Y187960D02*
X718333Y189484D01*
X295910Y506628D02*
X306578Y511638D01*
X317246Y506628D01*
X295910D02*
X317246D01*
X316230Y507105D02*
X317246Y506628D01*
X316230D02*
Y507105D01*
X278257Y248158D02*
X284607D01*
X281432Y244983D02*
Y251333D01*
X377342Y214122D02*
X382352Y203454D01*
X377342Y192786D02*
X382352Y203454D01*
X377342Y192786D02*
Y214122D01*
Y192786D02*
X377819Y193802D01*
X377342D02*
X377819D01*
X377342Y189103D02*
X382352Y178435D01*
X377342Y167767D02*
X382352Y178435D01*
X377342Y167767D02*
Y189103D01*
Y167767D02*
X377819Y168783D01*
X377342D02*
X377819D01*
X377342Y164084D02*
X382352Y153416D01*
X377342Y142748D02*
X382352Y153416D01*
X377342Y142748D02*
Y164084D01*
Y142748D02*
X377819Y143764D01*
X377342D02*
X377819D01*
X661670Y273177D02*
Y279527D01*
X658495Y276352D02*
X664845D01*
X295402Y406527D02*
Y412877D01*
X292227Y409702D02*
X298577D01*
D16*
X717550Y298196D02*
Y361696D01*
X687070Y298196D02*
X717550D01*
X687070D02*
Y361696D01*
X717550D01*
X608838Y526288D02*
X647954D01*
X608838D02*
Y547878D01*
X647954D01*
Y526288D02*
Y547878D01*
X663448Y479552D02*
Y518668D01*
X641858Y479552D02*
X663448D01*
X641858D02*
Y518668D01*
X663448D01*
X663702Y479552D02*
Y518668D01*
X685292D01*
Y479552D02*
Y518668D01*
X663702Y479552D02*
X685292D01*
X399542Y214122D02*
X438658D01*
Y192532D02*
Y214122D01*
X399542Y192532D02*
X438658D01*
X399542D02*
Y214122D01*
Y189103D02*
X438658D01*
Y167513D02*
Y189103D01*
X399542Y167513D02*
X438658D01*
X399542D02*
Y189103D01*
Y164084D02*
X438658D01*
Y142494D02*
Y164084D01*
X399542Y142494D02*
X438658D01*
X399542D02*
Y164084D01*
X319278Y531368D02*
X358394D01*
Y509778D02*
Y531368D01*
X319278Y509778D02*
X358394D01*
X319278D02*
Y531368D01*
X663448Y440944D02*
Y480060D01*
X685038D01*
Y440944D02*
Y480060D01*
X663448Y440944D02*
X685038D01*
X529844Y526288D02*
X568960D01*
X529844D02*
Y547878D01*
X568960D01*
Y526288D02*
Y547878D01*
X557530Y362458D02*
X596646D01*
X557530D02*
Y384048D01*
X596646D01*
Y362458D02*
Y384048D01*
X641858Y440944D02*
Y480060D01*
X663448D01*
Y440944D02*
Y480060D01*
X641858Y440944D02*
X663448D01*
X850900Y138684D02*
X890016D01*
Y117094D02*
Y138684D01*
X850900Y117094D02*
X890016D01*
X850900D02*
Y138684D01*
X795782Y122346D02*
Y161462D01*
X817372D01*
Y122346D02*
Y161462D01*
X795782Y122346D02*
X817372D01*
X627714Y47244D02*
Y86360D01*
X606124Y47244D02*
X627714D01*
X606124D02*
Y86360D01*
X627714D01*
X817372Y139446D02*
X856488D01*
X817372D02*
Y161036D01*
X856488D01*
Y139446D02*
Y161036D01*
X856742Y141224D02*
Y180340D01*
X878332D01*
Y141224D02*
Y180340D01*
X856742Y141224D02*
X878332D01*
X493014Y197358D02*
X532130D01*
Y175768D02*
Y197358D01*
X493014Y175768D02*
X532130D01*
X493014D02*
Y197358D01*
X667084Y47244D02*
Y86360D01*
X645494Y47244D02*
X667084D01*
X645494D02*
Y86360D01*
X667084D01*
X795782Y161716D02*
Y200832D01*
X817372D01*
Y161716D02*
Y200832D01*
X795782Y161716D02*
X817372D01*
X826008Y95504D02*
X865124D01*
X826008D02*
Y117094D01*
X865124D01*
Y95504D02*
Y117094D01*
X669290Y161036D02*
X708406D01*
Y139446D02*
Y161036D01*
X669290Y139446D02*
X708406D01*
X669290D02*
Y161036D01*
X817372Y161290D02*
X856488D01*
X817372D02*
Y182880D01*
X856488D01*
Y161290D02*
Y182880D01*
X707136Y445770D02*
Y484886D01*
X728726D01*
Y445770D02*
Y484886D01*
X707136Y445770D02*
X728726D01*
X817372Y182880D02*
X856488D01*
X817372D02*
Y204470D01*
X856488D01*
Y182880D02*
Y204470D01*
X560070Y318262D02*
X599186D01*
X560070D02*
Y339852D01*
X599186D01*
Y318262D02*
Y339852D01*
X518668Y322326D02*
Y361442D01*
X540258D01*
Y322326D02*
Y361442D01*
X518668Y322326D02*
X540258D01*
X560070Y340106D02*
X599186D01*
X560070D02*
Y361696D01*
X599186D01*
Y340106D02*
Y361696D01*
X560070Y318262D02*
X599186D01*
Y296672D02*
Y318262D01*
X560070Y296672D02*
X599186D01*
X560070D02*
Y318262D01*
X475185Y322326D02*
Y361442D01*
X453595Y322326D02*
X475185D01*
X453595D02*
Y361442D01*
X475185D01*
X560070Y275082D02*
X599186D01*
X560070D02*
Y296672D01*
X599186D01*
Y275082D02*
Y296672D01*
X518414Y322326D02*
Y361442D01*
X496824Y322326D02*
X518414D01*
X496824D02*
Y361442D01*
X518414D01*
X475234Y322326D02*
Y361442D01*
X496824D01*
Y322326D02*
Y361442D01*
X475234Y322326D02*
X496824D01*
X278974Y33539D02*
X409999D01*
Y4421D02*
Y33539D01*
X278974Y4421D02*
X409999D01*
X278974D02*
Y33539D01*
X364116Y322743D02*
X428813D01*
X364116D02*
Y392726D01*
X428813Y322743D02*
Y392726D01*
X364116D02*
X428813D01*
X682244Y84073D02*
X696214D01*
X682244Y109704D02*
X696214D01*
Y84073D02*
Y109704D01*
X682244Y84073D02*
Y109704D01*
X209304Y341122D02*
Y408800D01*
X241054D01*
Y341122D02*
Y408800D01*
X209304Y341122D02*
X241054D01*
X716809Y134366D02*
Y189738D01*
X795253D01*
X716809Y134366D02*
X795253D01*
Y189738D01*
X541782Y421894D02*
Y480314D01*
Y421894D02*
X638302D01*
Y480314D01*
X541782D02*
X638302D01*
X627968Y81567D02*
X645610D01*
Y46649D02*
Y80043D01*
X627968D02*
X645610D01*
X627968Y46649D02*
Y80043D01*
Y46649D02*
X645610D01*
X717677Y292931D02*
X821817D01*
X717677D02*
Y361511D01*
X821817D01*
Y292931D02*
Y361511D01*
X716153Y292931D02*
Y361511D01*
X717677Y224351D02*
X821817D01*
X717677D02*
Y292931D01*
X821817D01*
Y224351D02*
Y292931D01*
X716153Y224351D02*
Y292931D01*
X380238Y215842D02*
Y319982D01*
X448818D01*
Y215842D02*
Y319982D01*
X380238Y215842D02*
X448818D01*
X380238Y321506D02*
X448818D01*
X-64298Y112312D02*
X83022D01*
X-64298D02*
Y447592D01*
X83022Y112312D02*
Y447592D01*
X-64298D02*
X83022D01*
X246634Y243586D02*
Y265176D01*
X207518D02*
X246634D01*
X207518Y243586D02*
Y265176D01*
Y243586D02*
X246634D01*
X319278Y488188D02*
Y509778D01*
Y488188D02*
X358394D01*
Y509778D01*
X319278D02*
X358394D01*
X319278Y466344D02*
Y487934D01*
Y466344D02*
X358394D01*
Y487934D01*
X319278D02*
X358394D01*
X659130Y366776D02*
Y388366D01*
Y366776D02*
X698246D01*
Y388366D01*
X659130D02*
X698246D01*
X608584Y526288D02*
Y547878D01*
X569468D02*
X608584D01*
X569468Y526288D02*
Y547878D01*
Y526288D02*
X608584D01*
X685292Y491236D02*
X706882D01*
X685292Y452120D02*
Y491236D01*
Y452120D02*
X706882D01*
Y491236D01*
X512318Y363474D02*
Y385064D01*
Y363474D02*
X551434D01*
Y385064D01*
X512318D02*
X551434D01*
X512064Y363474D02*
Y385064D01*
X472948D02*
X512064D01*
X472948Y363474D02*
Y385064D01*
Y363474D02*
X512064D01*
X247396Y143002D02*
Y164592D01*
X208280D02*
X247396D01*
X208280Y143002D02*
Y164592D01*
Y143002D02*
X247396D01*
X406908Y49784D02*
X428498D01*
Y88900D01*
X406908D02*
X428498D01*
X406908Y49784D02*
Y88900D01*
X385318Y49784D02*
X406908D01*
Y88900D01*
X385318D02*
X406908D01*
X385318Y49784D02*
Y88900D01*
X623396Y125730D02*
X644986D01*
X623396Y86614D02*
Y125730D01*
Y86614D02*
X644986D01*
Y125730D01*
X531796Y2794D02*
X553386D01*
Y41910D01*
X531796D02*
X553386D01*
X531796Y2794D02*
Y41910D01*
X510206Y2794D02*
X531796D01*
Y41910D01*
X510206D02*
X531796D01*
X510206Y2794D02*
Y41910D01*
X505968Y236728D02*
X527558D01*
X505968Y197612D02*
Y236728D01*
Y197612D02*
X527558D01*
Y236728D01*
X645494Y125730D02*
X667084D01*
X645494Y86614D02*
Y125730D01*
Y86614D02*
X667084D01*
Y125730D01*
X475060Y201168D02*
X496650D01*
Y240284D01*
X475060D02*
X496650D01*
X475060Y201168D02*
Y240284D01*
X453470Y201168D02*
X475060D01*
Y240284D01*
X453470D02*
X475060D01*
X453470Y201168D02*
Y240284D01*
X565589Y148508D02*
X587179D01*
Y187624D01*
X565589D02*
X587179D01*
X565589Y148508D02*
Y187624D01*
X543999Y148508D02*
X565589D01*
Y187624D01*
X543999D02*
X565589D01*
X543999Y148508D02*
Y187624D01*
X708914Y114808D02*
Y136398D01*
X669798D02*
X708914D01*
X669798Y114808D02*
Y136398D01*
Y114808D02*
X708914D01*
X756412Y189230D02*
Y210820D01*
Y189230D02*
X795528D01*
Y210820D01*
X756412D02*
X795528D01*
X433783Y363474D02*
Y385064D01*
Y363474D02*
X472899D01*
Y385064D01*
X433783D02*
X472899D01*
X432005Y361442D02*
X453595D01*
X432005Y322326D02*
Y361442D01*
Y322326D02*
X453595D01*
Y361442D01*
X550672Y244094D02*
Y265684D01*
Y244094D02*
X589788D01*
Y265684D01*
X550672D02*
X589788D01*
X192706Y450342D02*
X214296D01*
X192706Y411226D02*
Y450342D01*
Y411226D02*
X214296D01*
Y450342D01*
X235886D01*
X214296Y411226D02*
Y450342D01*
Y411226D02*
X235886D01*
Y450342D01*
X257476D01*
X235886Y411226D02*
Y450342D01*
Y411226D02*
X257476D01*
Y450342D01*
X521921Y246634D02*
Y268224D01*
X482805D02*
X521921D01*
X482805Y246634D02*
Y268224D01*
Y246634D02*
X521921D01*
X529707Y195431D02*
Y237212D01*
X655669D01*
Y195431D02*
Y237212D01*
X529707Y195431D02*
X655669D01*
X209550Y73914D02*
Y138176D01*
X246380D01*
Y73914D02*
Y138176D01*
X209550Y73914D02*
X246380D01*
X209296Y174752D02*
X246126D01*
Y239014D01*
X209296D02*
X246126D01*
X209296Y174752D02*
Y239014D01*
X295910Y489458D02*
X317500D01*
Y528574D01*
X295910D02*
X317500D01*
X295910Y489458D02*
Y528574D01*
X361696Y397846D02*
Y531450D01*
X491236D01*
Y397846D02*
Y531450D01*
X361696Y397846D02*
X491236D01*
X366776Y223012D02*
Y255454D01*
X288798Y223012D02*
X366776D01*
X274092Y237718D02*
X288798Y223012D01*
X274092Y237718D02*
Y255454D01*
X366776Y278454D02*
Y310896D01*
X288798D02*
X366776D01*
X274092Y296190D02*
X288798Y310896D01*
X274092Y278454D02*
Y296190D01*
X360172Y192532D02*
Y214122D01*
Y192532D02*
X399288D01*
Y214122D01*
X360172D02*
X399288D01*
X360172Y167513D02*
Y189103D01*
Y167513D02*
X399288D01*
Y189103D01*
X360172D02*
X399288D01*
X360172Y142494D02*
Y164084D01*
Y142494D02*
X399288D01*
Y164084D01*
X360172D02*
X399288D01*
X654374Y361696D02*
X686816D01*
Y283718D02*
Y361696D01*
X672110Y269012D02*
X686816Y283718D01*
X654374Y269012D02*
X672110D01*
X598932Y361696D02*
X631374D01*
X598932Y283718D02*
Y361696D01*
Y283718D02*
X613638Y269012D01*
X631374D01*
X894399Y156762D02*
Y473756D01*
X998220D01*
X894399Y156762D02*
X998220D01*
Y473756D01*
X270256Y324358D02*
X302698D01*
X270256D02*
Y402336D01*
X284962Y417042D01*
X302698D01*
X325698Y324358D02*
X358140D01*
Y402336D01*
X343434Y417042D02*
X358140Y402336D01*
X325698Y417042D02*
X343434D01*
X620440Y551308D02*
Y557656D01*
X623614D01*
X624672Y556598D01*
Y554482D01*
X623614Y553424D01*
X620440D01*
X622556D02*
X624672Y551308D01*
X626788Y556598D02*
X627846Y557656D01*
X629962D01*
X631020Y556598D01*
Y555540D01*
X629962Y554482D01*
X628904D01*
X629962D01*
X631020Y553424D01*
Y552366D01*
X629962Y551308D01*
X627846D01*
X626788Y552366D01*
X633136Y556598D02*
X634194Y557656D01*
X636310D01*
X637368Y556598D01*
Y555540D01*
X636310Y554482D01*
X635252D01*
X636310D01*
X637368Y553424D01*
Y552366D01*
X636310Y551308D01*
X634194D01*
X633136Y552366D01*
X585048Y556344D02*
X583990Y557402D01*
X581874D01*
X580816Y556344D01*
Y552112D01*
X581874Y551054D01*
X583990D01*
X585048Y552112D01*
X591396Y551054D02*
X587164D01*
X591396Y555286D01*
Y556344D01*
X590338Y557402D01*
X588222D01*
X587164Y556344D01*
X593512D02*
X594570Y557402D01*
X596686D01*
X597744Y556344D01*
Y555286D01*
X596686Y554228D01*
X597744Y553170D01*
Y552112D01*
X596686Y551054D01*
X594570D01*
X593512Y552112D01*
Y553170D01*
X594570Y554228D01*
X593512Y555286D01*
Y556344D01*
X594570Y554228D02*
X596686D01*
D17*
X409448Y37846D02*
Y45464D01*
X414526Y37846D01*
Y45464D01*
X417066Y37846D02*
Y45464D01*
X420874D01*
X422144Y44194D01*
Y41655D01*
X420874Y40385D01*
X417066D01*
X419605D02*
X422144Y37846D01*
X429761Y44194D02*
X428492Y45464D01*
X425953D01*
X424683Y44194D01*
Y42924D01*
X425953Y41655D01*
X428492D01*
X429761Y40385D01*
Y39116D01*
X428492Y37846D01*
X425953D01*
X424683Y39116D01*
X432301Y45464D02*
X437379D01*
X434840D01*
Y37846D01*
X838514Y251714D02*
Y260601D01*
X841477Y257639D01*
X844439Y260601D01*
Y251714D01*
X851845Y260601D02*
X848883D01*
X847402Y259120D01*
Y253195D01*
X848883Y251714D01*
X851845D01*
X853326Y253195D01*
Y259120D01*
X851845Y260601D01*
X856289D02*
Y251714D01*
X860732D01*
X862214Y253195D01*
Y259120D01*
X860732Y260601D01*
X856289D01*
X865176D02*
Y251714D01*
X869620D01*
X871101Y253195D01*
Y254676D01*
X869620Y256158D01*
X865176D01*
X869620D01*
X871101Y257639D01*
Y259120D01*
X869620Y260601D01*
X865176D01*
X874063D02*
Y253195D01*
X875544Y251714D01*
X878507D01*
X879988Y253195D01*
Y260601D01*
X888875Y259120D02*
X887394Y260601D01*
X884431D01*
X882950Y259120D01*
Y257639D01*
X884431Y256158D01*
X887394D01*
X888875Y254676D01*
Y253195D01*
X887394Y251714D01*
X884431D01*
X882950Y253195D01*
X881126Y196596D02*
Y203367D01*
X884512Y206753D01*
X887897Y203367D01*
Y196596D01*
Y201674D01*
X881126D01*
X838029Y453895D02*
X836548Y455376D01*
X833585D01*
X832104Y453895D01*
Y447970D01*
X833585Y446489D01*
X836548D01*
X838029Y447970D01*
Y450933D01*
X835066D01*
X840991Y446489D02*
Y455376D01*
X846916Y446489D01*
Y455376D01*
X849878D02*
Y446489D01*
X854322D01*
X855803Y447970D01*
Y453895D01*
X854322Y455376D01*
X849878D01*
X858765Y445008D02*
X864690D01*
X867653Y455376D02*
X870615D01*
X869134D01*
Y446489D01*
X867653D01*
X870615D01*
X880983Y453895D02*
X879502Y455376D01*
X876540D01*
X875058Y453895D01*
Y452414D01*
X876540Y450933D01*
X879502D01*
X880983Y449452D01*
Y447970D01*
X879502Y446489D01*
X876540D01*
X875058Y447970D01*
X888389Y455376D02*
X885427D01*
X883946Y453895D01*
Y447970D01*
X885427Y446489D01*
X888389D01*
X889870Y447970D01*
Y453895D01*
X888389Y455376D01*
X881888Y229105D02*
Y218948D01*
X886966D01*
X888659Y220641D01*
Y222334D01*
X886966Y224026D01*
X881888D01*
X886966D01*
X888659Y225719D01*
Y227412D01*
X886966Y229105D01*
X881888D01*
X855301Y270296D02*
X853820Y271777D01*
X850857D01*
X849376Y270296D01*
Y264371D01*
X850857Y262890D01*
X853820D01*
X855301Y264371D01*
Y267334D01*
X852338D01*
X858263Y262890D02*
Y271777D01*
X864188Y262890D01*
Y271777D01*
X867150D02*
Y262890D01*
X871594D01*
X873075Y264371D01*
Y270296D01*
X871594Y271777D01*
X867150D01*
X868686Y298236D02*
X867204Y299717D01*
X864242D01*
X862761Y298236D01*
Y292311D01*
X864242Y290830D01*
X867204D01*
X868686Y292311D01*
Y295274D01*
X865723D01*
X871648Y290830D02*
Y299717D01*
X877573Y290830D01*
Y299717D01*
X880535D02*
Y290830D01*
X884979D01*
X886460Y292311D01*
Y298236D01*
X884979Y299717D01*
X880535D01*
X864094Y330454D02*
X867056D01*
X865575D01*
Y339341D01*
X864094Y337860D01*
X877424Y330454D02*
X871500D01*
X877424Y336379D01*
Y337860D01*
X875943Y339341D01*
X872981D01*
X871500Y337860D01*
X880387Y339341D02*
Y333416D01*
X883349Y330454D01*
X886311Y333416D01*
Y339341D01*
X852691Y378203D02*
X851209Y379684D01*
X848247D01*
X846766Y378203D01*
Y372278D01*
X848247Y370797D01*
X851209D01*
X852691Y372278D01*
X855653Y370797D02*
Y376722D01*
X858615Y379684D01*
X861578Y376722D01*
Y370797D01*
Y375241D01*
X855653D01*
X864540Y370797D02*
Y379684D01*
X870465Y370797D01*
Y379684D01*
X873427Y369316D02*
X879352D01*
X882315Y379684D02*
Y370797D01*
Y375241D01*
X888239D01*
Y379684D01*
Y370797D01*
X852691Y417319D02*
X851209Y418800D01*
X848247D01*
X846766Y417319D01*
Y411394D01*
X848247Y409913D01*
X851209D01*
X852691Y411394D01*
X855653Y409913D02*
Y415838D01*
X858615Y418800D01*
X861578Y415838D01*
Y409913D01*
Y414357D01*
X855653D01*
X864540Y409913D02*
Y418800D01*
X870465Y409913D01*
Y418800D01*
X873427Y408432D02*
X879352D01*
X882315Y418800D02*
Y409913D01*
X888239D01*
X271018Y44194D02*
X272288Y45464D01*
X274827D01*
X276096Y44194D01*
Y42924D01*
X274827Y41655D01*
X273557D01*
X274827D01*
X276096Y40385D01*
Y39116D01*
X274827Y37846D01*
X272288D01*
X271018Y39116D01*
X278636Y42924D02*
X281175Y37846D01*
X283714Y42924D01*
X286253Y44194D02*
X287523Y45464D01*
X290062D01*
X291331Y44194D01*
Y42924D01*
X290062Y41655D01*
X288792D01*
X290062D01*
X291331Y40385D01*
Y39116D01*
X290062Y37846D01*
X287523D01*
X286253Y39116D01*
X804166Y55625D02*
X799087D01*
Y51816D01*
X801627D01*
X799087D01*
Y48007D01*
X806705Y55625D02*
Y48007D01*
X810514D01*
X811783Y49277D01*
Y54355D01*
X810514Y55625D01*
X806705D01*
X814322Y54355D02*
X815592Y55625D01*
X818131D01*
X819401Y54355D01*
Y53086D01*
X818131Y51816D01*
X816862D01*
X818131D01*
X819401Y50546D01*
Y49277D01*
X818131Y48007D01*
X815592D01*
X814322Y49277D01*
X256416Y150621D02*
X258955D01*
X257686D01*
Y143003D01*
X256416D01*
X258955D01*
X267842Y149351D02*
X266573Y150621D01*
X264034D01*
X262764Y149351D01*
Y144273D01*
X264034Y143003D01*
X266573D01*
X267842Y144273D01*
X270382Y150621D02*
X275460D01*
Y149351D01*
X270382Y144273D01*
Y143003D01*
X186184Y257555D02*
X184914Y258825D01*
X182375D01*
X181105Y257555D01*
Y252477D01*
X182375Y251207D01*
X184914D01*
X186184Y252477D01*
X188723Y257555D02*
X189992Y258825D01*
X192532D01*
X193801Y257555D01*
Y256286D01*
X192532Y255016D01*
X191262D01*
X192532D01*
X193801Y253746D01*
Y252477D01*
X192532Y251207D01*
X189992D01*
X188723Y252477D01*
X201419Y251207D02*
X196340D01*
X201419Y256286D01*
Y257555D01*
X200149Y258825D01*
X197610D01*
X196340Y257555D01*
X187962Y156717D02*
X186692Y157987D01*
X184153D01*
X182883Y156717D01*
Y151639D01*
X184153Y150369D01*
X186692D01*
X187962Y151639D01*
X195579Y150369D02*
X190501D01*
X195579Y155448D01*
Y156717D01*
X194310Y157987D01*
X191770D01*
X190501Y156717D01*
X201927Y150369D02*
Y157987D01*
X198118Y154178D01*
X203197D01*
X809246Y373125D02*
Y365507D01*
X813055D01*
X814324Y366777D01*
Y371855D01*
X813055Y373125D01*
X809246D01*
X820672Y365507D02*
Y373125D01*
X816864Y369316D01*
X821942D01*
X252098Y248665D02*
X254637D01*
X253368D01*
Y241047D01*
X252098D01*
X254637D01*
X263524Y247395D02*
X262255Y248665D01*
X259716D01*
X258446Y247395D01*
Y242317D01*
X259716Y241047D01*
X262255D01*
X263524Y242317D01*
X266064Y247395D02*
X267333Y248665D01*
X269872D01*
X271142Y247395D01*
Y246126D01*
X269872Y244856D01*
X271142Y243586D01*
Y242317D01*
X269872Y241047D01*
X267333D01*
X266064Y242317D01*
Y243586D01*
X267333Y244856D01*
X266064Y246126D01*
Y247395D01*
X267333Y244856D02*
X269872D01*
X499367Y522477D02*
X504446D01*
X501907D01*
Y514859D01*
X506985D02*
Y522477D01*
X510794D01*
X512063Y521207D01*
Y518668D01*
X510794Y517398D01*
X506985D01*
X519681Y522477D02*
X514602D01*
Y518668D01*
X517142Y519938D01*
X518411D01*
X519681Y518668D01*
Y516129D01*
X518411Y514859D01*
X515872D01*
X514602Y516129D01*
X368557Y551687D02*
X373636D01*
X371096D01*
Y544069D01*
X376175D02*
Y551687D01*
X379984D01*
X381253Y550417D01*
Y547878D01*
X379984Y546608D01*
X376175D01*
X387601Y544069D02*
Y551687D01*
X383792Y547878D01*
X388871D01*
X276609Y75691D02*
X281688D01*
X279149D01*
Y68073D01*
X284227D02*
Y75691D01*
X288036D01*
X289305Y74421D01*
Y71882D01*
X288036Y70612D01*
X284227D01*
X291844Y74421D02*
X293114Y75691D01*
X295653D01*
X296923Y74421D01*
Y73152D01*
X295653Y71882D01*
X294384D01*
X295653D01*
X296923Y70612D01*
Y69343D01*
X295653Y68073D01*
X293114D01*
X291844Y69343D01*
X749811Y389381D02*
X754890D01*
X752350D01*
Y381763D01*
X757429D02*
Y389381D01*
X761238D01*
X762507Y388111D01*
Y385572D01*
X761238Y384302D01*
X757429D01*
X770125Y381763D02*
X765046D01*
X770125Y386842D01*
Y388111D01*
X768855Y389381D01*
X766316D01*
X765046Y388111D01*
X163071Y83565D02*
X168149D01*
X165610D01*
Y75947D01*
X170688D02*
Y83565D01*
X174497D01*
X175767Y82295D01*
Y79756D01*
X174497Y78486D01*
X170688D01*
X178306Y75947D02*
X180845D01*
X179576D01*
Y83565D01*
X178306Y82295D01*
X661671Y212091D02*
X660401Y210822D01*
Y208283D01*
X661671Y207013D01*
X662940D01*
X664210Y208283D01*
Y210822D01*
X665480Y212091D01*
X666749D01*
X668019Y210822D01*
Y208283D01*
X666749Y207013D01*
X660401Y214630D02*
X668019D01*
X665480Y217170D01*
X668019Y219709D01*
X660401D01*
X668019Y222248D02*
Y224787D01*
Y223518D01*
X660401D01*
X661671Y222248D01*
X662685Y531625D02*
X655067D01*
Y535434D01*
X656337Y536704D01*
X658876D01*
X660146Y535434D01*
Y531625D01*
Y534165D02*
X662685Y536704D01*
X656337Y539243D02*
X655067Y540512D01*
Y543052D01*
X656337Y544321D01*
X657606D01*
X658876Y543052D01*
Y541782D01*
Y543052D01*
X660146Y544321D01*
X661415D01*
X662685Y543052D01*
Y540512D01*
X661415Y539243D01*
X662685Y551939D02*
Y546860D01*
X657606Y551939D01*
X656337D01*
X655067Y550669D01*
Y548130D01*
X656337Y546860D01*
X680719Y532133D02*
X673101D01*
Y535942D01*
X674371Y537211D01*
X676910D01*
X678180Y535942D01*
Y532133D01*
Y534672D02*
X680719Y537211D01*
X674371Y539750D02*
X673101Y541020D01*
Y543559D01*
X674371Y544829D01*
X675640D01*
X676910Y543559D01*
Y542290D01*
Y543559D01*
X678180Y544829D01*
X679449D01*
X680719Y543559D01*
Y541020D01*
X679449Y539750D01*
X680719Y547368D02*
Y549907D01*
Y548638D01*
X673101D01*
X674371Y547368D01*
X442723Y212595D02*
X450341D01*
Y208786D01*
X449071Y207516D01*
X446532D01*
X445262Y208786D01*
Y212595D01*
Y210056D02*
X442723Y207516D01*
X449071Y204977D02*
X450341Y203708D01*
Y201168D01*
X449071Y199899D01*
X447802D01*
X446532Y201168D01*
Y202438D01*
Y201168D01*
X445262Y199899D01*
X443993D01*
X442723Y201168D01*
Y203708D01*
X443993Y204977D01*
X449071Y197360D02*
X450341Y196090D01*
Y193551D01*
X449071Y192281D01*
X443993D01*
X442723Y193551D01*
Y196090D01*
X443993Y197360D01*
X449071D01*
X444872Y174131D02*
Y181748D01*
X448681D01*
X449950Y180479D01*
Y177939D01*
X448681Y176670D01*
X444872D01*
X447411D02*
X449950Y174131D01*
X457568D02*
X452489D01*
X457568Y179209D01*
Y180479D01*
X456298Y181748D01*
X453759D01*
X452489Y180479D01*
X460107Y175400D02*
X461376Y174131D01*
X463916D01*
X465185Y175400D01*
Y180479D01*
X463916Y181748D01*
X461376D01*
X460107Y180479D01*
Y179209D01*
X461376Y177939D01*
X465185D01*
X445408Y158492D02*
Y166110D01*
X449217D01*
X450487Y164840D01*
Y162301D01*
X449217Y161031D01*
X445408D01*
X447947D02*
X450487Y158492D01*
X458104D02*
X453026D01*
X458104Y163570D01*
Y164840D01*
X456834Y166110D01*
X454295D01*
X453026Y164840D01*
X460643D02*
X461913Y166110D01*
X464452D01*
X465722Y164840D01*
Y163570D01*
X464452Y162301D01*
X465722Y161031D01*
Y159762D01*
X464452Y158492D01*
X461913D01*
X460643Y159762D01*
Y161031D01*
X461913Y162301D01*
X460643Y163570D01*
Y164840D01*
X461913Y162301D02*
X464452D01*
X324357Y535435D02*
X316739D01*
Y539244D01*
X318009Y540514D01*
X320548D01*
X321818Y539244D01*
Y535435D01*
Y537975D02*
X324357Y540514D01*
Y548131D02*
Y543053D01*
X319278Y548131D01*
X318009D01*
X316739Y546862D01*
Y544322D01*
X318009Y543053D01*
X316739Y555749D02*
X318009Y553210D01*
X320548Y550670D01*
X323087D01*
X324357Y551940D01*
Y554479D01*
X323087Y555749D01*
X321818D01*
X320548Y554479D01*
Y550670D01*
X679703Y414785D02*
X672085D01*
Y418594D01*
X673355Y419864D01*
X675894D01*
X677164Y418594D01*
Y414785D01*
Y417324D02*
X679703Y419864D01*
Y427481D02*
Y422403D01*
X674624Y427481D01*
X673355D01*
X672085Y426212D01*
Y423672D01*
X673355Y422403D01*
X672085Y435099D02*
Y430020D01*
X675894D01*
X674624Y432560D01*
Y433829D01*
X675894Y435099D01*
X678433D01*
X679703Y433829D01*
Y431290D01*
X678433Y430020D01*
X503744Y533655D02*
Y541273D01*
X507553D01*
X508823Y540003D01*
Y537464D01*
X507553Y536194D01*
X503744D01*
X506284D02*
X508823Y533655D01*
X516440D02*
X511362D01*
X516440Y538734D01*
Y540003D01*
X515171Y541273D01*
X512632D01*
X511362Y540003D01*
X522788Y533655D02*
Y541273D01*
X518979Y537464D01*
X524058D01*
X561851Y388875D02*
Y396493D01*
X565660D01*
X566930Y395223D01*
Y392684D01*
X565660Y391414D01*
X561851D01*
X564390D02*
X566930Y388875D01*
X574547D02*
X569469D01*
X574547Y393954D01*
Y395223D01*
X573278Y396493D01*
X570738D01*
X569469Y395223D01*
X577086D02*
X578356Y396493D01*
X580895D01*
X582165Y395223D01*
Y393954D01*
X580895Y392684D01*
X579626D01*
X580895D01*
X582165Y391414D01*
Y390145D01*
X580895Y388875D01*
X578356D01*
X577086Y390145D01*
X655319Y414785D02*
X647701D01*
Y418594D01*
X648971Y419864D01*
X651510D01*
X652780Y418594D01*
Y414785D01*
Y417324D02*
X655319Y419864D01*
Y427481D02*
Y422403D01*
X650240Y427481D01*
X648971D01*
X647701Y426212D01*
Y423672D01*
X648971Y422403D01*
X655319Y435099D02*
Y430020D01*
X650240Y435099D01*
X648971D01*
X647701Y433829D01*
Y431290D01*
X648971Y430020D01*
X884427Y94745D02*
X876809D01*
Y98554D01*
X878079Y99823D01*
X880618D01*
X881888Y98554D01*
Y94745D01*
Y97284D02*
X884427Y99823D01*
Y107441D02*
Y102362D01*
X879348Y107441D01*
X878079D01*
X876809Y106171D01*
Y103632D01*
X878079Y102362D01*
X884427Y109980D02*
Y112519D01*
Y111250D01*
X876809D01*
X878079Y109980D01*
X771401Y108459D02*
Y116077D01*
X775210D01*
X776480Y114807D01*
Y112268D01*
X775210Y110998D01*
X771401D01*
X773941D02*
X776480Y108459D01*
X784097D02*
X779019D01*
X784097Y113538D01*
Y114807D01*
X782828Y116077D01*
X780288D01*
X779019Y114807D01*
X786636D02*
X787906Y116077D01*
X790445D01*
X791715Y114807D01*
Y109729D01*
X790445Y108459D01*
X787906D01*
X786636Y109729D01*
Y114807D01*
X605920Y34545D02*
Y42163D01*
X609729D01*
X610998Y40893D01*
Y38354D01*
X609729Y37084D01*
X605920D01*
X608459D02*
X610998Y34545D01*
X613538D02*
X616077D01*
X614807D01*
Y42163D01*
X613538Y40893D01*
X619886Y35815D02*
X621155Y34545D01*
X623694D01*
X624964Y35815D01*
Y40893D01*
X623694Y42163D01*
X621155D01*
X619886Y40893D01*
Y39624D01*
X621155Y38354D01*
X624964D01*
X825376Y128017D02*
Y135635D01*
X829185D01*
X830454Y134365D01*
Y131826D01*
X829185Y130556D01*
X825376D01*
X827915D02*
X830454Y128017D01*
X832994D02*
X835533D01*
X834263D01*
Y135635D01*
X832994Y134365D01*
X839342D02*
X840611Y135635D01*
X843150D01*
X844420Y134365D01*
Y133096D01*
X843150Y131826D01*
X844420Y130556D01*
Y129287D01*
X843150Y128017D01*
X840611D01*
X839342Y129287D01*
Y130556D01*
X840611Y131826D01*
X839342Y133096D01*
Y134365D01*
X840611Y131826D02*
X843150D01*
X890015Y151514D02*
X882397D01*
Y155323D01*
X883667Y156592D01*
X886206D01*
X887476Y155323D01*
Y151514D01*
Y154053D02*
X890015Y156592D01*
Y159132D02*
Y161671D01*
Y160401D01*
X882397D01*
X883667Y159132D01*
X882397Y165480D02*
Y170558D01*
X883667D01*
X888745Y165480D01*
X890015D01*
X502542Y164339D02*
Y171957D01*
X506351D01*
X507620Y170687D01*
Y168148D01*
X506351Y166878D01*
X502542D01*
X505081D02*
X507620Y164339D01*
X510160D02*
X512699D01*
X511429D01*
Y171957D01*
X510160Y170687D01*
X521586Y171957D02*
X519047Y170687D01*
X516508Y168148D01*
Y165609D01*
X517777Y164339D01*
X520316D01*
X521586Y165609D01*
Y166878D01*
X520316Y168148D01*
X516508D01*
X648592Y34291D02*
Y41909D01*
X652401D01*
X653670Y40639D01*
Y38100D01*
X652401Y36830D01*
X648592D01*
X651131D02*
X653670Y34291D01*
X656210D02*
X658749D01*
X657479D01*
Y41909D01*
X656210Y40639D01*
X667636Y41909D02*
X662558D01*
Y38100D01*
X665097Y39370D01*
X666366D01*
X667636Y38100D01*
Y35561D01*
X666366Y34291D01*
X663827D01*
X662558Y35561D01*
X797944Y205741D02*
Y213359D01*
X801753D01*
X803022Y212089D01*
Y209550D01*
X801753Y208280D01*
X797944D01*
X800483D02*
X803022Y205741D01*
X805562D02*
X808101D01*
X806831D01*
Y213359D01*
X805562Y212089D01*
X815718Y205741D02*
Y213359D01*
X811910Y209550D01*
X816988D01*
X837822Y81789D02*
Y89407D01*
X841631D01*
X842900Y88137D01*
Y85598D01*
X841631Y84328D01*
X837822D01*
X840361D02*
X842900Y81789D01*
X845440D02*
X847979D01*
X846709D01*
Y89407D01*
X845440Y88137D01*
X851788D02*
X853057Y89407D01*
X855596D01*
X856866Y88137D01*
Y86868D01*
X855596Y85598D01*
X854327D01*
X855596D01*
X856866Y84328D01*
Y83059D01*
X855596Y81789D01*
X853057D01*
X851788Y83059D01*
X645854Y146559D02*
Y154177D01*
X649663D01*
X650932Y152907D01*
Y150368D01*
X649663Y149099D01*
X645854D01*
X648393D02*
X650932Y146559D01*
X653472D02*
X656011D01*
X654741D01*
Y154177D01*
X653472Y152907D01*
X664898Y146559D02*
X659819D01*
X664898Y151638D01*
Y152907D01*
X663628Y154177D01*
X661089D01*
X659819Y152907D01*
X859158Y184368D02*
Y191986D01*
X862966D01*
X864236Y190716D01*
Y188177D01*
X862966Y186908D01*
X859158D01*
X861697D02*
X864236Y184368D01*
X866775D02*
X869314D01*
X868045D01*
Y191986D01*
X866775Y190716D01*
X873123Y184368D02*
X875662D01*
X874393D01*
Y191986D01*
X873123Y190716D01*
X724915Y414785D02*
X717297D01*
Y418594D01*
X718567Y419864D01*
X721106D01*
X722376Y418594D01*
Y414785D01*
Y417324D02*
X724915Y419864D01*
Y422403D02*
Y424942D01*
Y423672D01*
X717297D01*
X718567Y422403D01*
Y428751D02*
X717297Y430020D01*
Y432560D01*
X718567Y433829D01*
X723645D01*
X724915Y432560D01*
Y430020D01*
X723645Y428751D01*
X718567D01*
X831852Y208027D02*
Y215645D01*
X835661D01*
X836930Y214375D01*
Y211836D01*
X835661Y210566D01*
X831852D01*
X834391D02*
X836930Y208027D01*
X839470Y209297D02*
X840739Y208027D01*
X843278D01*
X844548Y209297D01*
Y214375D01*
X843278Y215645D01*
X840739D01*
X839470Y214375D01*
Y213106D01*
X840739Y211836D01*
X844548D01*
X554735Y322298D02*
X547117D01*
Y326107D01*
X548387Y327376D01*
X550926D01*
X552196Y326107D01*
Y322298D01*
Y324837D02*
X554735Y327376D01*
X548387Y329915D02*
X547117Y331185D01*
Y333724D01*
X548387Y334994D01*
X549656D01*
X550926Y333724D01*
X552196Y334994D01*
X553465D01*
X554735Y333724D01*
Y331185D01*
X553465Y329915D01*
X552196D01*
X550926Y331185D01*
X549656Y329915D01*
X548387D01*
X550926Y331185D02*
Y333724D01*
X556005Y344934D02*
X548387D01*
Y348743D01*
X549657Y350012D01*
X552196D01*
X553465Y348743D01*
Y344934D01*
Y347473D02*
X556005Y350012D01*
X548387Y357630D02*
X549657Y355091D01*
X552196Y352552D01*
X554735D01*
X556005Y353821D01*
Y356360D01*
X554735Y357630D01*
X553465D01*
X552196Y356360D01*
Y352552D01*
X555243Y302262D02*
X547625D01*
Y306071D01*
X548895Y307340D01*
X551434D01*
X552704Y306071D01*
Y302262D01*
Y304801D02*
X555243Y307340D01*
X547625Y314958D02*
Y309880D01*
X551434D01*
X550164Y312419D01*
Y313688D01*
X551434Y314958D01*
X553973D01*
X555243Y313688D01*
Y311149D01*
X553973Y309880D01*
X555012Y280926D02*
X547394D01*
Y284735D01*
X548664Y286005D01*
X551203D01*
X552473Y284735D01*
Y280926D01*
Y283465D02*
X555012Y286005D01*
X548664Y288544D02*
X547394Y289813D01*
Y292352D01*
X548664Y293622D01*
X549933D01*
X551203Y292352D01*
Y291083D01*
Y292352D01*
X552473Y293622D01*
X553742D01*
X555012Y292352D01*
Y289813D01*
X553742Y288544D01*
X465840Y536703D02*
Y544321D01*
X468379Y541782D01*
X470919Y544321D01*
Y536703D01*
X473458Y544321D02*
Y536703D01*
X477266D01*
X478536Y537973D01*
Y543051D01*
X477266Y544321D01*
X473458D01*
X481075D02*
Y536703D01*
X486153D01*
X488693D02*
X491232D01*
X489962D01*
Y544321D01*
X488693Y543051D01*
X328172Y207771D02*
Y200153D01*
X333251D01*
X340868Y207771D02*
X335790D01*
Y200153D01*
X340868D01*
X335790Y203962D02*
X338329D01*
X343408Y207771D02*
Y200153D01*
X347216D01*
X348486Y201423D01*
Y206501D01*
X347216Y207771D01*
X343408D01*
X354834Y200153D02*
Y207771D01*
X351025Y203962D01*
X356104D01*
X326903Y183387D02*
Y175769D01*
X331981D01*
X339598Y183387D02*
X334520D01*
Y175769D01*
X339598D01*
X334520Y179578D02*
X337059D01*
X342138Y183387D02*
Y175769D01*
X345946D01*
X347216Y177039D01*
Y182117D01*
X345946Y183387D01*
X342138D01*
X349755Y182117D02*
X351025Y183387D01*
X353564D01*
X354833Y182117D01*
Y180848D01*
X353564Y179578D01*
X352294D01*
X353564D01*
X354833Y178308D01*
Y177039D01*
X353564Y175769D01*
X351025D01*
X349755Y177039D01*
X326903Y158495D02*
Y150877D01*
X331981D01*
X339598Y158495D02*
X334520D01*
Y150877D01*
X339598D01*
X334520Y154686D02*
X337059D01*
X342138Y158495D02*
Y150877D01*
X345946D01*
X347216Y152147D01*
Y157225D01*
X345946Y158495D01*
X342138D01*
X354833Y150877D02*
X349755D01*
X354833Y155956D01*
Y157225D01*
X353564Y158495D01*
X351025D01*
X349755Y157225D01*
X283482Y494923D02*
X291099D01*
Y500001D01*
X283482Y507619D02*
Y502541D01*
X291099D01*
Y507619D01*
X287291Y502541D02*
Y505080D01*
X283482Y510158D02*
X291099D01*
Y513967D01*
X289830Y515237D01*
X284751D01*
X283482Y513967D01*
Y510158D01*
X291099Y517776D02*
Y520315D01*
Y519045D01*
X283482D01*
X284751Y517776D01*
X391416Y360419D02*
Y352801D01*
X396494D01*
X399033D02*
X401572D01*
X400303D01*
Y360419D01*
X399033Y359149D01*
X517528Y470153D02*
X520067D01*
X518798D01*
Y462535D01*
X517528D01*
X520067D01*
X528954Y468883D02*
X527685Y470153D01*
X525146D01*
X523876Y468883D01*
Y463805D01*
X525146Y462535D01*
X527685D01*
X528954Y463805D01*
X536572Y470153D02*
X534033Y468883D01*
X531494Y466344D01*
Y463805D01*
X532763Y462535D01*
X535302D01*
X536572Y463805D01*
Y465074D01*
X535302Y466344D01*
X531494D01*
X679580Y77977D02*
X682119D01*
X680850D01*
Y70359D01*
X679580D01*
X682119D01*
X691006Y76707D02*
X689737Y77977D01*
X687198D01*
X685928Y76707D01*
Y71629D01*
X687198Y70359D01*
X689737D01*
X691006Y71629D01*
X698624Y77977D02*
X693546D01*
Y74168D01*
X696085Y75438D01*
X697354D01*
X698624Y74168D01*
Y71629D01*
X697354Y70359D01*
X694815D01*
X693546Y71629D01*
X785644Y153779D02*
Y156319D01*
Y155049D01*
X793262D01*
Y153779D01*
Y156319D01*
X786914Y165206D02*
X785644Y163936D01*
Y161397D01*
X786914Y160127D01*
X791992D01*
X793262Y161397D01*
Y163936D01*
X791992Y165206D01*
X793262Y171553D02*
X785644D01*
X789453Y167745D01*
Y172823D01*
X462410Y54101D02*
X464949D01*
X463680D01*
Y46483D01*
X462410D01*
X464949D01*
X473836Y52831D02*
X472567Y54101D01*
X470028D01*
X468758Y52831D01*
Y47753D01*
X470028Y46483D01*
X472567D01*
X473836Y47753D01*
X476376Y52831D02*
X477645Y54101D01*
X480184D01*
X481454Y52831D01*
Y51562D01*
X480184Y50292D01*
X478915D01*
X480184D01*
X481454Y49022D01*
Y47753D01*
X480184Y46483D01*
X477645D01*
X476376Y47753D01*
X525402Y267969D02*
X527941D01*
X526672D01*
Y260351D01*
X525402D01*
X527941D01*
X536828Y266699D02*
X535559Y267969D01*
X533020D01*
X531750Y266699D01*
Y261621D01*
X533020Y260351D01*
X535559D01*
X536828Y261621D01*
X544446Y260351D02*
X539368D01*
X544446Y265430D01*
Y266699D01*
X543176Y267969D01*
X540637D01*
X539368Y266699D01*
X218316Y333501D02*
X220855D01*
X219585D01*
Y325883D01*
X218316D01*
X220855D01*
X229742Y332231D02*
X228472Y333501D01*
X225933D01*
X224664Y332231D01*
Y327153D01*
X225933Y325883D01*
X228472D01*
X229742Y327153D01*
X232281Y325883D02*
X234820D01*
X233551D01*
Y333501D01*
X232281Y332231D01*
X630684Y42163D02*
Y34545D01*
X634493D01*
X635762Y35815D01*
Y40893D01*
X634493Y42163D01*
X630684D01*
X638302Y40893D02*
X639571Y42163D01*
X642110D01*
X643380Y40893D01*
Y39624D01*
X642110Y38354D01*
X640841D01*
X642110D01*
X643380Y37084D01*
Y35815D01*
X642110Y34545D01*
X639571D01*
X638302Y35815D01*
X700534Y233425D02*
Y225807D01*
X704343D01*
X705612Y227077D01*
Y232155D01*
X704343Y233425D01*
X700534D01*
X713230Y225807D02*
X708152D01*
X713230Y230886D01*
Y232155D01*
X711960Y233425D01*
X709421D01*
X708152Y232155D01*
X451868Y255777D02*
Y248159D01*
X455676D01*
X456946Y249429D01*
Y254507D01*
X455676Y255777D01*
X451868D01*
X459485Y248159D02*
X462024D01*
X460755D01*
Y255777D01*
X459485Y254507D01*
X898909Y88899D02*
X897639Y90169D01*
X895100D01*
X893830Y88899D01*
Y83821D01*
X895100Y82551D01*
X897639D01*
X898909Y83821D01*
X905257Y90169D02*
X902718D01*
X901448Y88899D01*
Y83821D01*
X902718Y82551D01*
X905257D01*
X906526Y83821D01*
Y88899D01*
X905257Y90169D01*
X909066Y82551D02*
Y90169D01*
X914144Y82551D01*
Y90169D01*
X920492Y82551D02*
Y90169D01*
X916683Y86360D01*
X921761D01*
X918256Y485816D02*
X916775Y487298D01*
X913812D01*
X912331Y485816D01*
Y479892D01*
X913812Y478410D01*
X916775D01*
X918256Y479892D01*
X925662Y487298D02*
X922699D01*
X921218Y485816D01*
Y479892D01*
X922699Y478410D01*
X925662D01*
X927143Y479892D01*
Y485816D01*
X925662Y487298D01*
X930105Y478410D02*
Y487298D01*
X936030Y478410D01*
Y487298D01*
X938992Y485816D02*
X940473Y487298D01*
X943436D01*
X944917Y485816D01*
Y484335D01*
X943436Y482854D01*
X941955D01*
X943436D01*
X944917Y481373D01*
Y479892D01*
X943436Y478410D01*
X940473D01*
X938992Y479892D01*
X420119Y21335D02*
X418849Y22605D01*
X416310D01*
X415041Y21335D01*
Y16257D01*
X416310Y14987D01*
X418849D01*
X420119Y16257D01*
X426467Y22605D02*
X423928D01*
X422658Y21335D01*
Y16257D01*
X423928Y14987D01*
X426467D01*
X427736Y16257D01*
Y21335D01*
X426467Y22605D01*
X430276Y14987D02*
Y22605D01*
X435354Y14987D01*
Y22605D01*
X442971Y14987D02*
X437893D01*
X442971Y20066D01*
Y21335D01*
X441702Y22605D01*
X439163D01*
X437893Y21335D01*
X303531Y478027D02*
X302262Y479297D01*
X299722D01*
X298453Y478027D01*
Y472949D01*
X299722Y471679D01*
X302262D01*
X303531Y472949D01*
X306070Y478027D02*
X307340Y479297D01*
X309879D01*
X311149Y478027D01*
Y476758D01*
X309879Y475488D01*
X308610D01*
X309879D01*
X311149Y474218D01*
Y472949D01*
X309879Y471679D01*
X307340D01*
X306070Y472949D01*
X313688Y471679D02*
X316227D01*
X314958D01*
Y479297D01*
X313688Y478027D01*
X332996Y461771D02*
X331726Y463041D01*
X329187D01*
X327917Y461771D01*
Y456693D01*
X329187Y455423D01*
X331726D01*
X332996Y456693D01*
X335535Y461771D02*
X336804Y463041D01*
X339344D01*
X340613Y461771D01*
Y460502D01*
X339344Y459232D01*
X338074D01*
X339344D01*
X340613Y457962D01*
Y456693D01*
X339344Y455423D01*
X336804D01*
X335535Y456693D01*
X343152Y461771D02*
X344422Y463041D01*
X346961D01*
X348231Y461771D01*
Y456693D01*
X346961Y455423D01*
X344422D01*
X343152Y456693D01*
Y461771D01*
X673610Y399287D02*
X672340Y400557D01*
X669801D01*
X668531Y399287D01*
Y394209D01*
X669801Y392939D01*
X672340D01*
X673610Y394209D01*
X681227Y392939D02*
X676149D01*
X681227Y398018D01*
Y399287D01*
X679958Y400557D01*
X677418D01*
X676149Y399287D01*
X683766Y394209D02*
X685036Y392939D01*
X687575D01*
X688845Y394209D01*
Y399287D01*
X687575Y400557D01*
X685036D01*
X683766Y399287D01*
Y398018D01*
X685036Y396748D01*
X688845D01*
X695453Y419864D02*
X694183Y418594D01*
Y416055D01*
X695453Y414785D01*
X700531D01*
X701801Y416055D01*
Y418594D01*
X700531Y419864D01*
X701801Y427481D02*
Y422403D01*
X696722Y427481D01*
X695453D01*
X694183Y426212D01*
Y423672D01*
X695453Y422403D01*
X694183Y430020D02*
Y435099D01*
X695453D01*
X700531Y430020D01*
X701801D01*
X415038Y99059D02*
X413768Y100329D01*
X411229D01*
X409959Y99059D01*
Y93981D01*
X411229Y92711D01*
X413768D01*
X415038Y93981D01*
X422655Y92711D02*
X417577D01*
X422655Y97790D01*
Y99059D01*
X421386Y100329D01*
X418846D01*
X417577Y99059D01*
X425194D02*
X426464Y100329D01*
X429003D01*
X430273Y99059D01*
Y97790D01*
X429003Y96520D01*
X427734D01*
X429003D01*
X430273Y95250D01*
Y93981D01*
X429003Y92711D01*
X426464D01*
X425194Y93981D01*
X388114Y99059D02*
X386844Y100329D01*
X384305D01*
X383035Y99059D01*
Y93981D01*
X384305Y92711D01*
X386844D01*
X388114Y93981D01*
X395731Y92711D02*
X390653D01*
X395731Y97790D01*
Y99059D01*
X394462Y100329D01*
X391922D01*
X390653Y99059D01*
X403349Y92711D02*
X398270D01*
X403349Y97790D01*
Y99059D01*
X402079Y100329D01*
X399540D01*
X398270Y99059D01*
X630175Y135635D02*
X628906Y136905D01*
X626367D01*
X625097Y135635D01*
Y130557D01*
X626367Y129287D01*
X628906D01*
X630175Y130557D01*
X637793Y129287D02*
X632714D01*
X637793Y134366D01*
Y135635D01*
X636523Y136905D01*
X633984D01*
X632714Y135635D01*
X640332Y129287D02*
X642871D01*
X641601D01*
Y136905D01*
X640332Y135635D01*
X531496Y248157D02*
X530227Y249427D01*
X527688D01*
X526418Y248157D01*
Y243079D01*
X527688Y241809D01*
X530227D01*
X531496Y243079D01*
X534036Y241809D02*
X536575D01*
X535305D01*
Y249427D01*
X534036Y248157D01*
X540384D02*
X541653Y249427D01*
X544192D01*
X545462Y248157D01*
Y246888D01*
X544192Y245618D01*
X545462Y244348D01*
Y243079D01*
X544192Y241809D01*
X541653D01*
X540384Y243079D01*
Y244348D01*
X541653Y245618D01*
X540384Y246888D01*
Y248157D01*
X541653Y245618D02*
X544192D01*
X653162Y135635D02*
X651893Y136905D01*
X649354D01*
X648084Y135635D01*
Y130557D01*
X649354Y129287D01*
X651893D01*
X653162Y130557D01*
X655702Y129287D02*
X658241D01*
X656971D01*
Y136905D01*
X655702Y135635D01*
X662050Y136905D02*
X667128D01*
Y135635D01*
X662050Y130557D01*
Y129287D01*
X482855Y181484D02*
X481585Y180215D01*
Y177676D01*
X482855Y176406D01*
X487933D01*
X489203Y177676D01*
Y180215D01*
X487933Y181484D01*
X489203Y184024D02*
Y186563D01*
Y185293D01*
X481585D01*
X482855Y184024D01*
X481585Y195450D02*
X482855Y192911D01*
X485394Y190372D01*
X487933D01*
X489203Y191641D01*
Y194180D01*
X487933Y195450D01*
X486664D01*
X485394Y194180D01*
Y190372D01*
X593853Y151004D02*
X592583Y149735D01*
Y147196D01*
X593853Y145926D01*
X598931D01*
X600201Y147196D01*
Y149735D01*
X598931Y151004D01*
X600201Y153544D02*
Y156083D01*
Y154813D01*
X592583D01*
X593853Y153544D01*
X600201Y163700D02*
X592583D01*
X596392Y159892D01*
Y164970D01*
X533147Y151766D02*
X531877Y150497D01*
Y147958D01*
X533147Y146688D01*
X538225D01*
X539495Y147958D01*
Y150497D01*
X538225Y151766D01*
X539495Y154306D02*
Y156845D01*
Y155575D01*
X531877D01*
X533147Y154306D01*
Y160654D02*
X531877Y161923D01*
Y164462D01*
X533147Y165732D01*
X534416D01*
X535686Y164462D01*
Y163193D01*
Y164462D01*
X536956Y165732D01*
X538225D01*
X539495Y164462D01*
Y161923D01*
X538225Y160654D01*
X720472Y126745D02*
X719203Y128015D01*
X716664D01*
X715394Y126745D01*
Y121667D01*
X716664Y120397D01*
X719203D01*
X720472Y121667D01*
X723012Y120397D02*
X725551D01*
X724281D01*
Y128015D01*
X723012Y126745D01*
X734438Y120397D02*
X729360D01*
X734438Y125476D01*
Y126745D01*
X733168Y128015D01*
X730629D01*
X729360Y126745D01*
X728092Y203961D02*
X726822Y205231D01*
X724283D01*
X723014Y203961D01*
Y198883D01*
X724283Y197613D01*
X726822D01*
X728092Y198883D01*
X730631Y197613D02*
X733170D01*
X731901D01*
Y205231D01*
X730631Y203961D01*
X736979Y197613D02*
X739518D01*
X738249D01*
Y205231D01*
X736979Y203961D01*
X618744Y372363D02*
X617475Y373633D01*
X614936D01*
X613666Y372363D01*
Y367285D01*
X614936Y366015D01*
X617475D01*
X618744Y367285D01*
X621284Y373633D02*
X626362D01*
Y372363D01*
X621284Y367285D01*
Y366015D01*
X201930Y462279D02*
X200661Y463549D01*
X198122D01*
X196852Y462279D01*
Y457201D01*
X198122Y455931D01*
X200661D01*
X201930Y457201D01*
X209548Y463549D02*
X207009Y462279D01*
X204470Y459740D01*
Y457201D01*
X205739Y455931D01*
X208278D01*
X209548Y457201D01*
Y458470D01*
X208278Y459740D01*
X204470D01*
X224282Y462533D02*
X223013Y463803D01*
X220474D01*
X219204Y462533D01*
Y457455D01*
X220474Y456185D01*
X223013D01*
X224282Y457455D01*
X231900Y463803D02*
X226822D01*
Y459994D01*
X229361Y461264D01*
X230630D01*
X231900Y459994D01*
Y457455D01*
X230630Y456185D01*
X228091D01*
X226822Y457455D01*
X261366Y294385D02*
X260097Y295655D01*
X257558D01*
X256288Y294385D01*
Y289307D01*
X257558Y288037D01*
X260097D01*
X261366Y289307D01*
X267714Y288037D02*
Y295655D01*
X263906Y291846D01*
X268984D01*
X246888Y462279D02*
X245619Y463549D01*
X243080D01*
X241810Y462279D01*
Y457201D01*
X243080Y455931D01*
X245619D01*
X246888Y457201D01*
X249428Y462279D02*
X250697Y463549D01*
X253236D01*
X254506Y462279D01*
Y461010D01*
X253236Y459740D01*
X251967D01*
X253236D01*
X254506Y458470D01*
Y457201D01*
X253236Y455931D01*
X250697D01*
X249428Y457201D01*
X257810Y330453D02*
X256541Y331723D01*
X254002D01*
X252732Y330453D01*
Y325375D01*
X254002Y324105D01*
X256541D01*
X257810Y325375D01*
X265428Y324105D02*
X260350D01*
X265428Y329184D01*
Y330453D01*
X264158Y331723D01*
X261619D01*
X260350Y330453D01*
X474472Y258825D02*
X473202Y260095D01*
X470663D01*
X469394Y258825D01*
Y253747D01*
X470663Y252477D01*
X473202D01*
X474472Y253747D01*
X477011Y252477D02*
X479550D01*
X478281D01*
Y260095D01*
X477011Y258825D01*
D18*
X711657Y365293D02*
X708324D01*
X709990D01*
Y370291D01*
X706658Y365293D02*
Y368625D01*
X704992Y370291D01*
X703326Y368625D01*
Y365293D01*
X698328Y366126D02*
X699161Y365293D01*
X700827D01*
X701660Y366126D01*
Y366959D01*
X700827Y367792D01*
X699161D01*
X698328Y368625D01*
Y369458D01*
X699161Y370291D01*
X700827D01*
X701660Y369458D01*
X696662Y370291D02*
X694995D01*
X695828D01*
Y365293D01*
X696662Y366126D01*
X525171Y339385D02*
Y344383D01*
X527670D01*
X528503Y343550D01*
Y341884D01*
X527670Y341051D01*
X525171D01*
X526837D02*
X528503Y339385D01*
X530169Y344383D02*
X533501D01*
Y343550D01*
X530169Y340218D01*
Y339385D01*
X460351D02*
Y344383D01*
X462850D01*
X463684Y343550D01*
Y341884D01*
X462850Y341051D01*
X460351D01*
X462017D02*
X463684Y339385D01*
X467849D02*
Y344383D01*
X465350Y341884D01*
X468682D01*
X503581Y339385D02*
Y344383D01*
X506080D01*
X506913Y343550D01*
Y341884D01*
X506080Y341051D01*
X503581D01*
X505247D02*
X506913Y339385D01*
X511911D02*
X508579D01*
X511911Y342717D01*
Y343550D01*
X511078Y344383D01*
X509412D01*
X508579Y343550D01*
X482570Y339385D02*
Y344383D01*
X485069D01*
X485902Y343550D01*
Y341884D01*
X485069Y341051D01*
X482570D01*
X484236D02*
X485902Y339385D01*
X487568D02*
X489234D01*
X488401D01*
Y344383D01*
X487568Y343550D01*
X518229Y393168D02*
X517396Y392335D01*
Y390669D01*
X518229Y389836D01*
X521561D01*
X522394Y390669D01*
Y392335D01*
X521561Y393168D01*
X522394Y398167D02*
Y394835D01*
X519062Y398167D01*
X518229D01*
X517396Y397334D01*
Y395668D01*
X518229Y394835D01*
X517396Y403165D02*
X518229Y401499D01*
X519895Y399833D01*
X521561D01*
X522394Y400666D01*
Y402332D01*
X521561Y403165D01*
X520728D01*
X519895Y402332D01*
Y399833D01*
X490190Y392064D02*
X489357Y392897D01*
X487691D01*
X486857Y392064D01*
Y388732D01*
X487691Y387899D01*
X489357D01*
X490190Y388732D01*
X495188Y387899D02*
X491856D01*
X495188Y391231D01*
Y392064D01*
X494355Y392897D01*
X492689D01*
X491856Y392064D01*
X500187Y392897D02*
X496854D01*
Y390398D01*
X498520Y391231D01*
X499353D01*
X500187Y390398D01*
Y388732D01*
X499353Y387899D01*
X497687D01*
X496854Y388732D01*
X539420Y49313D02*
X538587Y50146D01*
X536921D01*
X536088Y49313D01*
Y45981D01*
X536921Y45148D01*
X538587D01*
X539420Y45981D01*
X544418Y45148D02*
X541086D01*
X544418Y48480D01*
Y49313D01*
X543585Y50146D01*
X541919D01*
X541086Y49313D01*
X546084D02*
X546917Y50146D01*
X548583D01*
X549417Y49313D01*
Y45981D01*
X548583Y45148D01*
X546917D01*
X546084Y45981D01*
Y49313D01*
X518246D02*
X517413Y50146D01*
X515747D01*
X514914Y49313D01*
Y45981D01*
X515747Y45148D01*
X517413D01*
X518246Y45981D01*
X519912Y45148D02*
X521579D01*
X520746D01*
Y50146D01*
X519912Y49313D01*
X524078Y45981D02*
X524911Y45148D01*
X526577D01*
X527410Y45981D01*
Y49313D01*
X526577Y50146D01*
X524911D01*
X524078Y49313D01*
Y48480D01*
X524911Y47647D01*
X527410D01*
X460380Y195468D02*
X459547Y196301D01*
X457881D01*
X457048Y195468D01*
Y192136D01*
X457881Y191303D01*
X459547D01*
X460380Y192136D01*
X462046Y191303D02*
X463713D01*
X462879D01*
Y196301D01*
X462046Y195468D01*
X469544Y196301D02*
X466212D01*
Y193802D01*
X467878Y194635D01*
X468711D01*
X469544Y193802D01*
Y192136D01*
X468711Y191303D01*
X467045D01*
X466212Y192136D01*
X453014Y392064D02*
X452181Y392897D01*
X450515D01*
X449682Y392064D01*
Y388732D01*
X450515Y387899D01*
X452181D01*
X453014Y388732D01*
X454680Y387899D02*
X456347D01*
X455513D01*
Y392897D01*
X454680Y392064D01*
X458846D02*
X459679Y392897D01*
X461345D01*
X462178Y392064D01*
Y388732D01*
X461345Y387899D01*
X459679D01*
X458846Y388732D01*
Y392064D01*
X442094Y343550D02*
X441260Y344383D01*
X439594D01*
X438761Y343550D01*
Y340218D01*
X439594Y339385D01*
X441260D01*
X442094Y340218D01*
X443760D02*
X444593Y339385D01*
X446259D01*
X447092Y340218D01*
Y343550D01*
X446259Y344383D01*
X444593D01*
X443760Y343550D01*
Y342717D01*
X444593Y341884D01*
X447092D01*
X596494Y256682D02*
X595661Y257515D01*
X593995D01*
X593162Y256682D01*
Y253350D01*
X593995Y252517D01*
X595661D01*
X596494Y253350D01*
X598160Y256682D02*
X598993Y257515D01*
X600659D01*
X601493Y256682D01*
Y255849D01*
X600659Y255016D01*
X601493Y254183D01*
Y253350D01*
X600659Y252517D01*
X598993D01*
X598160Y253350D01*
Y254183D01*
X598993Y255016D01*
X598160Y255849D01*
Y256682D01*
X598993Y255016D02*
X600659D01*
D19*
X795018Y527231D02*
X789940D01*
Y523423D01*
X792479D01*
X789940D01*
Y519614D01*
X797558Y527231D02*
Y519614D01*
X801366D01*
X802636Y520884D01*
Y525962D01*
X801366Y527231D01*
X797558D01*
X808984Y519614D02*
Y527231D01*
X805175Y523423D01*
X810253D01*
X140968Y51490D02*
X135890D01*
Y47681D01*
X138429D01*
X135890D01*
Y43872D01*
X143507Y51490D02*
Y43872D01*
X147316D01*
X148586Y45142D01*
Y50220D01*
X147316Y51490D01*
X143507D01*
X156203Y43872D02*
X151125D01*
X156203Y48950D01*
Y50220D01*
X154934Y51490D01*
X152395D01*
X151125Y50220D01*
X143508Y539931D02*
X138430D01*
Y536123D01*
X140969D01*
X138430D01*
Y532314D01*
X146047Y539931D02*
Y532314D01*
X149856D01*
X151126Y533584D01*
Y538662D01*
X149856Y539931D01*
X146047D01*
X153665Y532314D02*
X156204D01*
X154935D01*
Y539931D01*
X153665Y538662D01*
M02*
