G04*
G04 #@! TF.GenerationSoftware,Altium Limited,Altium Designer,23.8.1 (32)*
G04*
G04 Layer_Color=255*
%FSLAX44Y44*%
%MOMM*%
G71*
G04*
G04 #@! TF.SameCoordinates,5CA60E89-82B3-479B-9089-D34F769FB2F0*
G04*
G04*
G04 #@! TF.FilePolarity,Positive*
G04*
G01*
G75*
%ADD37C,1.0000*%
%ADD74O,1.5000X2.1000*%
%ADD75O,3.0000X2.0000*%
%ADD76C,1.8000*%
D37*
X804926Y34544D02*
D03*
X144526Y518160D02*
D03*
X141986Y29718D02*
D03*
X796036Y505460D02*
D03*
D74*
X293624Y19050D02*
D03*
X319024D02*
D03*
X344424D02*
D03*
X369824D02*
D03*
X395224D02*
D03*
D75*
X913130Y110490D02*
D03*
Y135890D02*
D03*
X914400Y182160D02*
D03*
Y220260D02*
D03*
Y258360D02*
D03*
Y296460D02*
D03*
Y334560D02*
D03*
Y372660D02*
D03*
Y410760D02*
D03*
Y448860D02*
D03*
D76*
X70322Y394252D02*
D03*
Y368852D02*
D03*
Y343452D02*
D03*
Y318052D02*
D03*
Y292652D02*
D03*
Y267252D02*
D03*
Y241852D02*
D03*
Y216452D02*
D03*
Y191052D02*
D03*
Y165652D02*
D03*
X44922Y394252D02*
D03*
Y368852D02*
D03*
Y343452D02*
D03*
Y318052D02*
D03*
Y292652D02*
D03*
Y267252D02*
D03*
Y241852D02*
D03*
Y216452D02*
D03*
Y191052D02*
D03*
Y165652D02*
D03*
M02*
