G04*
G04 #@! TF.GenerationSoftware,Altium Limited,Altium Designer,23.8.1 (32)*
G04*
G04 Layer_Color=128*
%FSLAX44Y44*%
%MOMM*%
G71*
G04*
G04 #@! TF.SameCoordinates,5CA60E89-82B3-479B-9089-D34F769FB2F0*
G04*
G04*
G04 #@! TF.FilePolarity,Positive*
G04*
G01*
G75*
%ADD16C,0.1270*%
D16*
X288124Y19050D02*
X299124D01*
X293624Y13550D02*
Y24550D01*
X313524Y19050D02*
X324524D01*
X319024Y13550D02*
Y24550D01*
X338924Y19050D02*
X349924D01*
X344424Y13550D02*
Y24550D01*
X364324Y19050D02*
X375324D01*
X369824Y13550D02*
Y24550D01*
X389724Y19050D02*
X400724D01*
X395224Y13550D02*
Y24550D01*
X907630Y110490D02*
X918630D01*
X913130Y104990D02*
Y115990D01*
X907630Y135890D02*
X918630D01*
X913130Y130390D02*
Y141390D01*
X65222Y394252D02*
X75422D01*
X70322Y389152D02*
Y399352D01*
X65222Y368852D02*
X75422D01*
X70322Y363752D02*
Y373952D01*
X65222Y343452D02*
X75422D01*
X70322Y338352D02*
Y348552D01*
X65222Y318052D02*
X75422D01*
X70322Y312952D02*
Y323152D01*
X65222Y292652D02*
X75422D01*
X70322Y287552D02*
Y297752D01*
X65222Y267252D02*
X75422D01*
X70322Y262152D02*
Y272352D01*
X65222Y241852D02*
X75422D01*
X70322Y236752D02*
Y246952D01*
X65222Y216452D02*
X75422D01*
X70322Y211352D02*
Y221552D01*
X65222Y191052D02*
X75422D01*
X70322Y185952D02*
Y196152D01*
X65222Y165652D02*
X75422D01*
X70322Y160552D02*
Y170752D01*
X39822Y394252D02*
X50022D01*
X44922Y389152D02*
Y399352D01*
X39822Y368852D02*
X50022D01*
X44922Y363752D02*
Y373952D01*
X39822Y343452D02*
X50022D01*
X44922Y338352D02*
Y348552D01*
X39822Y318052D02*
X50022D01*
X44922Y312952D02*
Y323152D01*
X39822Y292652D02*
X50022D01*
X44922Y287552D02*
Y297752D01*
X39822Y267252D02*
X50022D01*
X44922Y262152D02*
Y272352D01*
X39822Y241852D02*
X50022D01*
X44922Y236752D02*
Y246952D01*
X39822Y216452D02*
X50022D01*
X44922Y211352D02*
Y221552D01*
X39822Y191052D02*
X50022D01*
X44922Y185952D02*
Y196152D01*
X39822Y165652D02*
X50022D01*
X44922Y160552D02*
Y170752D01*
X907400Y182160D02*
X921400D01*
X914400Y175160D02*
Y189160D01*
X907400Y220260D02*
X921400D01*
X914400Y213260D02*
Y227260D01*
X907400Y258360D02*
X921400D01*
X914400Y251360D02*
Y265360D01*
X907400Y296460D02*
X921400D01*
X914400Y289460D02*
Y303460D01*
X907400Y334560D02*
X921400D01*
X914400Y327560D02*
Y341560D01*
X907400Y372660D02*
X921400D01*
X914400Y365660D02*
Y379660D01*
X907400Y410760D02*
X921400D01*
X914400Y403760D02*
Y417760D01*
X907400Y448860D02*
X921400D01*
X914400Y441860D02*
Y455860D01*
X492481Y283464D02*
X495481D01*
X493981Y281964D02*
Y284964D01*
X492481Y293624D02*
X495481D01*
X493981Y292124D02*
Y295124D01*
X492481Y303784D02*
X495481D01*
X493981Y302284D02*
Y305284D01*
X507721Y303784D02*
X510721D01*
X509221Y302284D02*
Y305284D01*
X507721Y293624D02*
X510721D01*
X509221Y292124D02*
Y295124D01*
X507721Y283464D02*
X510721D01*
X509221Y281964D02*
Y284964D01*
X198144Y281432D02*
X201144D01*
X199644Y279932D02*
Y282932D01*
X236498Y270764D02*
X239498D01*
X237998Y269264D02*
Y272264D01*
X825946Y89662D02*
X828946D01*
X827446Y88162D02*
Y91162D01*
X528852Y392684D02*
X531852D01*
X530352Y391184D02*
Y394184D01*
X513358Y419862D02*
X516358D01*
X514858Y418362D02*
Y421362D01*
X504849Y419862D02*
X507849D01*
X506349Y418362D02*
Y421362D01*
X496340Y419862D02*
X499340D01*
X497840Y418362D02*
Y421362D01*
X513358Y427736D02*
X516358D01*
X514858Y426236D02*
Y429236D01*
X504849Y427736D02*
X507849D01*
X506349Y426236D02*
Y429236D01*
X496340Y427736D02*
X499340D01*
X497840Y426236D02*
Y429236D01*
X629690Y520446D02*
X632690D01*
X631190Y518946D02*
Y521946D01*
X528344Y497078D02*
X531344D01*
X529844Y495578D02*
Y498578D01*
X700556Y448564D02*
X703556D01*
X702056Y447064D02*
Y450064D01*
X157250Y394208D02*
X160250D01*
X158750Y392708D02*
Y395708D01*
X157250Y404114D02*
X160250D01*
X158750Y402614D02*
Y405614D01*
X157250Y415036D02*
X160250D01*
X158750Y413536D02*
Y416536D01*
X157250Y425450D02*
X160250D01*
X158750Y423950D02*
Y426950D01*
X145566Y425450D02*
X148566D01*
X147066Y423950D02*
Y426950D01*
X145566Y415036D02*
X148566D01*
X147066Y413536D02*
Y416536D01*
X145566Y404114D02*
X148566D01*
X147066Y402614D02*
Y405614D01*
X145566Y394208D02*
X148566D01*
X147066Y392708D02*
Y395708D01*
X694714Y261112D02*
X697714D01*
X696214Y259612D02*
Y262612D01*
X694714Y271018D02*
X697714D01*
X696214Y269518D02*
Y272518D01*
X694714Y281940D02*
X697714D01*
X696214Y280440D02*
Y283440D01*
X694714Y292354D02*
X697714D01*
X696214Y290854D02*
Y293854D01*
X706398Y292354D02*
X709398D01*
X707898Y290854D02*
Y293854D01*
X706398Y281940D02*
X709398D01*
X707898Y280440D02*
Y283440D01*
X706398Y271018D02*
X709398D01*
X707898Y269518D02*
Y272518D01*
X706398Y261112D02*
X709398D01*
X707898Y259612D02*
Y262612D01*
X648740Y165608D02*
X651740D01*
X650240Y164108D02*
Y167108D01*
X805712Y119634D02*
X808712D01*
X807212Y118134D02*
Y121134D01*
X562888Y404368D02*
X565888D01*
X564388Y402868D02*
Y405868D01*
X592352Y179070D02*
X595352D01*
X593852Y177570D02*
Y180570D01*
X697762Y167386D02*
X700762D01*
X699262Y165886D02*
Y168886D01*
X749070Y200914D02*
X752070D01*
X750570Y199414D02*
Y202414D01*
X799870Y115062D02*
X802870D01*
X801370Y113562D02*
Y116562D01*
X252762Y408800D02*
X255762D01*
X254262Y407300D02*
Y410300D01*
X341146Y539750D02*
X344146D01*
X342646Y538250D02*
Y541250D01*
X329462Y540004D02*
X332462D01*
X330962Y538504D02*
Y541504D01*
X478052Y513842D02*
X481052D01*
X479552Y512342D02*
Y515342D01*
X465098Y514096D02*
X468098D01*
X466598Y512596D02*
Y515596D01*
X652042Y522478D02*
X655042D01*
X653542Y520978D02*
Y523978D01*
X609878Y394716D02*
X612878D01*
X611378Y393216D02*
Y396216D01*
X586002Y394970D02*
X589002D01*
X587502Y393470D02*
Y396470D01*
X573302Y119888D02*
X576302D01*
X574802Y118388D02*
Y121388D01*
X570254Y134366D02*
X573254D01*
X571754Y132866D02*
Y135866D01*
X437920Y51308D02*
X440920D01*
X439420Y49808D02*
Y52808D01*
X438682Y77216D02*
X441682D01*
X440182Y75716D02*
Y78716D01*
X448334Y57658D02*
X451334D01*
X449834Y56158D02*
Y59158D01*
X488760Y165902D02*
X491760D01*
X490260Y164402D02*
Y167402D01*
X503706Y56388D02*
X506706D01*
X505206Y54888D02*
Y57888D01*
X707160Y377444D02*
X710160D01*
X708660Y375944D02*
Y378944D01*
X522756Y57404D02*
X525756D01*
X524256Y55904D02*
Y58904D01*
X559840Y30988D02*
X562840D01*
X561340Y29488D02*
Y32488D01*
X372134Y60960D02*
X375134D01*
X373634Y59460D02*
Y62460D01*
X474750Y193548D02*
X477750D01*
X476250Y192048D02*
Y195048D01*
X546632Y140208D02*
X549632D01*
X548132Y138708D02*
Y141708D01*
X547394Y83058D02*
X550394D01*
X548894Y81558D02*
Y84558D01*
X121436Y186944D02*
X124436D01*
X122936Y185444D02*
Y188444D01*
X441476Y149606D02*
X444476D01*
X442976Y148106D02*
Y151106D01*
X291616Y141986D02*
X294616D01*
X293116Y140486D02*
Y143486D01*
X271042Y229506D02*
X274042D01*
X272542Y228006D02*
Y231006D01*
X269772Y216506D02*
X272772D01*
X271272Y215006D02*
Y218006D01*
X269518Y190754D02*
X272518D01*
X271018Y189254D02*
Y192254D01*
X269772Y203708D02*
X272772D01*
X271272Y202208D02*
Y205208D01*
X333018Y102004D02*
X336018D01*
X334518Y100504D02*
Y103504D01*
X343178Y95504D02*
X346178D01*
X344678Y94004D02*
Y97004D01*
X140232Y201422D02*
X143232D01*
X141732Y199922D02*
Y202922D01*
X152678Y214630D02*
X155678D01*
X154178Y213130D02*
Y216130D01*
X164870Y228600D02*
X167870D01*
X166370Y227100D02*
Y230100D01*
X194762Y349460D02*
X197762D01*
X196262Y347960D02*
Y350960D01*
X672870Y522986D02*
X675870D01*
X674370Y521486D02*
Y524486D01*
M02*
